<svg width="64" height="63" viewBox="0 0 64 63" fill="none" xmlns="http://www.w3.org/2000/svg">
<g clip-path="url(#clip0_250_106)">
<path d="M32.5 62.5C49.6208 62.5 63.5 48.6208 63.5 31.5C63.5 14.3792 49.6208 0.5 32.5 0.5C15.3792 0.5 1.5 14.3792 1.5 31.5C1.5 48.6208 15.3792 62.5 32.5 62.5Z" fill="white" stroke="white"/>
<path d="M39.7917 25.6673H42.7083C43.4819 25.6673 44.2237 25.9746 44.7707 26.5216C45.3177 27.0686 45.625 27.8104 45.625 28.584V37.334C45.625 38.1075 45.3177 38.8494 44.7707 39.3964C44.2237 39.9434 43.4819 40.2507 42.7083 40.2507H39.7917V46.084L33.9583 40.2507H28.125C27.7419 40.251 27.3626 40.1758 27.0087 40.0291C26.6548 39.8824 26.3334 39.6673 26.0629 39.3961M26.0629 39.3961L31.0417 34.4173H36.875C37.6485 34.4173 38.3904 34.11 38.9374 33.563C39.4844 33.0161 39.7917 32.2742 39.7917 31.5007V22.7507C39.7917 21.9771 39.4844 21.2352 38.9374 20.6883C38.3904 20.1413 37.6485 19.834 36.875 19.834H22.2917C21.5181 19.834 20.7763 20.1413 20.2293 20.6883C19.6823 21.2352 19.375 21.9771 19.375 22.7507V31.5007C19.375 32.2742 19.6823 33.0161 20.2293 33.563C20.7763 34.11 21.5181 34.4173 22.2917 34.4173H25.2083V40.2507L26.0629 39.3961Z" stroke="black" stroke-width="2" stroke-linecap="round" stroke-linejoin="round"/>
</g>
<defs>
<clipPath id="clip0_250_106">
<rect width="63" height="63" fill="white" transform="translate(1)"/>
</clipPath>
</defs>
</svg>
