<svg width="63" height="63" viewBox="0 0 63 63" fill="none" xmlns="http://www.w3.org/2000/svg">
<g clip-path="url(#clip0_251_148)">
<path d="M31.5 62.5C48.6208 62.5 62.5 48.6208 62.5 31.5C62.5 14.3792 48.6208 0.5 31.5 0.5C14.3792 0.5 0.5 14.3792 0.5 31.5C0.5 48.6208 14.3792 62.5 31.5 62.5Z" fill="white" stroke="white"/>
<path d="M44.2701 30.1671C45.295 29.4468 45.9737 28.2488 45.9737 26.8984C45.9737 24.6892 44.187 22.9025 41.9778 22.9025C39.7687 22.9025 37.982 24.6892 37.982 26.8984C37.982 28.2488 38.6537 29.4468 39.6856 30.1671C38.8061 30.4718 38.0028 30.9427 37.3241 31.5521C36.3892 30.7557 35.2881 30.1463 34.0831 29.7862C35.5443 28.8998 36.5277 27.2862 36.5277 25.451C36.5277 22.6532 34.2632 20.3887 31.4654 20.3887C28.6676 20.3887 26.403 22.6601 26.403 25.451C26.403 27.2862 27.3795 28.8998 28.8476 29.7862C27.6565 30.1463 26.5693 30.7488 25.6413 31.5313C24.9626 30.9358 24.1731 30.4718 23.3075 30.174C24.3324 29.4538 25.0111 28.2557 25.0111 26.9053C25.0111 24.6962 23.2244 22.9094 21.0152 22.9094C18.8061 22.9094 17.0194 24.6962 17.0194 26.9053C17.0194 28.2557 17.6911 29.4538 18.723 30.174C15.9737 31.1227 14 33.7335 14 36.8014V37.2585C14 37.2723 14.0139 37.2862 14.0277 37.2862H22.4972C22.4488 37.6671 22.4211 38.0618 22.4211 38.4565V38.9275C22.4211 40.9635 24.0693 42.6117 26.1053 42.6117H36.8393C38.8753 42.6117 40.5235 40.9635 40.5235 38.9275V38.4565C40.5235 38.0618 40.4958 37.6671 40.4474 37.2862H48.9723C48.9862 37.2862 49 37.2723 49 37.2585V36.8014C48.9862 33.7266 47.0194 31.1158 44.2701 30.1671ZM39.09 26.8914C39.09 25.2986 40.385 24.0036 41.9778 24.0036C43.5706 24.0036 44.8657 25.2986 44.8657 26.8914C44.8657 28.4635 43.5983 29.7446 42.0332 29.7793C42.0125 29.7793 41.9986 29.7793 41.9778 29.7793C41.9571 29.7793 41.9432 29.7793 41.9224 29.7793C40.3504 29.7516 39.09 28.4704 39.09 26.8914ZM27.4972 25.451C27.4972 23.2696 29.2701 21.4967 31.4515 21.4967C33.633 21.4967 35.4058 23.2696 35.4058 25.451C35.4058 27.5563 33.7507 29.2806 31.6801 29.3984C31.6039 29.3984 31.5277 29.3984 31.4515 29.3984C31.3753 29.3984 31.2992 29.3984 31.223 29.3984C29.1524 29.2806 27.4972 27.5563 27.4972 25.451ZM18.1066 26.8914C18.1066 25.2986 19.4017 24.0036 20.9945 24.0036C22.5873 24.0036 23.8823 25.2986 23.8823 26.8914C23.8823 28.4635 22.615 29.7446 21.0499 29.7793C21.0291 29.7793 21.0152 29.7793 20.9945 29.7793C20.9737 29.7793 20.9598 29.7793 20.9391 29.7793C19.374 29.7516 18.1066 28.4704 18.1066 26.8914ZM22.6911 36.1712H15.1219C15.4335 33.2211 17.9266 30.9081 20.9529 30.8873C20.9668 30.8873 20.9806 30.8873 20.9945 30.8873C21.0083 30.8873 21.0222 30.8873 21.036 30.8873C22.4765 30.8942 23.7922 31.4275 24.8103 32.2931C23.813 33.3734 23.072 34.7031 22.6911 36.1712ZM39.4017 38.9275C39.4017 40.3471 38.2452 41.5036 36.8255 41.5036H26.0914C24.6717 41.5036 23.5152 40.3471 23.5152 38.9275V38.4565C23.5152 34.156 26.9501 30.638 31.223 30.5133C31.2992 30.5203 31.3823 30.5203 31.4585 30.5203C31.5346 30.5203 31.6177 30.5203 31.6939 30.5133C35.9668 30.638 39.4017 34.156 39.4017 38.4565V38.9275ZM40.2258 36.1712C39.8449 34.71 39.1177 33.4011 38.1274 32.3208C39.1524 31.4344 40.482 30.9011 41.9363 30.8873C41.9501 30.8873 41.964 30.8873 41.9778 30.8873C41.9917 30.8873 42.0055 30.8873 42.0194 30.8873C45.0457 30.9081 47.5388 33.2211 47.8504 36.1712H40.2258Z" fill="black"/>
<mask id="mask0_251_148" style="mask-type:luminance" maskUnits="userSpaceOnUse" x="13" y="19" width="37" height="25">
<path d="M50 19.3887H13V43.3887H50V19.3887Z" fill="white"/>
<path d="M44.2701 30.1671C45.295 29.4468 45.9737 28.2488 45.9737 26.8984C45.9737 24.6892 44.187 22.9025 41.9778 22.9025C39.7687 22.9025 37.982 24.6892 37.982 26.8984C37.982 28.2488 38.6537 29.4468 39.6856 30.1671C38.8061 30.4718 38.0028 30.9427 37.3241 31.5521C36.3892 30.7557 35.2881 30.1463 34.0831 29.7862C35.5443 28.8998 36.5277 27.2862 36.5277 25.451C36.5277 22.6532 34.2632 20.3887 31.4654 20.3887C28.6676 20.3887 26.403 22.6601 26.403 25.451C26.403 27.2862 27.3795 28.8998 28.8476 29.7862C27.6565 30.1463 26.5693 30.7488 25.6413 31.5313C24.9626 30.9358 24.1731 30.4718 23.3075 30.174C24.3324 29.4538 25.0111 28.2557 25.0111 26.9053C25.0111 24.6962 23.2244 22.9094 21.0152 22.9094C18.8061 22.9094 17.0194 24.6962 17.0194 26.9053C17.0194 28.2557 17.6911 29.4538 18.723 30.174C15.9737 31.1227 14 33.7335 14 36.8014V37.2585C14 37.2723 14.0139 37.2862 14.0277 37.2862H22.4972C22.4488 37.6671 22.4211 38.0618 22.4211 38.4565V38.9275C22.4211 40.9635 24.0693 42.6117 26.1053 42.6117H36.8393C38.8753 42.6117 40.5235 40.9635 40.5235 38.9275V38.4565C40.5235 38.0618 40.4958 37.6671 40.4474 37.2862H48.9723C48.9862 37.2862 49 37.2723 49 37.2585V36.8014C48.9862 33.7266 47.0194 31.1158 44.2701 30.1671ZM39.09 26.8914C39.09 25.2986 40.385 24.0036 41.9778 24.0036C43.5706 24.0036 44.8657 25.2986 44.8657 26.8914C44.8657 28.4635 43.5983 29.7446 42.0332 29.7793C42.0125 29.7793 41.9986 29.7793 41.9778 29.7793C41.9571 29.7793 41.9432 29.7793 41.9224 29.7793C40.3504 29.7516 39.09 28.4704 39.09 26.8914ZM27.4972 25.451C27.4972 23.2696 29.2701 21.4967 31.4515 21.4967C33.633 21.4967 35.4058 23.2696 35.4058 25.451C35.4058 27.5563 33.7507 29.2806 31.6801 29.3984C31.6039 29.3984 31.5277 29.3984 31.4515 29.3984C31.3753 29.3984 31.2992 29.3984 31.223 29.3984C29.1524 29.2806 27.4972 27.5563 27.4972 25.451ZM18.1066 26.8914C18.1066 25.2986 19.4017 24.0036 20.9945 24.0036C22.5873 24.0036 23.8823 25.2986 23.8823 26.8914C23.8823 28.4635 22.615 29.7446 21.0499 29.7793C21.0291 29.7793 21.0152 29.7793 20.9945 29.7793C20.9737 29.7793 20.9598 29.7793 20.9391 29.7793C19.374 29.7516 18.1066 28.4704 18.1066 26.8914ZM22.6911 36.1712H15.1219C15.4335 33.2211 17.9266 30.9081 20.9529 30.8873C20.9668 30.8873 20.9806 30.8873 20.9945 30.8873C21.0083 30.8873 21.0222 30.8873 21.036 30.8873C22.4765 30.8942 23.7922 31.4275 24.8103 32.2931C23.813 33.3734 23.072 34.7031 22.6911 36.1712ZM39.4017 38.9275C39.4017 40.3471 38.2452 41.5036 36.8255 41.5036H26.0914C24.6717 41.5036 23.5152 40.3471 23.5152 38.9275V38.4565C23.5152 34.156 26.9501 30.638 31.223 30.5133C31.2992 30.5203 31.3823 30.5203 31.4585 30.5203C31.5346 30.5203 31.6177 30.5203 31.6939 30.5133C35.9668 30.638 39.4017 34.156 39.4017 38.4565V38.9275ZM40.2258 36.1712C39.8449 34.71 39.1177 33.4011 38.1274 32.3208C39.1524 31.4344 40.482 30.9011 41.9363 30.8873C41.9501 30.8873 41.964 30.8873 41.9778 30.8873C41.9917 30.8873 42.0055 30.8873 42.0194 30.8873C45.0457 30.9081 47.5388 33.2211 47.8504 36.1712H40.2258Z" fill="#47BEB9"/>
</mask>
<g mask="url(#mask0_251_148)">
<path d="M44.2703 30.167L44.0978 29.9215L43.6175 30.259L44.1724 30.4506L44.2703 30.167ZM39.6858 30.167L39.784 30.4504L40.3401 30.2578L39.8575 29.921L39.6858 30.167ZM37.3243 31.552L37.1298 31.7804L37.3295 31.9505L37.5247 31.7752L37.3243 31.552ZM34.0833 29.7861L33.9277 29.5296L33.35 29.88L33.9974 30.0735L34.0833 29.7861ZM28.8478 29.7861L28.9347 30.0732L29.5805 29.878L29.0029 29.5293L28.8478 29.7861ZM25.6415 31.5312L25.4436 31.7567L25.6376 31.9269L25.8349 31.7606L25.6415 31.5312ZM23.3077 30.1739L23.1352 29.9284L22.6543 30.2664L23.2101 30.4576L23.3077 30.1739ZM18.7232 30.1739L18.8211 30.4575L19.3782 30.2652L18.8949 29.9279L18.7232 30.1739ZM22.4974 37.2861L22.795 37.324L22.838 36.9861H22.4974V37.2861ZM40.4476 37.2861V36.9861H40.107L40.15 37.324L40.4476 37.2861ZM49.0002 36.8013H49.3002V36.8L49.0002 36.8013ZM42.0334 29.7792V30.0792L42.0401 30.0791L42.0334 29.7792ZM41.9226 29.7792L41.9174 30.0792H41.9226V29.7792ZM31.6803 29.3983V29.6983H31.6888L31.6973 29.6978L31.6803 29.3983ZM31.2232 29.3983L31.2062 29.6978L31.2147 29.6983H31.2232V29.3983ZM21.0501 29.7792V30.0792L21.0567 30.0791L21.0501 29.7792ZM20.9393 29.7792L20.9339 30.0792H20.9393V29.7792ZM22.6913 36.1711V36.4711H22.9234L22.9817 36.2465L22.6913 36.1711ZM15.1221 36.1711L14.8237 36.1396L14.7887 36.4711H15.1221V36.1711ZM20.9531 30.8872V30.5872H20.951L20.9531 30.8872ZM21.0362 30.8872L21.0377 30.5872H21.0362V30.8872ZM24.8105 32.293L25.0309 32.4965L25.2428 32.2669L25.0048 32.0645L24.8105 32.293ZM31.2232 30.5132L31.2504 30.2145L31.2324 30.2128L31.2144 30.2134L31.2232 30.5132ZM31.6941 30.5132L31.7029 30.2134L31.6849 30.2128L31.6669 30.2145L31.6941 30.5132ZM40.226 36.1711L39.9357 36.2468L39.9941 36.4711H40.226V36.1711ZM38.1276 32.3207L37.9314 32.0938L37.6978 32.2958L37.9065 32.5234L38.1276 32.3207ZM41.9365 30.8872V30.5872H41.9336L41.9365 30.8872ZM42.0196 30.8872L42.0217 30.5872H42.0196V30.8872ZM47.8506 36.1711V36.4711H48.184L48.149 36.1396L47.8506 36.1711ZM44.4428 30.4124C45.5436 29.6389 46.2739 28.3512 46.2739 26.8983H45.6739C45.6739 28.1462 45.0468 29.2546 44.0978 29.9215L44.4428 30.4124ZM46.2739 26.8983C46.2739 24.5234 44.3529 22.6024 41.978 22.6024V23.2024C44.0215 23.2024 45.6739 24.8548 45.6739 26.8983H46.2739ZM41.978 22.6024C39.6032 22.6024 37.6822 24.5234 37.6822 26.8983H38.2822C38.2822 24.8548 39.9346 23.2024 41.978 23.2024V22.6024ZM37.6822 26.8983C37.6822 28.3503 38.4048 29.6387 39.5141 30.413L39.8575 29.921C38.903 29.2548 38.2822 28.147 38.2822 26.8983H37.6822ZM39.5876 29.8835C38.6712 30.201 37.8329 30.6921 37.1239 31.3288L37.5247 31.7752C38.173 31.1931 38.9414 30.7424 39.784 30.4504L39.5876 29.8835ZM37.5188 31.3236C36.553 30.5009 35.4151 29.871 34.1692 29.4986L33.9974 30.0735C35.1615 30.4214 36.2258 31.0103 37.1298 31.7804L37.5188 31.3236ZM34.2389 30.0426C35.7858 29.1042 36.8279 27.3955 36.8279 25.4509H36.2279C36.2279 27.1767 35.3032 28.6951 33.9277 29.5296L34.2389 30.0426ZM36.8279 25.4509C36.8279 22.4874 34.429 20.0886 31.4656 20.0886V20.6886C34.0977 20.6886 36.2279 22.8188 36.2279 25.4509H36.8279ZM31.4656 20.0886C28.5018 20.0886 26.1032 22.4946 26.1032 25.4509H26.7032C26.7032 22.8255 28.8337 20.6886 31.4656 20.6886V20.0886ZM26.1032 25.4509C26.1032 27.3949 27.1379 29.1041 28.6928 30.0429L29.0029 29.5293C27.6215 28.6952 26.7032 27.1773 26.7032 25.4509H26.1032ZM28.761 29.4989C27.5295 29.8712 26.4062 30.4939 25.4481 31.3019L25.8349 31.7606C26.7327 31.0035 27.7839 30.4212 28.9347 30.0732L28.761 29.4989ZM25.8394 31.3057C25.132 30.685 24.3086 30.201 23.4053 29.8902L23.2101 30.4576C24.038 30.7424 24.7936 31.1863 25.4436 31.7567L25.8394 31.3057ZM23.4802 30.4193C24.581 29.6458 25.3113 28.3581 25.3113 26.9052H24.7113C24.7113 28.1531 24.0842 29.2616 23.1352 29.9284L23.4802 30.4193ZM25.3113 26.9052C25.3113 24.5304 23.3903 22.6093 21.0154 22.6093V23.2093C23.0589 23.2093 24.7113 24.8617 24.7113 26.9052H25.3113ZM21.0154 22.6093C18.6406 22.6093 16.7196 24.5304 16.7196 26.9052H17.3196C17.3196 24.8617 18.972 23.2093 21.0154 23.2093V22.6093ZM16.7196 26.9052C16.7196 28.3572 17.4422 29.6457 18.5515 30.4199L18.8949 29.9279C17.9404 29.2617 17.3196 28.154 17.3196 26.9052H16.7196ZM18.6253 29.8903C15.7588 30.8795 13.7002 33.6016 13.7002 36.8013H14.3002C14.3002 33.8653 16.189 31.3658 18.8211 30.4575L18.6253 29.8903ZM13.7002 36.8013V37.2584H14.3002V36.8013H13.7002ZM13.7002 37.2584C13.7002 37.3629 13.7494 37.4423 13.7967 37.4896C13.844 37.5369 13.9234 37.5861 14.0279 37.5861V36.9861C14.1185 36.9861 14.1841 37.0284 14.221 37.0653C14.2579 37.1022 14.3002 37.1677 14.3002 37.2584H13.7002ZM14.0279 37.5861H22.4974V36.9861H14.0279V37.5861ZM22.1998 37.2482C22.1499 37.6404 22.1213 38.0479 22.1213 38.4564H22.7213C22.7213 38.0755 22.748 37.6935 22.795 37.324L22.1998 37.2482ZM22.1213 38.4564V38.9274H22.7213V38.4564H22.1213ZM22.1213 38.9274C22.1213 41.1291 23.9038 42.9116 26.1055 42.9116V42.3116C24.2351 42.3116 22.7213 40.7977 22.7213 38.9274H22.1213ZM26.1055 42.9116H36.8395V42.3116H26.1055V42.9116ZM36.8395 42.9116C39.0412 42.9116 40.8237 41.1291 40.8237 38.9274H40.2237C40.2237 40.7977 38.7099 42.3116 36.8395 42.3116V42.9116ZM40.8237 38.9274V38.4564H40.2237V38.9274H40.8237ZM40.8237 38.4564C40.8237 38.0479 40.7951 37.6404 40.7452 37.2482L40.15 37.324C40.197 37.6935 40.2237 38.0755 40.2237 38.4564H40.8237ZM40.4476 37.5861H48.9725V36.9861H40.4476V37.5861ZM48.9725 37.5861C49.077 37.5861 49.1564 37.5369 49.2037 37.4896C49.251 37.4423 49.3002 37.3629 49.3002 37.2584H48.7002C48.7002 37.1677 48.7425 37.1022 48.7794 37.0653C48.8163 37.0284 48.8819 36.9861 48.9725 36.9861V37.5861ZM49.3002 37.2584V36.8013H48.7002V37.2584H49.3002ZM49.3002 36.8C49.2858 33.5951 47.2355 30.8728 44.3681 29.8834L44.1724 30.4506C46.8037 31.3586 48.6869 33.858 48.7002 36.8027L49.3002 36.8ZM39.3902 26.8913C39.3902 25.4642 40.5509 24.3035 41.978 24.3035V23.7035C40.2196 23.7035 38.7902 25.1329 38.7902 26.8913H39.3902ZM41.978 24.3035C43.4052 24.3035 44.5659 25.4642 44.5659 26.8913H45.1659C45.1659 25.1329 43.7365 23.7035 41.978 23.7035V24.3035ZM44.5659 26.8913C44.5659 28.2988 43.4303 29.4482 42.0268 29.4792L42.0401 30.0791C43.7667 30.0409 45.1659 28.628 45.1659 26.8913H44.5659ZM42.0334 29.4792C42.0335 29.4792 42.0333 29.4792 42.0334 29.4792C42.0333 29.4792 42.0323 29.4792 42.0322 29.4792C42.0323 29.4792 42.0321 29.4792 42.0322 29.4792C42.0321 29.4792 42.0312 29.4792 42.0312 29.4792H42.0301C42.0302 29.4792 42.03 29.4792 42.0301 29.4792C42.03 29.4792 42.0291 29.4792 42.029 29.4792C42.0291 29.4792 42.0289 29.4792 42.029 29.4792H42.0279C42.028 29.4792 42.0278 29.4792 42.0279 29.4792C42.0278 29.4792 42.0269 29.4792 42.0268 29.4792C42.0269 29.4792 42.0267 29.4792 42.0268 29.4792C42.0268 29.4792 42.0258 29.4792 42.0257 29.4792C42.0258 29.4792 42.0256 29.4792 42.0257 29.4792H42.0246C42.0247 29.4792 42.0245 29.4792 42.0246 29.4792H42.0235C42.0236 29.4792 42.0234 29.4792 42.0235 29.4792H42.0224C42.0225 29.4792 42.0223 29.4792 42.0224 29.4792H42.0214C42.0215 29.4792 42.0213 29.4792 42.0214 29.4792C42.0214 29.4792 42.0204 29.4792 42.0203 29.4792C42.0202 29.4792 42.0192 29.4792 42.0192 29.4792C42.0193 29.4792 42.0191 29.4792 42.0192 29.4792H42.0181C42.0182 29.4792 42.018 29.4792 42.0181 29.4792C42.0181 29.4792 42.0171 29.4792 42.017 29.4792H42.0159C42.016 29.4792 42.0158 29.4792 42.0159 29.4792C42.0159 29.4792 42.0149 29.4792 42.0148 29.4792H42.0137C42.0136 29.4792 42.0126 29.4792 42.0126 29.4792C42.0127 29.4792 42.0125 29.4792 42.0126 29.4792C42.0126 29.4792 42.0117 29.4792 42.0116 29.4792C42.0116 29.4792 42.0106 29.4792 42.0105 29.4792H42.0094C42.0093 29.4792 42.0083 29.4792 42.0083 29.4792C42.0082 29.4792 42.0072 29.4792 42.0072 29.4792C42.0073 29.4792 42.0071 29.4792 42.0072 29.4792C42.0072 29.4792 42.0062 29.4792 42.0061 29.4792C42.0061 29.4792 42.0051 29.4792 42.005 29.4792H42.0039H42.0028C42.0027 29.4792 42.0018 29.4792 42.0018 29.4792C42.0017 29.4792 42.0007 29.4792 42.0007 29.4792C42.0008 29.4792 42.0006 29.4792 42.0007 29.4792C42.0007 29.4792 41.9997 29.4792 41.9996 29.4792H41.9985C41.9984 29.4792 41.9974 29.4792 41.9974 29.4792C41.9975 29.4792 41.9973 29.4792 41.9974 29.4792C41.9974 29.4792 41.9964 29.4792 41.9963 29.4792H41.9953C41.9954 29.4792 41.9952 29.4792 41.9953 29.4792C41.9953 29.4792 41.9943 29.4792 41.9942 29.4792C41.9941 29.4792 41.9931 29.4792 41.9931 29.4792C41.9932 29.4792 41.993 29.4792 41.9931 29.4792H41.992C41.9921 29.4792 41.9919 29.4792 41.992 29.4792C41.992 29.4792 41.991 29.4792 41.9909 29.4792C41.9908 29.4792 41.9898 29.4792 41.9897 29.4792C41.9896 29.4792 41.9887 29.4792 41.9886 29.4792C41.9885 29.4792 41.9876 29.4792 41.9875 29.4792C41.9876 29.4792 41.9874 29.4792 41.9875 29.4792C41.9875 29.4792 41.9865 29.4792 41.9864 29.4792C41.9865 29.4792 41.9863 29.4792 41.9864 29.4792H41.9853C41.9854 29.4792 41.9852 29.4792 41.9853 29.4792C41.9852 29.4792 41.9842 29.4792 41.9842 29.4792C41.9843 29.4792 41.9841 29.4792 41.9842 29.4792C41.9841 29.4792 41.9832 29.4792 41.9831 29.4792C41.9832 29.4792 41.983 29.4792 41.9831 29.4792H41.982C41.982 29.4792 41.981 29.4792 41.9809 29.4792C41.981 29.4792 41.9808 29.4792 41.9809 29.4792C41.9808 29.4792 41.9799 29.4792 41.9798 29.4792C41.9799 29.4792 41.9797 29.4792 41.9798 29.4792C41.9797 29.4792 41.9787 29.4792 41.9786 29.4792C41.9787 29.4792 41.9785 29.4792 41.9786 29.4792L41.978 30.0792H41.979C41.979 30.0792 41.98 30.0792 41.9801 30.0792C41.98 30.0792 41.9802 30.0792 41.9801 30.0792C41.9802 30.0792 41.9811 30.0792 41.9812 30.0792C41.9811 30.0792 41.9813 30.0792 41.9812 30.0792H41.9823C41.9823 30.0792 41.9833 30.0792 41.9834 30.0792C41.9833 30.0792 41.9835 30.0792 41.9834 30.0792H41.9845C41.9844 30.0792 41.9846 30.0792 41.9845 30.0792C41.9846 30.0792 41.9856 30.0792 41.9856 30.0792C41.9855 30.0792 41.9857 30.0792 41.9856 30.0792C41.9857 30.0792 41.9866 30.0792 41.9867 30.0792C41.9866 30.0792 41.9868 30.0792 41.9867 30.0792C41.9867 30.0792 41.9877 30.0792 41.9878 30.0792C41.9879 30.0792 41.9887 30.0792 41.9888 30.0792C41.9889 30.0792 41.9898 30.0792 41.9899 30.0792C41.99 30.0792 41.991 30.0792 41.991 30.0792C41.9909 30.0792 41.9911 30.0792 41.991 30.0792H41.9921C41.992 30.0792 41.9922 30.0792 41.9921 30.0792C41.9921 30.0792 41.9931 30.0792 41.9932 30.0792C41.9933 30.0792 41.9943 30.0792 41.9943 30.0792C41.9942 30.0792 41.9944 30.0792 41.9943 30.0792H41.9954C41.9955 30.0792 41.9965 30.0792 41.9965 30.0792C41.9964 30.0792 41.9966 30.0792 41.9965 30.0792C41.9965 30.0792 41.9975 30.0792 41.9976 30.0792H41.9986C41.9987 30.0792 41.9997 30.0792 41.9997 30.0792C41.9996 30.0792 41.9998 30.0792 41.9997 30.0792C41.9997 30.0792 42.0007 30.0792 42.0008 30.0792C42.0008 30.0792 42.0018 30.0792 42.0019 30.0792H42.003C42.0031 30.0792 42.0041 30.0792 42.0041 30.0792C42.0042 30.0792 42.0051 30.0792 42.0051 30.0792C42.0052 30.0792 42.0062 30.0792 42.0062 30.0792C42.0061 30.0792 42.0063 30.0792 42.0062 30.0792C42.0062 30.0792 42.0072 30.0792 42.0073 30.0792C42.0073 30.0792 42.0083 30.0792 42.0084 30.0792H42.0095C42.0096 30.0792 42.0106 30.0792 42.0106 30.0792C42.0107 30.0792 42.0117 30.0792 42.0117 30.0792C42.0116 30.0792 42.0118 30.0792 42.0117 30.0792C42.0117 30.0792 42.0127 30.0792 42.0128 30.0792H42.0139C42.014 30.0792 42.0149 30.0792 42.0149 30.0792C42.0148 30.0792 42.015 30.0792 42.0149 30.0792H42.016C42.0161 30.0792 42.0171 30.0792 42.0171 30.0792C42.017 30.0792 42.0172 30.0792 42.0171 30.0792H42.0182C42.0181 30.0792 42.0183 30.0792 42.0182 30.0792C42.0182 30.0792 42.0192 30.0792 42.0193 30.0792C42.0194 30.0792 42.0204 30.0792 42.0204 30.0792C42.0203 30.0792 42.0205 30.0792 42.0204 30.0792H42.0215C42.0214 30.0792 42.0216 30.0792 42.0215 30.0792H42.0226C42.0225 30.0792 42.0227 30.0792 42.0226 30.0792H42.0237C42.0236 30.0792 42.0238 30.0792 42.0237 30.0792H42.0247C42.0246 30.0792 42.0248 30.0792 42.0247 30.0792C42.0248 30.0792 42.0258 30.0792 42.0258 30.0792C42.0257 30.0792 42.0259 30.0792 42.0258 30.0792C42.0259 30.0792 42.0268 30.0792 42.0269 30.0792C42.0268 30.0792 42.027 30.0792 42.0269 30.0792H42.028C42.0279 30.0792 42.0281 30.0792 42.028 30.0792C42.0281 30.0792 42.0291 30.0792 42.0292 30.0792C42.0291 30.0792 42.0293 30.0792 42.0292 30.0792C42.0293 30.0792 42.0303 30.0792 42.0303 30.0792H42.0314C42.0314 30.0792 42.0333 30.0792 42.0334 30.0792C42.0333 30.0792 42.0335 30.0792 42.0334 30.0792V29.4792ZM41.9786 29.4792C41.9785 29.4792 41.9775 29.4792 41.9774 29.4792C41.9775 29.4792 41.9773 29.4792 41.9774 29.4792C41.9773 29.4792 41.9763 29.4792 41.9762 29.4792C41.9763 29.4792 41.9761 29.4792 41.9762 29.4792C41.9761 29.4792 41.9752 29.4792 41.9752 29.4792H41.9741C41.9742 29.4792 41.974 29.4792 41.9741 29.4792C41.974 29.4792 41.973 29.4792 41.9729 29.4792C41.973 29.4792 41.9728 29.4792 41.9729 29.4792H41.9718C41.9719 29.4792 41.9717 29.4792 41.9718 29.4792C41.9717 29.4792 41.9707 29.4792 41.9707 29.4792C41.9708 29.4792 41.9706 29.4792 41.9707 29.4792C41.9706 29.4792 41.9697 29.4792 41.9696 29.4792C41.9697 29.4792 41.9695 29.4792 41.9696 29.4792C41.9696 29.4792 41.9686 29.4792 41.9685 29.4792C41.9686 29.4792 41.9684 29.4792 41.9685 29.4792C41.9685 29.4792 41.9675 29.4792 41.9674 29.4792C41.9675 29.4792 41.9673 29.4792 41.9674 29.4792C41.9674 29.4792 41.9664 29.4792 41.9663 29.4792C41.9662 29.4792 41.9652 29.4792 41.9651 29.4792C41.965 29.4792 41.964 29.4792 41.964 29.4792C41.9641 29.4792 41.9639 29.4792 41.964 29.4792H41.9629C41.9628 29.4792 41.9619 29.4792 41.9618 29.4792H41.9607C41.9606 29.4792 41.9597 29.4792 41.9596 29.4792H41.9585C41.9584 29.4792 41.9575 29.4792 41.9575 29.4792C41.9574 29.4792 41.9565 29.4792 41.9564 29.4792C41.9564 29.4792 41.9554 29.4792 41.9553 29.4792H41.9542C41.9541 29.4792 41.9531 29.4792 41.9531 29.4792C41.953 29.4792 41.952 29.4792 41.952 29.4792C41.9519 29.4792 41.951 29.4792 41.9509 29.4792C41.9509 29.4792 41.9499 29.4792 41.9498 29.4792C41.9498 29.4792 41.9488 29.4792 41.9487 29.4792H41.9477C41.9476 29.4792 41.9466 29.4792 41.9466 29.4792C41.9465 29.4792 41.9455 29.4792 41.9455 29.4792C41.9456 29.4792 41.9454 29.4792 41.9455 29.4792C41.9455 29.4792 41.9445 29.4792 41.9444 29.4792H41.9433C41.9432 29.4792 41.9422 29.4792 41.9422 29.4792C41.9423 29.4792 41.9421 29.4792 41.9422 29.4792C41.9422 29.4792 41.9412 29.4792 41.9411 29.4792H41.94C41.9401 29.4792 41.9399 29.4792 41.94 29.4792C41.94 29.4792 41.939 29.4792 41.9389 29.4792H41.9379C41.938 29.4792 41.9378 29.4792 41.9379 29.4792C41.9379 29.4792 41.9369 29.4792 41.9368 29.4792C41.9367 29.4792 41.9358 29.4792 41.9357 29.4792C41.9356 29.4792 41.9346 29.4792 41.9346 29.4792C41.9347 29.4792 41.9345 29.4792 41.9346 29.4792C41.9345 29.4792 41.9335 29.4792 41.9335 29.4792C41.9336 29.4792 41.9334 29.4792 41.9335 29.4792C41.9334 29.4792 41.9324 29.4792 41.9324 29.4792C41.9325 29.4792 41.9323 29.4792 41.9324 29.4792C41.9323 29.4792 41.9314 29.4792 41.9314 29.4792C41.9315 29.4792 41.9313 29.4792 41.9314 29.4792C41.9313 29.4792 41.9303 29.4792 41.9302 29.4792C41.9303 29.4792 41.9301 29.4792 41.9302 29.4792C41.9302 29.4792 41.9292 29.4792 41.9291 29.4792C41.9292 29.4792 41.929 29.4792 41.9291 29.4792H41.9281C41.9282 29.4792 41.928 29.4792 41.9281 29.4792C41.928 29.4792 41.9271 29.4792 41.927 29.4792C41.9271 29.4792 41.9269 29.4792 41.927 29.4792C41.9269 29.4792 41.9259 29.4792 41.9259 29.4792H41.9248C41.9248 29.4792 41.9238 29.4792 41.9237 29.4792C41.9238 29.4792 41.9236 29.4792 41.9237 29.4792C41.9236 29.4792 41.9227 29.4792 41.9226 29.4792V30.0792H41.9237H41.9248C41.9248 30.0792 41.9258 30.0792 41.9259 30.0792C41.9258 30.0792 41.926 30.0792 41.9259 30.0792C41.926 30.0792 41.927 30.0792 41.927 30.0792C41.927 30.0792 41.928 30.0792 41.9281 30.0792C41.928 30.0792 41.9282 30.0792 41.9281 30.0792H41.9291C41.929 30.0792 41.9292 30.0792 41.9291 30.0792C41.9292 30.0792 41.9302 30.0792 41.9302 30.0792C41.9301 30.0792 41.9303 30.0792 41.9302 30.0792C41.9303 30.0792 41.9312 30.0792 41.9313 30.0792C41.9312 30.0792 41.9314 30.0792 41.9313 30.0792C41.9313 30.0792 41.9323 30.0792 41.9324 30.0792C41.9323 30.0792 41.9325 30.0792 41.9324 30.0792C41.9324 30.0792 41.9334 30.0792 41.9335 30.0792C41.9336 30.0792 41.9345 30.0792 41.9346 30.0792C41.9347 30.0792 41.9357 30.0792 41.9357 30.0792C41.9356 30.0792 41.9358 30.0792 41.9357 30.0792H41.9368C41.9367 30.0792 41.9369 30.0792 41.9368 30.0792C41.9368 30.0792 41.9378 30.0792 41.9379 30.0792C41.938 30.0792 41.9389 30.0792 41.9389 30.0792C41.9388 30.0792 41.939 30.0792 41.9389 30.0792H41.94C41.9401 30.0792 41.9411 30.0792 41.9411 30.0792C41.941 30.0792 41.9412 30.0792 41.9411 30.0792C41.9411 30.0792 41.9421 30.0792 41.9422 30.0792H41.9433C41.9434 30.0792 41.9444 30.0792 41.9444 30.0792C41.9443 30.0792 41.9445 30.0792 41.9444 30.0792C41.9444 30.0792 41.9453 30.0792 41.9454 30.0792C41.9454 30.0792 41.9464 30.0792 41.9465 30.0792H41.9476C41.9477 30.0792 41.9487 30.0792 41.9487 30.0792C41.9488 30.0792 41.9498 30.0792 41.9498 30.0792C41.9499 30.0792 41.9509 30.0792 41.9509 30.0792C41.9508 30.0792 41.951 30.0792 41.9509 30.0792C41.9509 30.0792 41.9519 30.0792 41.952 30.0792C41.952 30.0792 41.953 30.0792 41.9531 30.0792H41.9542C41.9543 30.0792 41.9552 30.0792 41.9552 30.0792C41.9553 30.0792 41.9563 30.0792 41.9563 30.0792C41.9562 30.0792 41.9564 30.0792 41.9563 30.0792C41.9563 30.0792 41.9573 30.0792 41.9574 30.0792H41.9585C41.9586 30.0792 41.9596 30.0792 41.9596 30.0792C41.9595 30.0792 41.9597 30.0792 41.9596 30.0792H41.9607C41.9608 30.0792 41.9618 30.0792 41.9618 30.0792C41.9617 30.0792 41.9619 30.0792 41.9618 30.0792H41.9629C41.9628 30.0792 41.963 30.0792 41.9629 30.0792C41.9629 30.0792 41.9639 30.0792 41.964 30.0792C41.9641 30.0792 41.965 30.0792 41.965 30.0792C41.9649 30.0792 41.9651 30.0792 41.965 30.0792H41.9661C41.966 30.0792 41.9662 30.0792 41.9661 30.0792H41.9672C41.9671 30.0792 41.9673 30.0792 41.9672 30.0792H41.9683C41.9682 30.0792 41.9684 30.0792 41.9683 30.0792C41.9684 30.0792 41.9694 30.0792 41.9694 30.0792C41.9693 30.0792 41.9695 30.0792 41.9694 30.0792C41.9695 30.0792 41.9705 30.0792 41.9705 30.0792C41.9705 30.0792 41.9715 30.0792 41.9716 30.0792C41.9715 30.0792 41.9717 30.0792 41.9716 30.0792H41.9727C41.9726 30.0792 41.9728 30.0792 41.9727 30.0792C41.9728 30.0792 41.9737 30.0792 41.9738 30.0792C41.9737 30.0792 41.9739 30.0792 41.9738 30.0792H41.9748C41.9748 30.0792 41.9758 30.0792 41.9759 30.0792C41.9758 30.0792 41.976 30.0792 41.9759 30.0792C41.976 30.0792 41.9779 30.0792 41.978 30.0792C41.9779 30.0792 41.9781 30.0792 41.978 30.0792L41.9786 29.4792ZM41.9281 29.4792C40.5199 29.4544 39.3902 28.3069 39.3902 26.8913H38.7902C38.7902 28.6337 40.1815 30.0486 41.9174 30.0792L41.9281 29.4792ZM27.7974 25.4509C27.7974 23.4351 29.436 21.7966 31.4517 21.7966V21.1966C29.1046 21.1966 27.1974 23.1038 27.1974 25.4509H27.7974ZM31.4517 21.7966C33.4675 21.7966 35.106 23.4351 35.106 25.4509H35.706C35.706 23.1038 33.7989 21.1966 31.4517 21.1966V21.7966ZM35.106 25.4509C35.106 27.3959 33.5762 28.99 31.6632 29.0988L31.6973 29.6978C33.9256 29.5711 35.706 27.7164 35.706 25.4509H35.106ZM31.6803 29.0983C31.6801 29.0983 31.6791 29.0983 31.6789 29.0983C31.6788 29.0983 31.6777 29.0983 31.6776 29.0983C31.6774 29.0983 31.6764 29.0983 31.6762 29.0983C31.6761 29.0983 31.675 29.0983 31.6749 29.0983C31.6748 29.0983 31.6737 29.0983 31.6736 29.0983C31.6734 29.0983 31.6724 29.0983 31.6722 29.0983C31.6721 29.0983 31.671 29.0983 31.6709 29.0983C31.6707 29.0983 31.6697 29.0983 31.6695 29.0983C31.6693 29.0983 31.6684 29.0983 31.6682 29.0983C31.6681 29.0983 31.667 29.0983 31.6669 29.0983C31.6667 29.0983 31.6657 29.0983 31.6655 29.0983C31.6654 29.0983 31.6643 29.0983 31.6642 29.0983C31.664 29.0983 31.6634 29.0988 31.6632 29.0988C31.6634 29.0988 31.6631 29.0988 31.6632 29.0988C31.6631 29.0988 31.6621 29.0983 31.662 29.0983C31.6618 29.0983 31.6608 29.0983 31.6606 29.0983C31.6605 29.0983 31.6594 29.0983 31.6593 29.0983C31.6591 29.0983 31.6581 29.0983 31.6579 29.0983C31.6578 29.0983 31.6567 29.0983 31.6566 29.0983C31.6565 29.0983 31.6554 29.0983 31.6553 29.0983C31.6551 29.0983 31.6541 29.0983 31.6539 29.0983C31.6538 29.0983 31.6527 29.0983 31.6526 29.0983C31.6524 29.0983 31.6514 29.0983 31.6512 29.0983C31.651 29.0983 31.6501 29.0983 31.6499 29.0983C31.6498 29.0983 31.6487 29.0983 31.6486 29.0983C31.6484 29.0983 31.6474 29.0983 31.6472 29.0983C31.6471 29.0983 31.646 29.0983 31.6459 29.0983C31.6457 29.0983 31.6447 29.0983 31.6445 29.0983C31.6443 29.0983 31.6434 29.0983 31.6432 29.0983C31.6431 29.0983 31.642 29.0983 31.6419 29.0983C31.6417 29.0983 31.6407 29.0983 31.6405 29.0983C31.6404 29.0983 31.6393 29.0983 31.6392 29.0983C31.6391 29.0983 31.638 29.0983 31.6379 29.0983C31.6377 29.0983 31.6367 29.0983 31.6365 29.0983C31.6364 29.0983 31.6353 29.0983 31.6352 29.0983C31.635 29.0983 31.634 29.0983 31.6338 29.0983C31.6337 29.0983 31.6326 29.0983 31.6325 29.0983C31.6324 29.0983 31.6313 29.0983 31.6312 29.0983C31.631 29.0983 31.63 29.0983 31.6298 29.0983C31.6297 29.0983 31.6286 29.0983 31.6285 29.0983C31.6283 29.0983 31.6273 29.0983 31.6271 29.0983C31.627 29.0983 31.6259 29.0983 31.6258 29.0983C31.6257 29.0983 31.6246 29.0983 31.6245 29.0983C31.6243 29.0983 31.6233 29.0983 31.6231 29.0983C31.623 29.0983 31.6219 29.0983 31.6218 29.0983C31.6216 29.0983 31.6206 29.0983 31.6204 29.0983C31.6202 29.0983 31.6193 29.0983 31.6191 29.0983C31.619 29.0983 31.6179 29.0983 31.6178 29.0983C31.6176 29.0983 31.6166 29.0983 31.6164 29.0983C31.6163 29.0983 31.6152 29.0983 31.6151 29.0983C31.6149 29.0983 31.6139 29.0983 31.6138 29.0983C31.6136 29.0983 31.6126 29.0983 31.6124 29.0983C31.6123 29.0983 31.6112 29.0983 31.6111 29.0983C31.6109 29.0983 31.6099 29.0983 31.6097 29.0983C31.6096 29.0983 31.6085 29.0983 31.6084 29.0983C31.6083 29.0983 31.6072 29.0983 31.6071 29.0983C31.6069 29.0983 31.6059 29.0983 31.6057 29.0983C31.6056 29.0983 31.6045 29.0983 31.6044 29.0983C31.6042 29.0983 31.6032 29.0983 31.603 29.0983C31.6029 29.0983 31.6018 29.0983 31.6017 29.0983C31.6016 29.0983 31.6005 29.0983 31.6004 29.0983C31.6002 29.0983 31.5992 29.0983 31.599 29.0983C31.5989 29.0983 31.5978 29.0983 31.5977 29.0983C31.5975 29.0983 31.5965 29.0983 31.5963 29.0983C31.5962 29.0983 31.5952 29.0983 31.595 29.0983C31.5949 29.0983 31.5938 29.0983 31.5937 29.0983C31.5935 29.0983 31.5925 29.0983 31.5923 29.0983C31.5922 29.0983 31.5911 29.0983 31.591 29.0983C31.5908 29.0983 31.5898 29.0983 31.5896 29.0983C31.5894 29.0983 31.5885 29.0983 31.5883 29.0983C31.5882 29.0983 31.5871 29.0983 31.587 29.0983C31.5868 29.0983 31.5858 29.0983 31.5856 29.0983C31.5855 29.0983 31.5844 29.0983 31.5843 29.0983C31.5841 29.0983 31.5831 29.0983 31.583 29.0983C31.5828 29.0983 31.5818 29.0983 31.5816 29.0983C31.5815 29.0983 31.5804 29.0983 31.5803 29.0983C31.5801 29.0983 31.5791 29.0983 31.5789 29.0983C31.5788 29.0983 31.5777 29.0983 31.5776 29.0983C31.5775 29.0983 31.5764 29.0983 31.5763 29.0983C31.5761 29.0983 31.5751 29.0983 31.5749 29.0983C31.5748 29.0983 31.5737 29.0983 31.5736 29.0983C31.5734 29.0983 31.5724 29.0983 31.5722 29.0983C31.5721 29.0983 31.571 29.0983 31.5709 29.0983C31.5708 29.0983 31.5697 29.0983 31.5696 29.0983C31.5694 29.0983 31.5684 29.0983 31.5682 29.0983C31.5681 29.0983 31.567 29.0983 31.5669 29.0983C31.5667 29.0983 31.5657 29.0983 31.5655 29.0983C31.5653 29.0983 31.5644 29.0983 31.5642 29.0983C31.5641 29.0983 31.563 29.0983 31.5629 29.0983C31.5627 29.0983 31.5617 29.0983 31.5615 29.0983C31.5614 29.0983 31.5603 29.0983 31.5602 29.0983C31.56 29.0983 31.559 29.0983 31.5588 29.0983C31.5586 29.0983 31.5577 29.0983 31.5575 29.0983C31.5574 29.0983 31.5563 29.0983 31.5562 29.0983C31.556 29.0983 31.555 29.0983 31.5548 29.0983C31.5547 29.0983 31.5536 29.0983 31.5535 29.0983C31.5534 29.0983 31.5523 29.0983 31.5522 29.0983C31.552 29.0983 31.551 29.0983 31.5508 29.0983C31.5507 29.0983 31.5496 29.0983 31.5495 29.0983C31.5493 29.0983 31.5483 29.0983 31.5481 29.0983C31.548 29.0983 31.5469 29.0983 31.5468 29.0983C31.5467 29.0983 31.5456 29.0983 31.5455 29.0983C31.5453 29.0983 31.5443 29.0983 31.5441 29.0983C31.544 29.0983 31.5429 29.0983 31.5428 29.0983C31.5426 29.0983 31.5416 29.0983 31.5414 29.0983C31.5413 29.0983 31.5403 29.0983 31.5401 29.0983C31.54 29.0983 31.5389 29.0983 31.5388 29.0983C31.5386 29.0983 31.5376 29.0983 31.5374 29.0983C31.5373 29.0983 31.5362 29.0983 31.5361 29.0983C31.5359 29.0983 31.5349 29.0983 31.5347 29.0983C31.5345 29.0983 31.5336 29.0983 31.5334 29.0983C31.5333 29.0983 31.5322 29.0983 31.5321 29.0983C31.5319 29.0983 31.5309 29.0983 31.5307 29.0983C31.5306 29.0983 31.5295 29.0983 31.5294 29.0983C31.5292 29.0983 31.5282 29.0983 31.5281 29.0983C31.5279 29.0983 31.5269 29.0983 31.5267 29.0983C31.5266 29.0983 31.5255 29.0983 31.5254 29.0983C31.5252 29.0983 31.5242 29.0983 31.524 29.0983C31.5239 29.0983 31.5228 29.0983 31.5227 29.0983C31.5226 29.0983 31.5215 29.0983 31.5214 29.0983C31.5212 29.0983 31.5202 29.0983 31.52 29.0983C31.5199 29.0983 31.5188 29.0983 31.5187 29.0983C31.5185 29.0983 31.5175 29.0983 31.5173 29.0983C31.5172 29.0983 31.5161 29.0983 31.516 29.0983C31.5159 29.0983 31.5148 29.0983 31.5147 29.0983C31.5145 29.0983 31.5135 29.0983 31.5133 29.0983C31.5132 29.0983 31.5121 29.0983 31.512 29.0983C31.5118 29.0983 31.5108 29.0983 31.5106 29.0983C31.5104 29.0983 31.5095 29.0983 31.5093 29.0983C31.5092 29.0983 31.5081 29.0983 31.508 29.0983C31.5078 29.0983 31.5068 29.0983 31.5066 29.0983C31.5065 29.0983 31.5054 29.0983 31.5053 29.0983C31.5051 29.0983 31.5041 29.0983 31.5039 29.0983C31.5037 29.0983 31.5028 29.0983 31.5026 29.0983C31.5025 29.0983 31.5014 29.0983 31.5013 29.0983C31.5011 29.0983 31.5001 29.0983 31.4999 29.0983C31.4998 29.0983 31.4987 29.0983 31.4986 29.0983C31.4985 29.0983 31.4974 29.0983 31.4973 29.0983C31.4971 29.0983 31.4961 29.0983 31.4959 29.0983C31.4958 29.0983 31.4947 29.0983 31.4946 29.0983C31.4944 29.0983 31.4934 29.0983 31.4932 29.0983C31.4931 29.0983 31.492 29.0983 31.4919 29.0983C31.4918 29.0983 31.4907 29.0983 31.4906 29.0983C31.4904 29.0983 31.4894 29.0983 31.4892 29.0983C31.4891 29.0983 31.488 29.0983 31.4879 29.0983C31.4877 29.0983 31.4867 29.0983 31.4865 29.0983C31.4864 29.0983 31.4853 29.0983 31.4852 29.0983C31.4851 29.0983 31.484 29.0983 31.4839 29.0983C31.4837 29.0983 31.4827 29.0983 31.4825 29.0983C31.4824 29.0983 31.4813 29.0983 31.4812 29.0983C31.481 29.0983 31.48 29.0983 31.4798 29.0983C31.4796 29.0983 31.4787 29.0983 31.4785 29.0983C31.4784 29.0983 31.4773 29.0983 31.4772 29.0983C31.477 29.0983 31.476 29.0983 31.4758 29.0983C31.4757 29.0983 31.4746 29.0983 31.4745 29.0983C31.4743 29.0983 31.4733 29.0983 31.4731 29.0983C31.4729 29.0983 31.472 29.0983 31.4718 29.0983C31.4717 29.0983 31.4706 29.0983 31.4705 29.0983C31.4703 29.0983 31.4693 29.0983 31.4691 29.0983C31.469 29.0983 31.4679 29.0983 31.4678 29.0983C31.4677 29.0983 31.4666 29.0983 31.4665 29.0983C31.4663 29.0983 31.4653 29.0983 31.4651 29.0983C31.465 29.0983 31.4639 29.0983 31.4638 29.0983C31.4636 29.0983 31.4626 29.0983 31.4624 29.0983C31.4623 29.0983 31.4612 29.0983 31.4611 29.0983C31.461 29.0983 31.4599 29.0983 31.4598 29.0983C31.4596 29.0983 31.4586 29.0983 31.4584 29.0983C31.4583 29.0983 31.4572 29.0983 31.4571 29.0983C31.4569 29.0983 31.4559 29.0983 31.4557 29.0983C31.4556 29.0983 31.4546 29.0983 31.4544 29.0983C31.4543 29.0983 31.4532 29.0983 31.4531 29.0983C31.4529 29.0983 31.4519 29.0983 31.4517 29.0983V29.6983C31.4519 29.6983 31.4529 29.6983 31.4531 29.6983C31.4532 29.6983 31.4543 29.6983 31.4544 29.6983C31.4545 29.6983 31.4556 29.6983 31.4557 29.6983C31.4559 29.6983 31.4569 29.6983 31.4571 29.6983C31.4572 29.6983 31.4583 29.6983 31.4584 29.6983C31.4586 29.6983 31.4596 29.6983 31.4598 29.6983C31.4599 29.6983 31.4609 29.6983 31.4611 29.6983C31.4612 29.6983 31.4623 29.6983 31.4624 29.6983C31.4626 29.6983 31.4636 29.6983 31.4638 29.6983C31.4639 29.6983 31.465 29.6983 31.4651 29.6983C31.4653 29.6983 31.4663 29.6983 31.4665 29.6983C31.4667 29.6983 31.4676 29.6983 31.4678 29.6983C31.4679 29.6983 31.469 29.6983 31.4691 29.6983C31.4693 29.6983 31.4703 29.6983 31.4705 29.6983C31.4706 29.6983 31.4717 29.6983 31.4718 29.6983C31.472 29.6983 31.473 29.6983 31.4731 29.6983C31.4733 29.6983 31.4743 29.6983 31.4745 29.6983C31.4746 29.6983 31.4757 29.6983 31.4758 29.6983C31.476 29.6983 31.477 29.6983 31.4772 29.6983C31.4773 29.6983 31.4784 29.6983 31.4785 29.6983C31.4786 29.6983 31.4797 29.6983 31.4798 29.6983C31.48 29.6983 31.481 29.6983 31.4812 29.6983C31.4813 29.6983 31.4824 29.6983 31.4825 29.6983C31.4827 29.6983 31.4837 29.6983 31.4839 29.6983C31.484 29.6983 31.4851 29.6983 31.4852 29.6983C31.4853 29.6983 31.4864 29.6983 31.4865 29.6983C31.4867 29.6983 31.4877 29.6983 31.4879 29.6983C31.488 29.6983 31.4891 29.6983 31.4892 29.6983C31.4894 29.6983 31.4904 29.6983 31.4906 29.6983C31.4908 29.6983 31.4917 29.6983 31.4919 29.6983C31.492 29.6983 31.4931 29.6983 31.4932 29.6983C31.4934 29.6983 31.4944 29.6983 31.4946 29.6983C31.4947 29.6983 31.4958 29.6983 31.4959 29.6983C31.4961 29.6983 31.4971 29.6983 31.4973 29.6983C31.4975 29.6983 31.4984 29.6983 31.4986 29.6983C31.4987 29.6983 31.4998 29.6983 31.4999 29.6983C31.5001 29.6983 31.5011 29.6983 31.5013 29.6983C31.5014 29.6983 31.5025 29.6983 31.5026 29.6983C31.5028 29.6983 31.5038 29.6983 31.5039 29.6983C31.5041 29.6983 31.5051 29.6983 31.5053 29.6983C31.5054 29.6983 31.5065 29.6983 31.5066 29.6983C31.5068 29.6983 31.5078 29.6983 31.508 29.6983C31.5081 29.6983 31.5092 29.6983 31.5093 29.6983C31.5094 29.6983 31.5105 29.6983 31.5106 29.6983C31.5108 29.6983 31.5118 29.6983 31.512 29.6983C31.5121 29.6983 31.5132 29.6983 31.5133 29.6983C31.5135 29.6983 31.5145 29.6983 31.5147 29.6983C31.5148 29.6983 31.5158 29.6983 31.516 29.6983C31.5161 29.6983 31.5172 29.6983 31.5173 29.6983C31.5175 29.6983 31.5185 29.6983 31.5187 29.6983C31.5188 29.6983 31.5199 29.6983 31.52 29.6983C31.5202 29.6983 31.5212 29.6983 31.5214 29.6983C31.5216 29.6983 31.5225 29.6983 31.5227 29.6983C31.5228 29.6983 31.5239 29.6983 31.524 29.6983C31.5242 29.6983 31.5252 29.6983 31.5254 29.6983C31.5255 29.6983 31.5266 29.6983 31.5267 29.6983C31.5269 29.6983 31.5279 29.6983 31.5281 29.6983C31.5283 29.6983 31.5292 29.6983 31.5294 29.6983C31.5295 29.6983 31.5306 29.6983 31.5307 29.6983C31.5309 29.6983 31.5319 29.6983 31.5321 29.6983C31.5322 29.6983 31.5333 29.6983 31.5334 29.6983C31.5335 29.6983 31.5346 29.6983 31.5347 29.6983C31.5349 29.6983 31.5359 29.6983 31.5361 29.6983C31.5362 29.6983 31.5373 29.6983 31.5374 29.6983C31.5376 29.6983 31.5386 29.6983 31.5388 29.6983C31.5389 29.6983 31.54 29.6983 31.5401 29.6983C31.5402 29.6983 31.5413 29.6983 31.5414 29.6983C31.5416 29.6983 31.5426 29.6983 31.5428 29.6983C31.5429 29.6983 31.544 29.6983 31.5441 29.6983C31.5443 29.6983 31.5453 29.6983 31.5455 29.6983C31.5456 29.6983 31.5466 29.6983 31.5468 29.6983C31.5469 29.6983 31.548 29.6983 31.5481 29.6983C31.5483 29.6983 31.5493 29.6983 31.5495 29.6983C31.5496 29.6983 31.5507 29.6983 31.5508 29.6983C31.551 29.6983 31.552 29.6983 31.5522 29.6983C31.5524 29.6983 31.5533 29.6983 31.5535 29.6983C31.5536 29.6983 31.5547 29.6983 31.5548 29.6983C31.555 29.6983 31.556 29.6983 31.5562 29.6983C31.5563 29.6983 31.5574 29.6983 31.5575 29.6983C31.5577 29.6983 31.5587 29.6983 31.5588 29.6983C31.559 29.6983 31.56 29.6983 31.5602 29.6983C31.5603 29.6983 31.5614 29.6983 31.5615 29.6983C31.5617 29.6983 31.5627 29.6983 31.5629 29.6983C31.563 29.6983 31.5641 29.6983 31.5642 29.6983C31.5643 29.6983 31.5654 29.6983 31.5655 29.6983C31.5657 29.6983 31.5667 29.6983 31.5669 29.6983C31.567 29.6983 31.5681 29.6983 31.5682 29.6983C31.5684 29.6983 31.5694 29.6983 31.5696 29.6983C31.5697 29.6983 31.5708 29.6983 31.5709 29.6983C31.571 29.6983 31.5721 29.6983 31.5722 29.6983C31.5724 29.6983 31.5734 29.6983 31.5736 29.6983C31.5737 29.6983 31.5748 29.6983 31.5749 29.6983C31.5751 29.6983 31.5761 29.6983 31.5763 29.6983C31.5764 29.6983 31.5774 29.6983 31.5776 29.6983C31.5777 29.6983 31.5788 29.6983 31.5789 29.6983C31.5791 29.6983 31.5801 29.6983 31.5803 29.6983C31.5804 29.6983 31.5815 29.6983 31.5816 29.6983C31.5818 29.6983 31.5828 29.6983 31.583 29.6983C31.5832 29.6983 31.5841 29.6983 31.5843 29.6983C31.5844 29.6983 31.5855 29.6983 31.5856 29.6983C31.5858 29.6983 31.5868 29.6983 31.587 29.6983C31.5871 29.6983 31.5882 29.6983 31.5883 29.6983C31.5884 29.6983 31.5895 29.6983 31.5896 29.6983C31.5898 29.6983 31.5908 29.6983 31.591 29.6983C31.5911 29.6983 31.5922 29.6983 31.5923 29.6983C31.5925 29.6983 31.5935 29.6983 31.5937 29.6983C31.5938 29.6983 31.5949 29.6983 31.595 29.6983C31.5951 29.6983 31.5962 29.6983 31.5963 29.6983C31.5965 29.6983 31.5975 29.6983 31.5977 29.6983C31.5978 29.6983 31.5989 29.6983 31.599 29.6983C31.5992 29.6983 31.6002 29.6983 31.6004 29.6983C31.6005 29.6983 31.6016 29.6983 31.6017 29.6983C31.6018 29.6983 31.6029 29.6983 31.603 29.6983C31.6032 29.6983 31.6042 29.6983 31.6044 29.6983C31.6045 29.6983 31.6056 29.6983 31.6057 29.6983C31.6059 29.6983 31.6069 29.6983 31.6071 29.6983C31.6073 29.6983 31.6082 29.6983 31.6084 29.6983C31.6085 29.6983 31.6096 29.6983 31.6097 29.6983C31.6099 29.6983 31.6109 29.6983 31.6111 29.6983C31.6112 29.6983 31.6123 29.6983 31.6124 29.6983C31.6126 29.6983 31.6136 29.6983 31.6138 29.6983C31.614 29.6983 31.6149 29.6983 31.6151 29.6983C31.6152 29.6983 31.6163 29.6983 31.6164 29.6983C31.6166 29.6983 31.6176 29.6983 31.6178 29.6983C31.6179 29.6983 31.619 29.6983 31.6191 29.6983C31.6192 29.6983 31.6203 29.6983 31.6204 29.6983C31.6206 29.6983 31.6216 29.6983 31.6218 29.6983C31.6219 29.6983 31.623 29.6983 31.6231 29.6983C31.6233 29.6983 31.6243 29.6983 31.6245 29.6983C31.6246 29.6983 31.6257 29.6983 31.6258 29.6983C31.6259 29.6983 31.627 29.6983 31.6271 29.6983C31.6273 29.6983 31.6283 29.6983 31.6285 29.6983C31.6286 29.6983 31.6297 29.6983 31.6298 29.6983C31.63 29.6983 31.631 29.6983 31.6312 29.6983C31.6313 29.6983 31.6323 29.6983 31.6325 29.6983C31.6326 29.6983 31.6337 29.6983 31.6338 29.6983C31.634 29.6983 31.635 29.6983 31.6352 29.6983C31.6353 29.6983 31.6364 29.6983 31.6365 29.6983C31.6367 29.6983 31.6377 29.6983 31.6379 29.6983C31.6381 29.6983 31.639 29.6983 31.6392 29.6983C31.6393 29.6983 31.6404 29.6983 31.6405 29.6983C31.6407 29.6983 31.6417 29.6983 31.6419 29.6983C31.642 29.6983 31.6431 29.6983 31.6432 29.6983C31.6434 29.6983 31.6444 29.6983 31.6445 29.6983C31.6447 29.6983 31.6457 29.6983 31.6459 29.6983C31.646 29.6983 31.6471 29.6983 31.6472 29.6983C31.6474 29.6983 31.6484 29.6983 31.6486 29.6983C31.6487 29.6983 31.6498 29.6983 31.6499 29.6983C31.65 29.6983 31.6511 29.6983 31.6512 29.6983C31.6514 29.6983 31.6524 29.6983 31.6526 29.6983C31.6527 29.6983 31.6538 29.6983 31.6539 29.6983C31.6541 29.6983 31.6551 29.6983 31.6553 29.6983C31.6554 29.6983 31.6565 29.6983 31.6566 29.6983C31.6567 29.6983 31.6578 29.6983 31.6579 29.6983C31.6581 29.6983 31.6591 29.6983 31.6593 29.6983C31.6594 29.6983 31.6605 29.6983 31.6606 29.6983C31.6608 29.6983 31.6618 29.6983 31.662 29.6983C31.6622 29.6983 31.6631 29.6983 31.6633 29.6983C31.6634 29.6983 31.6645 29.6983 31.6646 29.6983C31.6648 29.6983 31.6658 29.6983 31.666 29.6983C31.6661 29.6983 31.6672 29.6983 31.6673 29.6983C31.6675 29.6983 31.6685 29.6983 31.6687 29.6983C31.6689 29.6983 31.6698 29.6983 31.67 29.6983C31.6701 29.6983 31.6712 29.6983 31.6713 29.6983C31.6715 29.6983 31.6725 29.6983 31.6727 29.6983C31.6728 29.6983 31.6739 29.6983 31.674 29.6983C31.6741 29.6983 31.6752 29.6983 31.6753 29.6983C31.6755 29.6983 31.6765 29.6983 31.6767 29.6983C31.6768 29.6983 31.6779 29.6983 31.678 29.6983C31.6782 29.6983 31.6801 29.6983 31.6803 29.6983V29.0983ZM31.4517 29.0983C31.4516 29.0983 31.4505 29.0983 31.4504 29.0983C31.4502 29.0983 31.4492 29.0983 31.449 29.0983C31.4488 29.0983 31.4479 29.0983 31.4477 29.0983C31.4476 29.0983 31.4465 29.0983 31.4464 29.0983C31.4462 29.0983 31.4452 29.0983 31.445 29.0983C31.4449 29.0983 31.4438 29.0983 31.4437 29.0983C31.4435 29.0983 31.4425 29.0983 31.4424 29.0983C31.4422 29.0983 31.4412 29.0983 31.441 29.0983C31.4409 29.0983 31.4398 29.0983 31.4397 29.0983C31.4395 29.0983 31.4385 29.0983 31.4383 29.0983C31.4382 29.0983 31.4371 29.0983 31.437 29.0983C31.4369 29.0983 31.4358 29.0983 31.4357 29.0983C31.4355 29.0983 31.4345 29.0983 31.4343 29.0983C31.4342 29.0983 31.4331 29.0983 31.433 29.0983C31.4328 29.0983 31.4318 29.0983 31.4316 29.0983C31.4315 29.0983 31.4304 29.0983 31.4303 29.0983C31.4302 29.0983 31.4291 29.0983 31.429 29.0983C31.4288 29.0983 31.4278 29.0983 31.4276 29.0983C31.4275 29.0983 31.4264 29.0983 31.4263 29.0983C31.4261 29.0983 31.4251 29.0983 31.4249 29.0983C31.4247 29.0983 31.4238 29.0983 31.4236 29.0983C31.4235 29.0983 31.4224 29.0983 31.4223 29.0983C31.4221 29.0983 31.4211 29.0983 31.4209 29.0983C31.4208 29.0983 31.4197 29.0983 31.4196 29.0983C31.4194 29.0983 31.4184 29.0983 31.4182 29.0983C31.418 29.0983 31.4171 29.0983 31.4169 29.0983C31.4168 29.0983 31.4157 29.0983 31.4156 29.0983C31.4154 29.0983 31.4144 29.0983 31.4142 29.0983C31.4141 29.0983 31.413 29.0983 31.4129 29.0983C31.4127 29.0983 31.4117 29.0983 31.4116 29.0983C31.4114 29.0983 31.4104 29.0983 31.4102 29.0983C31.4101 29.0983 31.409 29.0983 31.4089 29.0983C31.4087 29.0983 31.4077 29.0983 31.4075 29.0983C31.4074 29.0983 31.4063 29.0983 31.4062 29.0983C31.4061 29.0983 31.405 29.0983 31.4049 29.0983C31.4047 29.0983 31.4037 29.0983 31.4035 29.0983C31.4034 29.0983 31.4023 29.0983 31.4022 29.0983C31.402 29.0983 31.401 29.0983 31.4008 29.0983C31.4007 29.0983 31.3997 29.0983 31.3995 29.0983C31.3994 29.0983 31.3983 29.0983 31.3982 29.0983C31.398 29.0983 31.397 29.0983 31.3968 29.0983C31.3967 29.0983 31.3956 29.0983 31.3955 29.0983C31.3953 29.0983 31.3943 29.0983 31.3941 29.0983C31.3939 29.0983 31.393 29.0983 31.3928 29.0983C31.3927 29.0983 31.3916 29.0983 31.3915 29.0983C31.3913 29.0983 31.3903 29.0983 31.3901 29.0983C31.39 29.0983 31.3889 29.0983 31.3888 29.0983C31.3886 29.0983 31.3876 29.0983 31.3874 29.0983C31.3872 29.0983 31.3863 29.0983 31.3861 29.0983C31.386 29.0983 31.3849 29.0983 31.3848 29.0983C31.3846 29.0983 31.3836 29.0983 31.3834 29.0983C31.3833 29.0983 31.3822 29.0983 31.3821 29.0983C31.382 29.0983 31.3809 29.0983 31.3808 29.0983C31.3806 29.0983 31.3796 29.0983 31.3794 29.0983C31.3793 29.0983 31.3782 29.0983 31.3781 29.0983C31.3779 29.0983 31.3769 29.0983 31.3767 29.0983C31.3766 29.0983 31.3755 29.0983 31.3754 29.0983C31.3753 29.0983 31.3742 29.0983 31.3741 29.0983C31.3739 29.0983 31.3729 29.0983 31.3727 29.0983C31.3726 29.0983 31.3715 29.0983 31.3714 29.0983C31.3712 29.0983 31.3702 29.0983 31.37 29.0983C31.3699 29.0983 31.3689 29.0983 31.3687 29.0983C31.3686 29.0983 31.3675 29.0983 31.3674 29.0983C31.3672 29.0983 31.3662 29.0983 31.366 29.0983C31.3659 29.0983 31.3648 29.0983 31.3647 29.0983C31.3645 29.0983 31.3635 29.0983 31.3633 29.0983C31.3631 29.0983 31.3622 29.0983 31.362 29.0983C31.3619 29.0983 31.3608 29.0983 31.3607 29.0983C31.3605 29.0983 31.3595 29.0983 31.3593 29.0983C31.3592 29.0983 31.3581 29.0983 31.358 29.0983C31.3578 29.0983 31.3568 29.0983 31.3567 29.0983C31.3565 29.0983 31.3555 29.0983 31.3553 29.0983C31.3552 29.0983 31.3541 29.0983 31.354 29.0983C31.3538 29.0983 31.3528 29.0983 31.3526 29.0983C31.3525 29.0983 31.3514 29.0983 31.3513 29.0983C31.3512 29.0983 31.3501 29.0983 31.35 29.0983C31.3498 29.0983 31.3488 29.0983 31.3486 29.0983C31.3485 29.0983 31.3474 29.0983 31.3473 29.0983C31.3471 29.0983 31.3461 29.0983 31.3459 29.0983C31.3458 29.0983 31.3447 29.0983 31.3446 29.0983C31.3445 29.0983 31.3434 29.0983 31.3433 29.0983C31.3431 29.0983 31.3421 29.0983 31.3419 29.0983C31.3418 29.0983 31.3407 29.0983 31.3406 29.0983C31.3404 29.0983 31.3394 29.0983 31.3392 29.0983C31.339 29.0983 31.3381 29.0983 31.3379 29.0983C31.3378 29.0983 31.3367 29.0983 31.3366 29.0983C31.3364 29.0983 31.3354 29.0983 31.3352 29.0983C31.3351 29.0983 31.334 29.0983 31.3339 29.0983C31.3337 29.0983 31.3327 29.0983 31.3325 29.0983C31.3323 29.0983 31.3314 29.0983 31.3312 29.0983C31.3311 29.0983 31.33 29.0983 31.3299 29.0983C31.3297 29.0983 31.3287 29.0983 31.3285 29.0983C31.3284 29.0983 31.3273 29.0983 31.3272 29.0983C31.3271 29.0983 31.326 29.0983 31.3259 29.0983C31.3257 29.0983 31.3247 29.0983 31.3245 29.0983C31.3244 29.0983 31.3233 29.0983 31.3232 29.0983C31.323 29.0983 31.322 29.0983 31.3218 29.0983C31.3217 29.0983 31.3206 29.0983 31.3205 29.0983C31.3204 29.0983 31.3193 29.0983 31.3192 29.0983C31.319 29.0983 31.318 29.0983 31.3178 29.0983C31.3177 29.0983 31.3166 29.0983 31.3165 29.0983C31.3163 29.0983 31.3153 29.0983 31.3151 29.0983C31.315 29.0983 31.314 29.0983 31.3138 29.0983C31.3137 29.0983 31.3126 29.0983 31.3125 29.0983C31.3123 29.0983 31.3113 29.0983 31.3111 29.0983C31.311 29.0983 31.3099 29.0983 31.3098 29.0983C31.3096 29.0983 31.3086 29.0983 31.3084 29.0983C31.3082 29.0983 31.3073 29.0983 31.3071 29.0983C31.307 29.0983 31.3059 29.0983 31.3058 29.0983C31.3056 29.0983 31.3046 29.0983 31.3044 29.0983C31.3043 29.0983 31.3032 29.0983 31.3031 29.0983C31.3029 29.0983 31.3019 29.0983 31.3017 29.0983C31.3015 29.0983 31.3006 29.0983 31.3004 29.0983C31.3003 29.0983 31.2992 29.0983 31.2991 29.0983C31.2989 29.0983 31.2979 29.0983 31.2977 29.0983C31.2976 29.0983 31.2965 29.0983 31.2964 29.0983C31.2963 29.0983 31.2952 29.0983 31.2951 29.0983C31.2949 29.0983 31.2939 29.0983 31.2937 29.0983C31.2936 29.0983 31.2925 29.0983 31.2924 29.0983C31.2922 29.0983 31.2912 29.0983 31.291 29.0983C31.2909 29.0983 31.2898 29.0983 31.2897 29.0983C31.2896 29.0983 31.2885 29.0983 31.2884 29.0983C31.2882 29.0983 31.2872 29.0983 31.287 29.0983C31.2869 29.0983 31.2858 29.0983 31.2857 29.0983C31.2855 29.0983 31.2845 29.0983 31.2843 29.0983C31.2842 29.0983 31.2832 29.0983 31.283 29.0983C31.2829 29.0983 31.2818 29.0983 31.2817 29.0983C31.2815 29.0983 31.2805 29.0983 31.2803 29.0983C31.2802 29.0983 31.2791 29.0983 31.279 29.0983C31.2788 29.0983 31.2778 29.0983 31.2776 29.0983C31.2774 29.0983 31.2765 29.0983 31.2763 29.0983C31.2762 29.0983 31.2751 29.0983 31.275 29.0983C31.2748 29.0983 31.2738 29.0983 31.2736 29.0983C31.2735 29.0983 31.2724 29.0983 31.2723 29.0983C31.2721 29.0983 31.2711 29.0983 31.271 29.0983C31.2708 29.0983 31.2698 29.0983 31.2696 29.0983C31.2695 29.0983 31.2684 29.0983 31.2683 29.0983C31.2681 29.0983 31.2671 29.0983 31.2669 29.0983C31.2668 29.0983 31.2657 29.0983 31.2656 29.0983C31.2655 29.0983 31.2644 29.0983 31.2643 29.0983C31.2641 29.0983 31.2631 29.0983 31.2629 29.0983C31.2628 29.0983 31.2617 29.0983 31.2616 29.0983C31.2614 29.0983 31.2604 29.0983 31.2602 29.0983C31.2601 29.0983 31.2591 29.0983 31.2589 29.0983C31.2588 29.0983 31.2577 29.0983 31.2576 29.0983C31.2574 29.0983 31.2564 29.0983 31.2562 29.0983C31.2561 29.0983 31.255 29.0983 31.2549 29.0983C31.2547 29.0983 31.2537 29.0983 31.2535 29.0983C31.2533 29.0983 31.2524 29.0983 31.2522 29.0983C31.2521 29.0983 31.251 29.0983 31.2509 29.0983C31.2507 29.0983 31.2497 29.0983 31.2495 29.0983C31.2494 29.0983 31.2483 29.0983 31.2482 29.0983C31.248 29.0983 31.247 29.0983 31.2468 29.0983C31.2466 29.0983 31.2457 29.0983 31.2455 29.0983C31.2454 29.0983 31.2443 29.0983 31.2442 29.0983C31.244 29.0983 31.243 29.0983 31.2428 29.0983C31.2427 29.0983 31.2416 29.0983 31.2415 29.0983C31.2414 29.0983 31.2403 29.0983 31.2402 29.0983C31.24 29.0983 31.239 29.0983 31.2388 29.0983C31.2387 29.0983 31.2376 29.0983 31.2375 29.0983C31.2373 29.0983 31.2363 29.0983 31.2361 29.0983C31.236 29.0983 31.2349 29.0983 31.2348 29.0983C31.2347 29.0983 31.2336 29.0983 31.2335 29.0983C31.2333 29.0983 31.2323 29.0983 31.2321 29.0983C31.232 29.0983 31.2309 29.0983 31.2308 29.0983C31.2306 29.0983 31.2296 29.0983 31.2294 29.0983C31.2293 29.0983 31.2283 29.0983 31.2281 29.0983C31.228 29.0983 31.2269 29.0983 31.2268 29.0983C31.2266 29.0983 31.2256 29.0983 31.2254 29.0983C31.2253 29.0983 31.2242 29.0983 31.2241 29.0983L31.2232 29.6983C31.2233 29.6983 31.2244 29.6983 31.2245 29.6983C31.2247 29.6983 31.2257 29.6983 31.2259 29.6983C31.226 29.6983 31.2271 29.6983 31.2272 29.6983C31.2274 29.6983 31.2284 29.6983 31.2285 29.6983C31.2287 29.6983 31.2297 29.6983 31.2299 29.6983C31.23 29.6983 31.2311 29.6983 31.2312 29.6983C31.2314 29.6983 31.2324 29.6983 31.2326 29.6983C31.2327 29.6983 31.2338 29.6983 31.2339 29.6983C31.234 29.6983 31.2351 29.6983 31.2352 29.6983C31.2354 29.6983 31.2364 29.6983 31.2366 29.6983C31.2367 29.6983 31.2378 29.6983 31.2379 29.6983C31.2381 29.6983 31.2391 29.6983 31.2393 29.6983C31.2394 29.6983 31.2405 29.6983 31.2406 29.6983C31.2407 29.6983 31.2418 29.6983 31.2419 29.6983C31.2421 29.6983 31.2431 29.6983 31.2433 29.6983C31.2434 29.6983 31.2445 29.6983 31.2446 29.6983C31.2448 29.6983 31.2458 29.6983 31.246 29.6983C31.2462 29.6983 31.2471 29.6983 31.2473 29.6983C31.2474 29.6983 31.2485 29.6983 31.2486 29.6983C31.2488 29.6983 31.2498 29.6983 31.25 29.6983C31.2501 29.6983 31.2512 29.6983 31.2513 29.6983C31.2515 29.6983 31.2525 29.6983 31.2527 29.6983C31.2529 29.6983 31.2538 29.6983 31.254 29.6983C31.2541 29.6983 31.2552 29.6983 31.2553 29.6983C31.2555 29.6983 31.2565 29.6983 31.2567 29.6983C31.2568 29.6983 31.2579 29.6983 31.258 29.6983C31.2582 29.6983 31.2592 29.6983 31.2593 29.6983C31.2595 29.6983 31.2605 29.6983 31.2607 29.6983C31.2608 29.6983 31.2619 29.6983 31.262 29.6983C31.2622 29.6983 31.2632 29.6983 31.2634 29.6983C31.2635 29.6983 31.2646 29.6983 31.2647 29.6983C31.2648 29.6983 31.2659 29.6983 31.266 29.6983C31.2662 29.6983 31.2672 29.6983 31.2674 29.6983C31.2675 29.6983 31.2686 29.6983 31.2687 29.6983C31.2689 29.6983 31.2699 29.6983 31.2701 29.6983C31.2702 29.6983 31.2712 29.6983 31.2714 29.6983C31.2715 29.6983 31.2726 29.6983 31.2727 29.6983C31.2729 29.6983 31.2739 29.6983 31.2741 29.6983C31.2742 29.6983 31.2753 29.6983 31.2754 29.6983C31.2756 29.6983 31.2766 29.6983 31.2768 29.6983C31.277 29.6983 31.2779 29.6983 31.2781 29.6983C31.2782 29.6983 31.2793 29.6983 31.2794 29.6983C31.2796 29.6983 31.2806 29.6983 31.2808 29.6983C31.2809 29.6983 31.282 29.6983 31.2821 29.6983C31.2823 29.6983 31.2833 29.6983 31.2834 29.6983C31.2836 29.6983 31.2846 29.6983 31.2848 29.6983C31.2849 29.6983 31.286 29.6983 31.2861 29.6983C31.2863 29.6983 31.2873 29.6983 31.2875 29.6983C31.2876 29.6983 31.2887 29.6983 31.2888 29.6983C31.2889 29.6983 31.29 29.6983 31.2901 29.6983C31.2903 29.6983 31.2913 29.6983 31.2915 29.6983C31.2916 29.6983 31.2927 29.6983 31.2928 29.6983C31.293 29.6983 31.294 29.6983 31.2942 29.6983C31.2943 29.6983 31.2954 29.6983 31.2955 29.6983C31.2956 29.6983 31.2967 29.6983 31.2968 29.6983C31.297 29.6983 31.298 29.6983 31.2982 29.6983C31.2983 29.6983 31.2994 29.6983 31.2995 29.6983C31.2997 29.6983 31.3007 29.6983 31.3009 29.6983C31.3011 29.6983 31.302 29.6983 31.3022 29.6983C31.3023 29.6983 31.3034 29.6983 31.3035 29.6983C31.3037 29.6983 31.3047 29.6983 31.3049 29.6983C31.305 29.6983 31.3061 29.6983 31.3062 29.6983C31.3064 29.6983 31.3074 29.6983 31.3076 29.6983C31.3078 29.6983 31.3087 29.6983 31.3089 29.6983C31.309 29.6983 31.3101 29.6983 31.3102 29.6983C31.3104 29.6983 31.3114 29.6983 31.3116 29.6983C31.3117 29.6983 31.3128 29.6983 31.3129 29.6983C31.3131 29.6983 31.3141 29.6983 31.3142 29.6983C31.3144 29.6983 31.3154 29.6983 31.3156 29.6983C31.3157 29.6983 31.3168 29.6983 31.3169 29.6983C31.3171 29.6983 31.3181 29.6983 31.3183 29.6983C31.3184 29.6983 31.3195 29.6983 31.3196 29.6983C31.3197 29.6983 31.3208 29.6983 31.3209 29.6983C31.3211 29.6983 31.3221 29.6983 31.3223 29.6983C31.3224 29.6983 31.3235 29.6983 31.3236 29.6983C31.3238 29.6983 31.3248 29.6983 31.325 29.6983C31.3251 29.6983 31.3262 29.6983 31.3263 29.6983C31.3264 29.6983 31.3275 29.6983 31.3276 29.6983C31.3278 29.6983 31.3288 29.6983 31.329 29.6983C31.3291 29.6983 31.3302 29.6983 31.3303 29.6983C31.3305 29.6983 31.3315 29.6983 31.3317 29.6983C31.3319 29.6983 31.3328 29.6983 31.333 29.6983C31.3331 29.6983 31.3342 29.6983 31.3343 29.6983C31.3345 29.6983 31.3355 29.6983 31.3357 29.6983C31.3358 29.6983 31.3369 29.6983 31.337 29.6983C31.3372 29.6983 31.3382 29.6983 31.3384 29.6983C31.3386 29.6983 31.3395 29.6983 31.3397 29.6983C31.3398 29.6983 31.3409 29.6983 31.341 29.6983C31.3412 29.6983 31.3422 29.6983 31.3424 29.6983C31.3425 29.6983 31.3436 29.6983 31.3437 29.6983C31.3438 29.6983 31.3449 29.6983 31.345 29.6983C31.3452 29.6983 31.3462 29.6983 31.3464 29.6983C31.3465 29.6983 31.3476 29.6983 31.3477 29.6983C31.3479 29.6983 31.3489 29.6983 31.3491 29.6983C31.3492 29.6983 31.3503 29.6983 31.3504 29.6983C31.3505 29.6983 31.3516 29.6983 31.3517 29.6983C31.3519 29.6983 31.3529 29.6983 31.3531 29.6983C31.3532 29.6983 31.3543 29.6983 31.3544 29.6983C31.3546 29.6983 31.3556 29.6983 31.3558 29.6983C31.3559 29.6983 31.3569 29.6983 31.3571 29.6983C31.3572 29.6983 31.3583 29.6983 31.3584 29.6983C31.3586 29.6983 31.3596 29.6983 31.3598 29.6983C31.3599 29.6983 31.361 29.6983 31.3611 29.6983C31.3613 29.6983 31.3623 29.6983 31.3625 29.6983C31.3627 29.6983 31.3636 29.6983 31.3638 29.6983C31.3639 29.6983 31.365 29.6983 31.3651 29.6983C31.3653 29.6983 31.3663 29.6983 31.3665 29.6983C31.3666 29.6983 31.3677 29.6983 31.3678 29.6983C31.368 29.6983 31.369 29.6983 31.3691 29.6983C31.3693 29.6983 31.3703 29.6983 31.3705 29.6983C31.3706 29.6983 31.3717 29.6983 31.3718 29.6983C31.372 29.6983 31.373 29.6983 31.3732 29.6983C31.3733 29.6983 31.3744 29.6983 31.3745 29.6983C31.3746 29.6983 31.3757 29.6983 31.3758 29.6983C31.376 29.6983 31.377 29.6983 31.3772 29.6983C31.3773 29.6983 31.3784 29.6983 31.3785 29.6983C31.3787 29.6983 31.3797 29.6983 31.3799 29.6983C31.38 29.6983 31.3811 29.6983 31.3812 29.6983C31.3813 29.6983 31.3824 29.6983 31.3825 29.6983C31.3827 29.6983 31.3837 29.6983 31.3839 29.6983C31.384 29.6983 31.3851 29.6983 31.3852 29.6983C31.3854 29.6983 31.3864 29.6983 31.3866 29.6983C31.3868 29.6983 31.3877 29.6983 31.3879 29.6983C31.388 29.6983 31.3891 29.6983 31.3892 29.6983C31.3894 29.6983 31.3904 29.6983 31.3906 29.6983C31.3907 29.6983 31.3918 29.6983 31.3919 29.6983C31.3921 29.6983 31.3931 29.6983 31.3933 29.6983C31.3935 29.6983 31.3944 29.6983 31.3946 29.6983C31.3947 29.6983 31.3958 29.6983 31.3959 29.6983C31.3961 29.6983 31.3971 29.6983 31.3973 29.6983C31.3974 29.6983 31.3985 29.6983 31.3986 29.6983C31.3988 29.6983 31.3998 29.6983 31.3999 29.6983C31.4001 29.6983 31.4011 29.6983 31.4013 29.6983C31.4014 29.6983 31.4025 29.6983 31.4026 29.6983C31.4028 29.6983 31.4038 29.6983 31.404 29.6983C31.4041 29.6983 31.4052 29.6983 31.4053 29.6983C31.4054 29.6983 31.4065 29.6983 31.4066 29.6983C31.4068 29.6983 31.4078 29.6983 31.408 29.6983C31.4081 29.6983 31.4092 29.6983 31.4093 29.6983C31.4095 29.6983 31.4105 29.6983 31.4107 29.6983C31.4108 29.6983 31.4118 29.6983 31.412 29.6983C31.4121 29.6983 31.4132 29.6983 31.4133 29.6983C31.4135 29.6983 31.4145 29.6983 31.4147 29.6983C31.4148 29.6983 31.4159 29.6983 31.416 29.6983C31.4162 29.6983 31.4172 29.6983 31.4174 29.6983C31.4176 29.6983 31.4185 29.6983 31.4187 29.6983C31.4188 29.6983 31.4199 29.6983 31.42 29.6983C31.4202 29.6983 31.4212 29.6983 31.4214 29.6983C31.4215 29.6983 31.4226 29.6983 31.4227 29.6983C31.4229 29.6983 31.4239 29.6983 31.4241 29.6983C31.4243 29.6983 31.4252 29.6983 31.4254 29.6983C31.4255 29.6983 31.4266 29.6983 31.4267 29.6983C31.4269 29.6983 31.4279 29.6983 31.4281 29.6983C31.4282 29.6983 31.4293 29.6983 31.4294 29.6983C31.4295 29.6983 31.4306 29.6983 31.4307 29.6983C31.4309 29.6983 31.4319 29.6983 31.4321 29.6983C31.4322 29.6983 31.4333 29.6983 31.4334 29.6983C31.4336 29.6983 31.4346 29.6983 31.4348 29.6983C31.4349 29.6983 31.436 29.6983 31.4361 29.6983C31.4362 29.6983 31.4373 29.6983 31.4374 29.6983C31.4376 29.6983 31.4386 29.6983 31.4388 29.6983C31.4389 29.6983 31.44 29.6983 31.4401 29.6983C31.4403 29.6983 31.4413 29.6983 31.4415 29.6983C31.4416 29.6983 31.4426 29.6983 31.4428 29.6983C31.4429 29.6983 31.444 29.6983 31.4441 29.6983C31.4443 29.6983 31.4453 29.6983 31.4455 29.6983C31.4456 29.6983 31.4467 29.6983 31.4468 29.6983C31.447 29.6983 31.448 29.6983 31.4482 29.6983C31.4484 29.6983 31.4493 29.6983 31.4495 29.6983C31.4496 29.6983 31.4516 29.6983 31.4517 29.6983V29.0983ZM31.2402 29.0983C29.3272 28.9895 27.7974 27.3959 27.7974 25.4509H27.1974C27.1974 27.7164 28.9779 29.5711 31.2062 29.6978L31.2402 29.0983ZM18.4068 26.8913C18.4068 25.4642 19.5675 24.3035 20.9947 24.3035V23.7035C19.2362 23.7035 17.8068 25.1329 17.8068 26.8913H18.4068ZM20.9947 24.3035C22.4218 24.3035 23.5825 25.4642 23.5825 26.8913H24.1825C24.1825 25.1329 22.7531 23.7035 20.9947 23.7035V24.3035ZM23.5825 26.8913C23.5825 28.2988 22.447 29.4482 21.0434 29.4792L21.0567 30.0791C22.7834 30.0409 24.1825 28.628 24.1825 26.8913H23.5825ZM21.0501 29.4792H21.049H21.0479C21.048 29.4792 21.0478 29.4792 21.0479 29.4792C21.0478 29.4792 21.047 29.4792 21.0469 29.4792C21.047 29.4792 21.0468 29.4792 21.0469 29.4792H21.0458C21.0459 29.4792 21.0457 29.4792 21.0458 29.4792C21.0457 29.4792 21.0448 29.4792 21.0447 29.4792C21.0448 29.4792 21.0446 29.4792 21.0447 29.4792H21.0434C21.0435 29.4792 21.0433 29.4792 21.0434 29.4792C21.0433 29.4792 21.0424 29.4792 21.0423 29.4792C21.0424 29.4792 21.0422 29.4792 21.0423 29.4792C21.0423 29.4792 21.0414 29.4792 21.0413 29.4792C21.0414 29.4792 21.0412 29.4792 21.0413 29.4792C21.0413 29.4792 21.0403 29.4792 21.0402 29.4792C21.0403 29.4792 21.0401 29.4792 21.0402 29.4792C21.0402 29.4792 21.0393 29.4792 21.0392 29.4792C21.0391 29.4792 21.0382 29.4792 21.0381 29.4792C21.038 29.4792 21.0371 29.4792 21.0371 29.4792C21.0372 29.4792 21.037 29.4792 21.0371 29.4792H21.036C21.0361 29.4792 21.0359 29.4792 21.036 29.4792C21.036 29.4792 21.0351 29.4792 21.035 29.4792C21.0349 29.4792 21.0339 29.4792 21.0339 29.4792C21.034 29.4792 21.0338 29.4792 21.0339 29.4792C21.0339 29.4792 21.033 29.4792 21.0329 29.4792C21.0328 29.4792 21.0318 29.4792 21.0318 29.4792C21.0319 29.4792 21.0317 29.4792 21.0318 29.4792C21.0318 29.4792 21.0309 29.4792 21.0308 29.4792H21.0297C21.0296 29.4792 21.0286 29.4792 21.0286 29.4792C21.0285 29.4792 21.0276 29.4792 21.0275 29.4792C21.0275 29.4792 21.0265 29.4792 21.0264 29.4792H21.0253H21.0243C21.0242 29.4792 21.0232 29.4792 21.0232 29.4792C21.0231 29.4792 21.0222 29.4792 21.0222 29.4792C21.0223 29.4792 21.0221 29.4792 21.0222 29.4792C21.0222 29.4792 21.0212 29.4792 21.0211 29.4792C21.0211 29.4792 21.0202 29.4792 21.0201 29.4792H21.019H21.018C21.0179 29.4792 21.0169 29.4792 21.0169 29.4792C21.017 29.4792 21.0168 29.4792 21.0169 29.4792C21.0169 29.4792 21.016 29.4792 21.0159 29.4792H21.0148C21.0147 29.4792 21.0138 29.4792 21.0138 29.4792C21.0139 29.4792 21.0137 29.4792 21.0138 29.4792C21.0138 29.4792 21.0128 29.4792 21.0127 29.4792H21.0117C21.0118 29.4792 21.0116 29.4792 21.0117 29.4792C21.0117 29.4792 21.0107 29.4792 21.0106 29.4792H21.0096C21.0097 29.4792 21.0095 29.4792 21.0096 29.4792C21.0096 29.4792 21.0086 29.4792 21.0085 29.4792C21.0084 29.4792 21.0075 29.4792 21.0074 29.4792C21.0073 29.4792 21.0063 29.4792 21.0063 29.4792C21.0064 29.4792 21.0062 29.4792 21.0063 29.4792C21.0062 29.4792 21.0052 29.4792 21.0052 29.4792C21.0053 29.4792 21.0051 29.4792 21.0052 29.4792C21.0051 29.4792 21.0041 29.4792 21.0041 29.4792C21.0042 29.4792 21.004 29.4792 21.0041 29.4792C21.004 29.4792 21.0031 29.4792 21.0031 29.4792C21.0032 29.4792 21.003 29.4792 21.0031 29.4792C21.003 29.4792 21.0021 29.4792 21.002 29.4792C21.0021 29.4792 21.0019 29.4792 21.002 29.4792C21.002 29.4792 21.0011 29.4792 21.001 29.4792C21.0011 29.4792 21.0009 29.4792 21.001 29.4792C21.0009 29.4792 20.9999 29.4792 20.9999 29.4792C21 29.4792 20.9998 29.4792 20.9999 29.4792C20.9998 29.4792 20.999 29.4792 20.9989 29.4792C20.999 29.4792 20.9988 29.4792 20.9989 29.4792H20.9978C20.9978 29.4792 20.9969 29.4792 20.9968 29.4792C20.9969 29.4792 20.9967 29.4792 20.9968 29.4792C20.9967 29.4792 20.9958 29.4792 20.9957 29.4792C20.9958 29.4792 20.9956 29.4792 20.9957 29.4792C20.9956 29.4792 20.9947 29.4792 20.9947 29.4792V30.0792C20.9946 30.0792 20.9948 30.0792 20.9947 30.0792C20.9948 30.0792 20.9957 30.0792 20.9957 30.0792H20.9968C20.9968 30.0792 20.9977 30.0792 20.9978 30.0792C20.9977 30.0792 20.9979 30.0792 20.9978 30.0792C20.9979 30.0792 20.9989 30.0792 20.9989 30.0792C20.9989 30.0792 20.9998 30.0792 20.9999 30.0792C20.9998 30.0792 21 30.0792 20.9999 30.0792H21.001C21.0009 30.0792 21.0011 30.0792 21.001 30.0792C21.0011 30.0792 21.002 30.0792 21.002 30.0792C21.0019 30.0792 21.0021 30.0792 21.002 30.0792C21.0021 30.0792 21.003 30.0792 21.0031 30.0792C21.0032 30.0792 21.004 30.0792 21.0041 30.0792C21.0042 30.0792 21.0051 30.0792 21.0052 30.0792C21.0053 30.0792 21.0062 30.0792 21.0063 30.0792C21.0064 30.0792 21.0074 30.0792 21.0074 30.0792C21.0073 30.0792 21.0075 30.0792 21.0074 30.0792H21.0085C21.0084 30.0792 21.0086 30.0792 21.0085 30.0792C21.0085 30.0792 21.0095 30.0792 21.0096 30.0792C21.0097 30.0792 21.0106 30.0792 21.0106 30.0792C21.0105 30.0792 21.0107 30.0792 21.0106 30.0792H21.0117C21.0118 30.0792 21.0127 30.0792 21.0127 30.0792C21.0126 30.0792 21.0128 30.0792 21.0127 30.0792C21.0127 30.0792 21.0137 30.0792 21.0138 30.0792H21.0148C21.0149 30.0792 21.0159 30.0792 21.0159 30.0792C21.0158 30.0792 21.016 30.0792 21.0159 30.0792C21.0159 30.0792 21.0168 30.0792 21.0169 30.0792H21.018H21.019C21.0191 30.0792 21.0201 30.0792 21.0201 30.0792C21.0202 30.0792 21.0211 30.0792 21.0211 30.0792C21.021 30.0792 21.0212 30.0792 21.0211 30.0792C21.0211 30.0792 21.0221 30.0792 21.0222 30.0792C21.0222 30.0792 21.0231 30.0792 21.0232 30.0792H21.0243H21.0253C21.0254 30.0792 21.0264 30.0792 21.0264 30.0792C21.0265 30.0792 21.0274 30.0792 21.0274 30.0792C21.0273 30.0792 21.0275 30.0792 21.0274 30.0792C21.0274 30.0792 21.0284 30.0792 21.0285 30.0792H21.0295C21.0296 30.0792 21.0306 30.0792 21.0306 30.0792C21.0305 30.0792 21.0307 30.0792 21.0306 30.0792C21.0306 30.0792 21.0315 30.0792 21.0316 30.0792H21.0327C21.0326 30.0792 21.0328 30.0792 21.0327 30.0792C21.0327 30.0792 21.0336 30.0792 21.0337 30.0792H21.0348C21.0347 30.0792 21.0349 30.0792 21.0348 30.0792C21.0348 30.0792 21.0357 30.0792 21.0358 30.0792C21.0359 30.0792 21.0369 30.0792 21.037 30.0792C21.0371 30.0792 21.0381 30.0792 21.0381 30.0792C21.038 30.0792 21.0382 30.0792 21.0381 30.0792C21.0382 30.0792 21.0392 30.0792 21.0392 30.0792C21.0391 30.0792 21.0393 30.0792 21.0392 30.0792C21.0393 30.0792 21.0402 30.0792 21.0402 30.0792C21.0401 30.0792 21.0403 30.0792 21.0402 30.0792C21.0403 30.0792 21.0413 30.0792 21.0413 30.0792C21.0412 30.0792 21.0414 30.0792 21.0413 30.0792C21.0414 30.0792 21.0423 30.0792 21.0423 30.0792C21.0422 30.0792 21.0424 30.0792 21.0423 30.0792C21.0424 30.0792 21.0433 30.0792 21.0434 30.0792C21.0433 30.0792 21.0435 30.0792 21.0434 30.0792H21.0444C21.0443 30.0792 21.0445 30.0792 21.0444 30.0792C21.0445 30.0792 21.0455 30.0792 21.0455 30.0792C21.0455 30.0792 21.0464 30.0792 21.0465 30.0792C21.0464 30.0792 21.0466 30.0792 21.0465 30.0792C21.0466 30.0792 21.0476 30.0792 21.0477 30.0792C21.0476 30.0792 21.0478 30.0792 21.0477 30.0792C21.0478 30.0792 21.0488 30.0792 21.0489 30.0792C21.0488 30.0792 21.049 30.0792 21.0489 30.0792C21.049 30.0792 21.05 30.0792 21.0501 30.0792V29.4792ZM20.9947 29.4792H20.9936C20.9936 29.4792 20.9927 29.4792 20.9926 29.4792C20.9927 29.4792 20.9925 29.4792 20.9926 29.4792C20.9925 29.4792 20.9916 29.4792 20.9915 29.4792C20.9916 29.4792 20.9914 29.4792 20.9915 29.4792H20.9905C20.9906 29.4792 20.9904 29.4792 20.9905 29.4792C20.9904 29.4792 20.9895 29.4792 20.9894 29.4792C20.9895 29.4792 20.9893 29.4792 20.9894 29.4792C20.9894 29.4792 20.9885 29.4792 20.9884 29.4792C20.9885 29.4792 20.9883 29.4792 20.9884 29.4792H20.9873C20.9874 29.4792 20.9872 29.4792 20.9873 29.4792C20.9872 29.4792 20.9863 29.4792 20.9863 29.4792C20.9864 29.4792 20.9862 29.4792 20.9863 29.4792C20.9862 29.4792 20.9852 29.4792 20.9852 29.4792C20.9853 29.4792 20.9851 29.4792 20.9852 29.4792C20.9851 29.4792 20.9842 29.4792 20.9842 29.4792C20.9843 29.4792 20.9841 29.4792 20.9842 29.4792C20.9841 29.4792 20.9831 29.4792 20.9831 29.4792C20.9832 29.4792 20.983 29.4792 20.9831 29.4792H20.9821C20.9822 29.4792 20.982 29.4792 20.9821 29.4792C20.9821 29.4792 20.9811 29.4792 20.981 29.4792C20.9809 29.4792 20.98 29.4792 20.9799 29.4792H20.9788C20.9789 29.4792 20.9787 29.4792 20.9788 29.4792C20.9788 29.4792 20.9778 29.4792 20.9777 29.4792H20.9767C20.9768 29.4792 20.9766 29.4792 20.9767 29.4792C20.9767 29.4792 20.9757 29.4792 20.9756 29.4792H20.9746C20.9745 29.4792 20.9735 29.4792 20.9735 29.4792C20.9734 29.4792 20.9725 29.4792 20.9725 29.4792C20.9726 29.4792 20.9724 29.4792 20.9725 29.4792C20.9725 29.4792 20.9715 29.4792 20.9714 29.4792H20.9704H20.9693C20.9692 29.4792 20.9683 29.4792 20.9683 29.4792C20.9682 29.4792 20.9672 29.4792 20.9672 29.4792C20.9673 29.4792 20.9671 29.4792 20.9672 29.4792C20.9672 29.4792 20.9662 29.4792 20.9661 29.4792C20.9661 29.4792 20.9652 29.4792 20.9651 29.4792H20.964H20.963C20.9629 29.4792 20.9619 29.4792 20.9619 29.4792C20.9618 29.4792 20.9609 29.4792 20.9609 29.4792C20.961 29.4792 20.9608 29.4792 20.9609 29.4792C20.9609 29.4792 20.9599 29.4792 20.9598 29.4792H20.9588C20.9587 29.4792 20.9577 29.4792 20.9576 29.4792H20.9565C20.9564 29.4792 20.9555 29.4792 20.9555 29.4792C20.9556 29.4792 20.9554 29.4792 20.9555 29.4792H20.9544C20.9545 29.4792 20.9543 29.4792 20.9544 29.4792C20.9544 29.4792 20.9535 29.4792 20.9534 29.4792C20.9533 29.4792 20.9523 29.4792 20.9523 29.4792C20.9524 29.4792 20.9522 29.4792 20.9523 29.4792H20.9513C20.9514 29.4792 20.9512 29.4792 20.9513 29.4792H20.9502C20.9503 29.4792 20.9501 29.4792 20.9502 29.4792H20.9492C20.9493 29.4792 20.9491 29.4792 20.9492 29.4792H20.9481C20.9482 29.4792 20.948 29.4792 20.9481 29.4792H20.9471C20.9472 29.4792 20.947 29.4792 20.9471 29.4792C20.947 29.4792 20.946 29.4792 20.946 29.4792C20.9461 29.4792 20.9459 29.4792 20.946 29.4792C20.9459 29.4792 20.9451 29.4792 20.945 29.4792C20.9451 29.4792 20.9449 29.4792 20.945 29.4792H20.9439C20.944 29.4792 20.9438 29.4792 20.9439 29.4792C20.9438 29.4792 20.9429 29.4792 20.9428 29.4792C20.9429 29.4792 20.9427 29.4792 20.9428 29.4792C20.9427 29.4792 20.9417 29.4792 20.9417 29.4792H20.9406H20.9395L20.9393 30.0792C20.9392 30.0792 20.9394 30.0792 20.9393 30.0792C20.9394 30.0792 20.9404 30.0792 20.9405 30.0792C20.9404 30.0792 20.9406 30.0792 20.9405 30.0792C20.9406 30.0792 20.9416 30.0792 20.9417 30.0792C20.9416 30.0792 20.9418 30.0792 20.9417 30.0792C20.9418 30.0792 20.9428 30.0792 20.9428 30.0792H20.9439C20.9438 30.0792 20.944 30.0792 20.9439 30.0792C20.944 30.0792 20.945 30.0792 20.945 30.0792C20.9449 30.0792 20.9451 30.0792 20.945 30.0792C20.9451 30.0792 20.9459 30.0792 20.946 30.0792C20.9459 30.0792 20.9461 30.0792 20.946 30.0792H20.9471C20.947 30.0792 20.9472 30.0792 20.9471 30.0792H20.9481C20.948 30.0792 20.9482 30.0792 20.9481 30.0792H20.9492C20.9491 30.0792 20.9493 30.0792 20.9492 30.0792H20.9502C20.9501 30.0792 20.9503 30.0792 20.9502 30.0792C20.9502 30.0792 20.9512 30.0792 20.9513 30.0792C20.9512 30.0792 20.9514 30.0792 20.9513 30.0792C20.9513 30.0792 20.9522 30.0792 20.9523 30.0792C20.9524 30.0792 20.9534 30.0792 20.9534 30.0792C20.9533 30.0792 20.9535 30.0792 20.9534 30.0792H20.9544C20.9545 30.0792 20.9554 30.0792 20.9555 30.0792H20.9565C20.9566 30.0792 20.9576 30.0792 20.9576 30.0792C20.9575 30.0792 20.9577 30.0792 20.9576 30.0792C20.9576 30.0792 20.9585 30.0792 20.9586 30.0792C20.9587 30.0792 20.9597 30.0792 20.9597 30.0792C20.9598 30.0792 20.9607 30.0792 20.9607 30.0792C20.9606 30.0792 20.9608 30.0792 20.9607 30.0792C20.9607 30.0792 20.9617 30.0792 20.9618 30.0792H20.9628H20.9639C20.964 30.0792 20.9649 30.0792 20.9649 30.0792C20.965 30.0792 20.966 30.0792 20.966 30.0792C20.9659 30.0792 20.9661 30.0792 20.966 30.0792C20.966 30.0792 20.9669 30.0792 20.967 30.0792C20.967 30.0792 20.968 30.0792 20.9681 30.0792H20.9691H20.9702C20.9703 30.0792 20.9712 30.0792 20.9712 30.0792C20.9713 30.0792 20.9723 30.0792 20.9724 30.0792C20.9724 30.0792 20.9734 30.0792 20.9735 30.0792H20.9746C20.9747 30.0792 20.9756 30.0792 20.9756 30.0792C20.9755 30.0792 20.9757 30.0792 20.9756 30.0792C20.9756 30.0792 20.9766 30.0792 20.9767 30.0792C20.9768 30.0792 20.9777 30.0792 20.9777 30.0792C20.9776 30.0792 20.9778 30.0792 20.9777 30.0792C20.9777 30.0792 20.9787 30.0792 20.9788 30.0792C20.9789 30.0792 20.9798 30.0792 20.9798 30.0792C20.9797 30.0792 20.9799 30.0792 20.9798 30.0792H20.9809C20.9808 30.0792 20.981 30.0792 20.9809 30.0792C20.9809 30.0792 20.9818 30.0792 20.9819 30.0792C20.982 30.0792 20.9829 30.0792 20.983 30.0792C20.9831 30.0792 20.984 30.0792 20.9841 30.0792C20.9842 30.0792 20.9851 30.0792 20.9852 30.0792C20.9851 30.0792 20.9853 30.0792 20.9852 30.0792C20.9852 30.0792 20.9862 30.0792 20.9863 30.0792C20.9862 30.0792 20.9864 30.0792 20.9863 30.0792C20.9863 30.0792 20.9872 30.0792 20.9873 30.0792C20.9872 30.0792 20.9874 30.0792 20.9873 30.0792H20.9884C20.9883 30.0792 20.9885 30.0792 20.9884 30.0792C20.9885 30.0792 20.9894 30.0792 20.9894 30.0792H20.9905C20.9904 30.0792 20.9906 30.0792 20.9905 30.0792C20.9906 30.0792 20.9915 30.0792 20.9915 30.0792H20.9926C20.9926 30.0792 20.9935 30.0792 20.9936 30.0792C20.9935 30.0792 20.9937 30.0792 20.9936 30.0792C20.9937 30.0792 20.9946 30.0792 20.9947 30.0792V29.4792ZM20.945 29.4792C19.5432 29.4544 18.4068 28.3064 18.4068 26.8913H17.8068C17.8068 28.6342 19.2055 30.0486 20.9339 30.0792L20.945 29.4792ZM22.6913 35.8711H15.1221V36.4711H22.6913V35.8711ZM15.4204 36.2026C15.7162 33.4025 18.0834 31.2069 20.9552 31.1872L20.951 30.5872C17.7701 30.609 15.1512 33.0395 14.8237 36.1396L15.4204 36.2026ZM20.9531 31.1872C20.9531 31.1872 20.9551 31.1872 20.9552 31.1872C20.9552 31.1872 20.9562 31.1872 20.9563 31.1872C20.9564 31.1872 20.9574 31.1872 20.9574 31.1872H20.9584C20.9585 31.1872 20.9595 31.1872 20.9595 31.1872H20.9605C20.9606 31.1872 20.9616 31.1872 20.9616 31.1872H20.9626C20.9626 31.1872 20.9636 31.1872 20.9637 31.1872C20.9638 31.1872 20.9647 31.1872 20.9647 31.1872C20.9647 31.1872 20.9657 31.1872 20.9658 31.1872C20.9659 31.1872 20.9668 31.1872 20.9668 31.1872H20.9679C20.9679 31.1872 20.9688 31.1872 20.9689 31.1872H20.97C20.9701 31.1872 20.9711 31.1872 20.9711 31.1872H20.9721C20.9721 31.1872 20.9731 31.1872 20.9732 31.1872C20.9733 31.1872 20.9742 31.1872 20.9742 31.1872C20.9742 31.1872 20.9752 31.1872 20.9753 31.1872C20.9754 31.1872 20.9763 31.1872 20.9763 31.1872C20.9763 31.1872 20.9773 31.1872 20.9774 31.1872C20.9775 31.1872 20.9784 31.1872 20.9784 31.1872H20.9795C20.9795 31.1872 20.9804 31.1872 20.9805 31.1872H20.9816C20.9816 31.1872 20.9825 31.1872 20.9826 31.1872C20.9827 31.1872 20.9837 31.1872 20.9837 31.1872H20.9847C20.9848 31.1872 20.9858 31.1872 20.9858 31.1872H20.9868C20.9869 31.1872 20.9879 31.1872 20.9879 31.1872H20.9889C20.9889 31.1872 20.9899 31.1872 20.99 31.1872C20.9901 31.1872 20.991 31.1872 20.991 31.1872C20.991 31.1872 20.992 31.1872 20.9921 31.1872C20.9922 31.1872 20.9931 31.1872 20.9931 31.1872C20.9931 31.1872 20.9941 31.1872 20.9942 31.1872L20.9947 30.5872H20.9936C20.9936 30.5872 20.9927 30.5872 20.9926 30.5872C20.9925 30.5872 20.9915 30.5872 20.9915 30.5872H20.9905C20.9904 30.5872 20.9894 30.5872 20.9894 30.5872H20.9884C20.9883 30.5872 20.9873 30.5872 20.9873 30.5872H20.9863C20.9863 30.5872 20.9853 30.5872 20.9852 30.5872C20.9851 30.5872 20.9842 30.5872 20.9842 30.5872C20.9842 30.5872 20.9832 30.5872 20.9831 30.5872C20.983 30.5872 20.9821 30.5872 20.9821 30.5872C20.9821 30.5872 20.9811 30.5872 20.981 30.5872C20.9809 30.5872 20.98 30.5872 20.98 30.5872H20.9789C20.9789 30.5872 20.978 30.5872 20.9779 30.5872H20.9768C20.9768 30.5872 20.9759 30.5872 20.9758 30.5872H20.9747H20.9737C20.9736 30.5872 20.9726 30.5872 20.9726 30.5872H20.9716C20.9715 30.5872 20.9705 30.5872 20.9705 30.5872H20.9695C20.9695 30.5872 20.9685 30.5872 20.9684 30.5872C20.9683 30.5872 20.9674 30.5872 20.9674 30.5872C20.9674 30.5872 20.9664 30.5872 20.9663 30.5872C20.9662 30.5872 20.9653 30.5872 20.9653 30.5872C20.9653 30.5872 20.9643 30.5872 20.9642 30.5872C20.9641 30.5872 20.9632 30.5872 20.9632 30.5872H20.9621C20.9621 30.5872 20.9612 30.5872 20.9611 30.5872H20.96C20.96 30.5872 20.9591 30.5872 20.959 30.5872H20.9579C20.9579 30.5872 20.957 30.5872 20.9569 30.5872C20.9568 30.5872 20.9558 30.5872 20.9558 30.5872H20.9548C20.9547 30.5872 20.9531 30.5872 20.9531 30.5872V31.1872ZM20.9942 31.1872C20.9943 31.1872 20.9952 31.1872 20.9952 31.1872H20.9963C20.9963 31.1872 20.9972 31.1872 20.9973 31.1872H20.9984C20.9984 31.1872 20.9993 31.1872 20.9994 31.1872H21.0005H21.0015C21.0016 31.1872 21.0026 31.1872 21.0026 31.1872H21.0036C21.0037 31.1872 21.0047 31.1872 21.0047 31.1872H21.0057C21.0057 31.1872 21.0067 31.1872 21.0068 31.1872C21.0069 31.1872 21.0078 31.1872 21.0078 31.1872C21.0078 31.1872 21.0088 31.1872 21.0089 31.1872C21.009 31.1872 21.0099 31.1872 21.0099 31.1872C21.0099 31.1872 21.0109 31.1872 21.011 31.1872C21.0111 31.1872 21.012 31.1872 21.012 31.1872H21.0131C21.0131 31.1872 21.014 31.1872 21.0141 31.1872H21.0152C21.0152 31.1872 21.0161 31.1872 21.0162 31.1872H21.0173C21.0173 31.1872 21.0182 31.1872 21.0183 31.1872C21.0184 31.1872 21.0194 31.1872 21.0194 31.1872H21.0204C21.0205 31.1872 21.0215 31.1872 21.0215 31.1872H21.0225C21.0225 31.1872 21.0235 31.1872 21.0236 31.1872C21.0237 31.1872 21.0246 31.1872 21.0246 31.1872C21.0246 31.1872 21.0256 31.1872 21.0257 31.1872C21.0258 31.1872 21.0267 31.1872 21.0267 31.1872C21.0267 31.1872 21.0277 31.1872 21.0278 31.1872C21.0279 31.1872 21.0288 31.1872 21.0288 31.1872H21.0299C21.0299 31.1872 21.0308 31.1872 21.0309 31.1872H21.032C21.032 31.1872 21.0329 31.1872 21.033 31.1872H21.0341C21.0341 31.1872 21.035 31.1872 21.0351 31.1872C21.0352 31.1872 21.0362 31.1872 21.0362 31.1872V30.5872C21.0361 30.5872 21.0351 30.5872 21.0351 30.5872H21.0341C21.0341 30.5872 21.0331 30.5872 21.033 30.5872C21.0329 30.5872 21.032 30.5872 21.032 30.5872C21.032 30.5872 21.031 30.5872 21.0309 30.5872C21.0308 30.5872 21.0299 30.5872 21.0299 30.5872C21.0299 30.5872 21.0289 30.5872 21.0288 30.5872C21.0287 30.5872 21.0278 30.5872 21.0278 30.5872H21.0267C21.0267 30.5872 21.0258 30.5872 21.0257 30.5872H21.0246C21.0246 30.5872 21.0237 30.5872 21.0236 30.5872H21.0225H21.0215C21.0214 30.5872 21.0204 30.5872 21.0204 30.5872H21.0194C21.0193 30.5872 21.0183 30.5872 21.0183 30.5872H21.0173C21.0173 30.5872 21.0163 30.5872 21.0162 30.5872C21.0161 30.5872 21.0152 30.5872 21.0152 30.5872C21.0152 30.5872 21.0142 30.5872 21.0141 30.5872C21.014 30.5872 21.0131 30.5872 21.0131 30.5872C21.0131 30.5872 21.0121 30.5872 21.012 30.5872C21.0119 30.5872 21.011 30.5872 21.011 30.5872H21.0099C21.0099 30.5872 21.009 30.5872 21.0089 30.5872H21.0078C21.0078 30.5872 21.0069 30.5872 21.0068 30.5872H21.0057C21.0057 30.5872 21.0048 30.5872 21.0047 30.5872C21.0046 30.5872 21.0036 30.5872 21.0036 30.5872H21.0026C21.0025 30.5872 21.0015 30.5872 21.0015 30.5872H21.0005C21.0005 30.5872 20.9995 30.5872 20.9994 30.5872C20.9993 30.5872 20.9984 30.5872 20.9984 30.5872C20.9984 30.5872 20.9974 30.5872 20.9973 30.5872C20.9972 30.5872 20.9963 30.5872 20.9963 30.5872C20.9963 30.5872 20.9948 30.5872 20.9947 30.5872L20.9942 31.1872ZM21.0341 31.1872C22.3999 31.1938 23.6489 31.6991 24.6161 32.5215L25.0048 32.0645C23.9359 31.1556 22.5527 30.5945 21.0377 30.5872L21.0341 31.1872ZM24.59 32.0895C23.56 33.2054 22.7945 34.5788 22.4009 36.0958L22.9817 36.2465C23.3499 34.8272 24.0664 33.5413 25.0309 32.4965L24.59 32.0895ZM39.1019 38.9274C39.1019 40.1813 38.0797 41.2035 36.8257 41.2035V41.8035C38.411 41.8035 39.7019 40.5127 39.7019 38.9274H39.1019ZM36.8257 41.2035H26.0916V41.8035H36.8257V41.2035ZM26.0916 41.2035C24.8376 41.2035 23.8154 40.1813 23.8154 38.9274H23.2154C23.2154 40.5127 24.5063 41.8035 26.0916 41.8035V41.2035ZM23.8154 38.9274V38.4564H23.2154V38.9274H23.8154ZM23.8154 38.4564C23.8154 34.3184 27.121 30.933 31.2319 30.8131L31.2144 30.2134C26.7797 30.3427 23.2154 33.9933 23.2154 38.4564H23.8154ZM31.196 30.812C31.2882 30.8204 31.3853 30.8202 31.4587 30.8202V30.2202C31.3796 30.2202 31.3105 30.2199 31.2504 30.2145L31.196 30.812ZM31.4587 30.8202C31.532 30.8202 31.6291 30.8204 31.7213 30.812L31.6669 30.2145C31.6068 30.2199 31.5377 30.2202 31.4587 30.2202V30.8202ZM31.6854 30.8131C35.7963 30.933 39.1019 34.3184 39.1019 38.4564H39.7019C39.7019 33.9933 36.1376 30.3427 31.7029 30.2134L31.6854 30.8131ZM39.1019 38.4564V38.9274H39.7019V38.4564H39.1019ZM40.5163 36.0955C40.1228 34.5859 39.3714 33.2336 38.3488 32.118L37.9065 32.5234C38.8644 33.5685 39.5674 34.8339 39.9357 36.2468L40.5163 36.0955ZM38.3239 32.5476C39.2964 31.7065 40.5579 31.2003 41.9393 31.1872L41.9336 30.5872C40.4065 30.6017 39.0087 31.1621 37.9314 32.0938L38.3239 32.5476ZM41.9365 31.1872C41.9365 31.1872 41.9374 31.1872 41.9375 31.1872H41.9393C41.9394 31.1872 41.9403 31.1872 41.9403 31.1872C41.9403 31.1872 41.9413 31.1872 41.9414 31.1872H41.9425C41.9426 31.1872 41.9436 31.1872 41.9436 31.1872H41.9447C41.9448 31.1872 41.9458 31.1872 41.9458 31.1872H41.9468C41.9468 31.1872 41.9478 31.1872 41.9479 31.1872H41.949C41.9491 31.1872 41.9501 31.1872 41.9501 31.1872H41.9512C41.9513 31.1872 41.9523 31.1872 41.9523 31.1872C41.9523 31.1872 41.9533 31.1872 41.9534 31.1872C41.9535 31.1872 41.9545 31.1872 41.9545 31.1872C41.9545 31.1872 41.9555 31.1872 41.9556 31.1872C41.9557 31.1872 41.9566 31.1872 41.9566 31.1872C41.9566 31.1872 41.9576 31.1872 41.9577 31.1872C41.9578 31.1872 41.9588 31.1872 41.9588 31.1872C41.9588 31.1872 41.9598 31.1872 41.9599 31.1872H41.961C41.961 31.1872 41.962 31.1872 41.9621 31.1872H41.9632C41.9633 31.1872 41.9643 31.1872 41.9643 31.1872H41.9654C41.9654 31.1872 41.9663 31.1872 41.9664 31.1872H41.9675C41.9676 31.1872 41.9686 31.1872 41.9686 31.1872H41.9697C41.9698 31.1872 41.9708 31.1872 41.9708 31.1872C41.9708 31.1872 41.9718 31.1872 41.9719 31.1872C41.972 31.1872 41.973 31.1872 41.973 31.1872C41.973 31.1872 41.974 31.1872 41.9741 31.1872H41.9752C41.9752 31.1872 41.9761 31.1872 41.9762 31.1872C41.9763 31.1872 41.9773 31.1872 41.9773 31.1872L41.978 30.5872H41.9769C41.9769 30.5872 41.9759 30.5872 41.9758 30.5872H41.9747C41.9746 30.5872 41.9736 30.5872 41.9736 30.5872H41.9725C41.9725 30.5872 41.9716 30.5872 41.9715 30.5872H41.9704C41.9703 30.5872 41.9693 30.5872 41.9693 30.5872H41.9682C41.9681 30.5872 41.9671 30.5872 41.9671 30.5872C41.9671 30.5872 41.9661 30.5872 41.966 30.5872C41.9659 30.5872 41.9649 30.5872 41.9649 30.5872C41.9649 30.5872 41.9639 30.5872 41.9638 30.5872H41.9627C41.9627 30.5872 41.9618 30.5872 41.9617 30.5872C41.9616 30.5872 41.9606 30.5872 41.9606 30.5872C41.9606 30.5872 41.9596 30.5872 41.9595 30.5872H41.9584C41.9584 30.5872 41.9574 30.5872 41.9573 30.5872H41.9562C41.9561 30.5872 41.9551 30.5872 41.9551 30.5872H41.954C41.9539 30.5872 41.9529 30.5872 41.9529 30.5872H41.9519C41.9518 30.5872 41.9508 30.5872 41.9508 30.5872H41.9497C41.9496 30.5872 41.9486 30.5872 41.9486 30.5872C41.9486 30.5872 41.9476 30.5872 41.9475 30.5872C41.9474 30.5872 41.9464 30.5872 41.9464 30.5872C41.9464 30.5872 41.9454 30.5872 41.9453 30.5872H41.9442C41.9442 30.5872 41.9432 30.5872 41.9431 30.5872C41.943 30.5872 41.9421 30.5872 41.9421 30.5872C41.9421 30.5872 41.9411 30.5872 41.941 30.5872H41.9399C41.9399 30.5872 41.9389 30.5872 41.9388 30.5872H41.9377C41.9376 30.5872 41.9365 30.5872 41.9365 30.5872V31.1872ZM41.9773 31.1872C41.9773 31.1872 41.9783 31.1872 41.9784 31.1872H41.9795C41.9795 31.1872 41.9805 31.1872 41.9806 31.1872H41.9817C41.9818 31.1872 41.9828 31.1872 41.9828 31.1872H41.9839C41.984 31.1872 41.985 31.1872 41.985 31.1872H41.986C41.9861 31.1872 41.9871 31.1872 41.9871 31.1872H41.9882C41.9883 31.1872 41.9893 31.1872 41.9893 31.1872C41.9893 31.1872 41.9903 31.1872 41.9904 31.1872C41.9905 31.1872 41.9915 31.1872 41.9915 31.1872C41.9915 31.1872 41.9925 31.1872 41.9926 31.1872C41.9927 31.1872 41.9937 31.1872 41.9937 31.1872C41.9937 31.1872 41.9947 31.1872 41.9948 31.1872C41.9949 31.1872 41.9958 31.1872 41.9958 31.1872C41.9958 31.1872 41.9968 31.1872 41.9969 31.1872C41.997 31.1872 41.998 31.1872 41.998 31.1872C41.998 31.1872 41.999 31.1872 41.9991 31.1872H42.0002C42.0002 31.1872 42.0012 31.1872 42.0013 31.1872C42.0014 31.1872 42.0023 31.1872 42.0023 31.1872C42.0023 31.1872 42.0033 31.1872 42.0034 31.1872H42.0045C42.0045 31.1872 42.0055 31.1872 42.0056 31.1872H42.0067C42.0068 31.1872 42.0078 31.1872 42.0078 31.1872H42.0089C42.009 31.1872 42.01 31.1872 42.01 31.1872C42.01 31.1872 42.011 31.1872 42.0111 31.1872C42.0112 31.1872 42.0121 31.1872 42.0121 31.1872H42.0132C42.0133 31.1872 42.0143 31.1872 42.0143 31.1872C42.0143 31.1872 42.0153 31.1872 42.0154 31.1872C42.0155 31.1872 42.0165 31.1872 42.0165 31.1872C42.0165 31.1872 42.0175 31.1872 42.0176 31.1872H42.0187L42.0196 30.5872H42.0186C42.0185 30.5872 42.0175 30.5872 42.0175 30.5872C42.0175 30.5872 42.0165 30.5872 42.0164 30.5872C42.0163 30.5872 42.0153 30.5872 42.0153 30.5872C42.0153 30.5872 42.0143 30.5872 42.0142 30.5872H42.0131C42.0131 30.5872 42.0121 30.5872 42.012 30.5872H42.0109C42.0108 30.5872 42.0098 30.5872 42.0098 30.5872H42.0088C42.0088 30.5872 42.0078 30.5872 42.0077 30.5872H42.0066C42.0065 30.5872 42.0055 30.5872 42.0055 30.5872H42.0044C42.0043 30.5872 42.0033 30.5872 42.0033 30.5872C42.0033 30.5872 42.0023 30.5872 42.0022 30.5872C42.0021 30.5872 42.0011 30.5872 42.0011 30.5872C42.0011 30.5872 42.0001 30.5872 42 30.5872C41.9999 30.5872 41.999 30.5872 41.999 30.5872C41.999 30.5872 41.998 30.5872 41.9979 30.5872C41.9978 30.5872 41.9968 30.5872 41.9968 30.5872C41.9968 30.5872 41.9958 30.5872 41.9957 30.5872H41.9946C41.9946 30.5872 41.9936 30.5872 41.9935 30.5872C41.9934 30.5872 41.9925 30.5872 41.9925 30.5872C41.9925 30.5872 41.9915 30.5872 41.9914 30.5872C41.9913 30.5872 41.9903 30.5872 41.9903 30.5872C41.9903 30.5872 41.9893 30.5872 41.9892 30.5872H41.9881C41.9881 30.5872 41.9871 30.5872 41.987 30.5872H41.9859C41.9858 30.5872 41.9848 30.5872 41.9848 30.5872H41.9837C41.9837 30.5872 41.9828 30.5872 41.9827 30.5872H41.9816C41.9815 30.5872 41.9805 30.5872 41.9805 30.5872H41.9794C41.9794 30.5872 41.9781 30.5872 41.978 30.5872L41.9773 31.1872ZM42.0176 31.1872C44.8894 31.2069 47.2565 33.4025 47.5523 36.2026L48.149 36.1396C47.8215 33.0395 45.2026 30.609 42.0217 30.5872L42.0176 31.1872ZM47.8506 35.8711H40.226V36.4711H47.8506V35.8711Z" fill="black"/>
</g>
</g>
<defs>
<clipPath id="clip0_251_148">
<rect width="63" height="63" fill="white"/>
</clipPath>
</defs>
</svg>
