<svg width="63" height="64" viewBox="0 0 63 64" fill="none" xmlns="http://www.w3.org/2000/svg">
<g clip-path="url(#clip0_250_98)">
<path d="M31.5 63.0636C48.6208 63.0636 62.5 49.1844 62.5 32.0636C62.5 14.9428 48.6208 1.0636 31.5 1.0636C14.3792 1.0636 0.5 14.9428 0.5 32.0636C0.5 49.1844 14.3792 63.0636 31.5 63.0636Z" fill="white" stroke="white"/>
<path d="M18.375 29.1463H44.625M24.2083 36.4379H25.6667M31.5 36.4379H32.9583M22.75 42.2713H40.25C41.4103 42.2713 42.5231 41.8103 43.3436 40.9899C44.1641 40.1694 44.625 39.0566 44.625 37.8963V26.2296C44.625 25.0693 44.1641 23.9565 43.3436 23.136C42.5231 22.3156 41.4103 21.8546 40.25 21.8546H22.75C21.5897 21.8546 20.4769 22.3156 19.6564 23.136C18.8359 23.9565 18.375 25.0693 18.375 26.2296V37.8963C18.375 39.0566 18.8359 40.1694 19.6564 40.9899C20.4769 41.8103 21.5897 42.2713 22.75 42.2713Z" stroke="#160647" stroke-width="2" stroke-linecap="round" stroke-linejoin="round"/>
</g>
<defs>
<clipPath id="clip0_250_98">
<rect width="63" height="63" fill="white" transform="translate(0 0.563599)"/>
</clipPath>
</defs>
</svg>
