<svg width="64" height="63" viewBox="0 0 64 63" fill="none" xmlns="http://www.w3.org/2000/svg">
<g clip-path="url(#clip0_210_977)">
<path d="M32 62.5C49.1208 62.5 63 48.6208 63 31.5C63 14.3792 49.1208 0.5 32 0.5C14.8792 0.5 1 14.3792 1 31.5C1 48.6208 14.8792 62.5 32 62.5Z" fill="#E4F5F4" stroke="#A5E9D7"/>
<path d="M39.2917 25.6673H42.2083C42.9819 25.6673 43.7237 25.9746 44.2707 26.5216C44.8177 27.0686 45.125 27.8104 45.125 28.584V37.334C45.125 38.1075 44.8177 38.8494 44.2707 39.3964C43.7237 39.9434 42.9819 40.2507 42.2083 40.2507H39.2917V46.084L33.4583 40.2507H27.625C27.2419 40.251 26.8626 40.1758 26.5087 40.0291C26.1548 39.8824 25.8334 39.6673 25.5629 39.3961M25.5629 39.3961L30.5417 34.4173H36.375C37.1485 34.4173 37.8904 34.11 38.4374 33.563C38.9844 33.0161 39.2917 32.2742 39.2917 31.5007V22.7507C39.2917 21.9771 38.9844 21.2352 38.4374 20.6883C37.8904 20.1413 37.1485 19.834 36.375 19.834H21.7917C21.0181 19.834 20.2763 20.1413 19.7293 20.6883C19.1823 21.2352 18.875 21.9771 18.875 22.7507V31.5007C18.875 32.2742 19.1823 33.0161 19.7293 33.563C20.2763 34.11 21.0181 34.4173 21.7917 34.4173H24.7083V40.2507L25.5629 39.3961Z" stroke="#48BFBA" stroke-width="2" stroke-linecap="round" stroke-linejoin="round"/>
</g>
<defs>
<clipPath id="clip0_210_977">
<rect width="63" height="63" fill="white" transform="translate(0.5)"/>
</clipPath>
</defs>
</svg>
