<svg width="64" height="63" viewBox="0 0 64 63" fill="none" xmlns="http://www.w3.org/2000/svg">
<g clip-path="url(#clip0_210_970)">
<path d="M32 62.5C49.1208 62.5 63 48.6208 63 31.5C63 14.3792 49.1208 0.5 32 0.5C14.8792 0.5 1 14.3792 1 31.5C1 48.6208 14.8792 62.5 32 62.5Z" fill="#E4F5F4" stroke="#A5E9D7"/>
<path d="M18.875 28.5827H45.125M24.7083 35.8743H26.1667M32 35.8743H33.4583M23.25 41.7077H40.75C41.9103 41.7077 43.0231 41.2467 43.8436 40.4263C44.6641 39.6058 45.125 38.493 45.125 37.3327V25.666C45.125 24.5057 44.6641 23.3929 43.8436 22.5724C43.0231 21.752 41.9103 21.291 40.75 21.291H23.25C22.0897 21.291 20.9769 21.752 20.1564 22.5724C19.3359 23.3929 18.875 24.5057 18.875 25.666V37.3327C18.875 38.493 19.3359 39.6058 20.1564 40.4263C20.9769 41.2467 22.0897 41.7077 23.25 41.7077Z" stroke="#48BFBA" stroke-width="2" stroke-linecap="round" stroke-linejoin="round"/>
</g>
<defs>
<clipPath id="clip0_210_970">
<rect width="63" height="63" fill="white" transform="translate(0.5)"/>
</clipPath>
</defs>
</svg>
