<svg width="64" height="63" viewBox="0 0 64 63" fill="none" xmlns="http://www.w3.org/2000/svg">
<g clip-path="url(#clip0_210_984)">
<path d="M32 62.5C49.1208 62.5 63 48.6208 63 31.5C63 14.3792 49.1208 0.5 32 0.5C14.8792 0.5 1 14.3792 1 31.5C1 48.6208 14.8792 62.5 32 62.5Z" fill="#E4F5F4" stroke="#A5E9D7"/>
<path d="M44.7701 30.1671C45.795 29.4468 46.4737 28.2488 46.4737 26.8984C46.4737 24.6892 44.687 22.9025 42.4778 22.9025C40.2687 22.9025 38.482 24.6892 38.482 26.8984C38.482 28.2488 39.1537 29.4468 40.1856 30.1671C39.3061 30.4718 38.5028 30.9427 37.8241 31.5521C36.8892 30.7557 35.7881 30.1463 34.5831 29.7862C36.0443 28.8998 37.0277 27.2862 37.0277 25.451C37.0277 22.6532 34.7632 20.3887 31.9654 20.3887C29.1676 20.3887 26.903 22.6601 26.903 25.451C26.903 27.2862 27.8795 28.8998 29.3476 29.7862C28.1565 30.1463 27.0693 30.7488 26.1413 31.5313C25.4626 30.9358 24.6731 30.4718 23.8075 30.174C24.8324 29.4538 25.5111 28.2557 25.5111 26.9053C25.5111 24.6962 23.7244 22.9094 21.5152 22.9094C19.3061 22.9094 17.5194 24.6962 17.5194 26.9053C17.5194 28.2557 18.1911 29.4538 19.223 30.174C16.4737 31.1227 14.5 33.7335 14.5 36.8014V37.2585C14.5 37.2723 14.5139 37.2862 14.5277 37.2862H22.9972C22.9488 37.6671 22.9211 38.0618 22.9211 38.4565V38.9275C22.9211 40.9635 24.5693 42.6117 26.6053 42.6117H37.3393C39.3753 42.6117 41.0235 40.9635 41.0235 38.9275V38.4565C41.0235 38.0618 40.9958 37.6671 40.9474 37.2862H49.4723C49.4862 37.2862 49.5 37.2723 49.5 37.2585V36.8014C49.4862 33.7266 47.5194 31.1158 44.7701 30.1671ZM39.59 26.8914C39.59 25.2986 40.885 24.0036 42.4778 24.0036C44.0706 24.0036 45.3657 25.2986 45.3657 26.8914C45.3657 28.4635 44.0983 29.7446 42.5332 29.7793C42.5125 29.7793 42.4986 29.7793 42.4778 29.7793C42.4571 29.7793 42.4432 29.7793 42.4224 29.7793C40.8504 29.7516 39.59 28.4704 39.59 26.8914ZM27.9972 25.451C27.9972 23.2696 29.7701 21.4967 31.9515 21.4967C34.133 21.4967 35.9058 23.2696 35.9058 25.451C35.9058 27.5563 34.2507 29.2806 32.1801 29.3984C32.1039 29.3984 32.0277 29.3984 31.9515 29.3984C31.8753 29.3984 31.7992 29.3984 31.723 29.3984C29.6524 29.2806 27.9972 27.5563 27.9972 25.451ZM18.6066 26.8914C18.6066 25.2986 19.9017 24.0036 21.4945 24.0036C23.0873 24.0036 24.3823 25.2986 24.3823 26.8914C24.3823 28.4635 23.115 29.7446 21.5499 29.7793C21.5291 29.7793 21.5152 29.7793 21.4945 29.7793C21.4737 29.7793 21.4598 29.7793 21.4391 29.7793C19.874 29.7516 18.6066 28.4704 18.6066 26.8914ZM23.1911 36.1712H15.6219C15.9335 33.2211 18.4266 30.9081 21.4529 30.8873C21.4668 30.8873 21.4806 30.8873 21.4945 30.8873C21.5083 30.8873 21.5222 30.8873 21.536 30.8873C22.9765 30.8942 24.2922 31.4275 25.3103 32.2931C24.313 33.3734 23.572 34.7031 23.1911 36.1712ZM39.9017 38.9275C39.9017 40.3471 38.7452 41.5036 37.3255 41.5036H26.5914C25.1717 41.5036 24.0152 40.3471 24.0152 38.9275V38.4565C24.0152 34.156 27.4501 30.638 31.723 30.5133C31.7992 30.5203 31.8823 30.5203 31.9585 30.5203C32.0346 30.5203 32.1177 30.5203 32.1939 30.5133C36.4668 30.638 39.9017 34.156 39.9017 38.4565V38.9275ZM40.7258 36.1712C40.3449 34.71 39.6177 33.4011 38.6274 32.3208C39.6524 31.4344 40.982 30.9011 42.4363 30.8873C42.4501 30.8873 42.464 30.8873 42.4778 30.8873C42.4917 30.8873 42.5055 30.8873 42.5194 30.8873C45.5457 30.9081 48.0388 33.2211 48.3504 36.1712H40.7258Z" fill="#47BEB9"/>
<mask id="mask0_210_984" style="mask-type:luminance" maskUnits="userSpaceOnUse" x="13" y="19" width="38" height="25">
<path d="M50.5 19.3887H13.5V43.3887H50.5V19.3887Z" fill="white"/>
<path d="M44.7701 30.1671C45.795 29.4468 46.4737 28.2488 46.4737 26.8984C46.4737 24.6892 44.687 22.9025 42.4778 22.9025C40.2687 22.9025 38.482 24.6892 38.482 26.8984C38.482 28.2488 39.1537 29.4468 40.1856 30.1671C39.3061 30.4718 38.5028 30.9427 37.8241 31.5521C36.8892 30.7557 35.7881 30.1463 34.5831 29.7862C36.0443 28.8998 37.0277 27.2862 37.0277 25.451C37.0277 22.6532 34.7632 20.3887 31.9654 20.3887C29.1676 20.3887 26.903 22.6601 26.903 25.451C26.903 27.2862 27.8795 28.8998 29.3476 29.7862C28.1565 30.1463 27.0693 30.7488 26.1413 31.5313C25.4626 30.9358 24.6731 30.4718 23.8075 30.174C24.8324 29.4538 25.5111 28.2557 25.5111 26.9053C25.5111 24.6962 23.7244 22.9094 21.5152 22.9094C19.3061 22.9094 17.5194 24.6962 17.5194 26.9053C17.5194 28.2557 18.1911 29.4538 19.223 30.174C16.4737 31.1227 14.5 33.7335 14.5 36.8014V37.2585C14.5 37.2723 14.5139 37.2862 14.5277 37.2862H22.9972C22.9488 37.6671 22.9211 38.0618 22.9211 38.4565V38.9275C22.9211 40.9635 24.5693 42.6117 26.6053 42.6117H37.3393C39.3753 42.6117 41.0235 40.9635 41.0235 38.9275V38.4565C41.0235 38.0618 40.9958 37.6671 40.9474 37.2862H49.4723C49.4862 37.2862 49.5 37.2723 49.5 37.2585V36.8014C49.4862 33.7266 47.5194 31.1158 44.7701 30.1671ZM39.59 26.8914C39.59 25.2986 40.885 24.0036 42.4778 24.0036C44.0706 24.0036 45.3657 25.2986 45.3657 26.8914C45.3657 28.4635 44.0983 29.7446 42.5332 29.7793C42.5125 29.7793 42.4986 29.7793 42.4778 29.7793C42.4571 29.7793 42.4432 29.7793 42.4224 29.7793C40.8504 29.7516 39.59 28.4704 39.59 26.8914ZM27.9972 25.451C27.9972 23.2696 29.7701 21.4967 31.9515 21.4967C34.133 21.4967 35.9058 23.2696 35.9058 25.451C35.9058 27.5563 34.2507 29.2806 32.1801 29.3984C32.1039 29.3984 32.0277 29.3984 31.9515 29.3984C31.8753 29.3984 31.7992 29.3984 31.723 29.3984C29.6524 29.2806 27.9972 27.5563 27.9972 25.451ZM18.6066 26.8914C18.6066 25.2986 19.9017 24.0036 21.4945 24.0036C23.0873 24.0036 24.3823 25.2986 24.3823 26.8914C24.3823 28.4635 23.115 29.7446 21.5499 29.7793C21.5291 29.7793 21.5152 29.7793 21.4945 29.7793C21.4737 29.7793 21.4598 29.7793 21.4391 29.7793C19.874 29.7516 18.6066 28.4704 18.6066 26.8914ZM23.1911 36.1712H15.6219C15.9335 33.2211 18.4266 30.9081 21.4529 30.8873C21.4668 30.8873 21.4806 30.8873 21.4945 30.8873C21.5083 30.8873 21.5222 30.8873 21.536 30.8873C22.9765 30.8942 24.2922 31.4275 25.3103 32.2931C24.313 33.3734 23.572 34.7031 23.1911 36.1712ZM39.9017 38.9275C39.9017 40.3471 38.7452 41.5036 37.3255 41.5036H26.5914C25.1717 41.5036 24.0152 40.3471 24.0152 38.9275V38.4565C24.0152 34.156 27.4501 30.638 31.723 30.5133C31.7992 30.5203 31.8823 30.5203 31.9585 30.5203C32.0346 30.5203 32.1177 30.5203 32.1939 30.5133C36.4668 30.638 39.9017 34.156 39.9017 38.4565V38.9275ZM40.7258 36.1712C40.3449 34.71 39.6177 33.4011 38.6274 32.3208C39.6524 31.4344 40.982 30.9011 42.4363 30.8873C42.4501 30.8873 42.464 30.8873 42.4778 30.8873C42.4917 30.8873 42.5055 30.8873 42.5194 30.8873C45.5457 30.9081 48.0388 33.2211 48.3504 36.1712H40.7258Z" fill="#47BEB9"/>
</mask>
<g mask="url(#mask0_210_984)">
<path d="M44.7701 30.1671L44.5976 29.9216L44.1173 30.2591L44.6722 30.4507L44.7701 30.1671ZM40.1856 30.1671L40.2838 30.4505L40.8399 30.2579L40.3573 29.9211L40.1856 30.1671ZM37.8241 31.5521L37.6296 31.7805L37.8293 31.9506L38.0245 31.7753L37.8241 31.5521ZM34.5831 29.7862L34.4275 29.5297L33.8498 29.8801L34.4972 30.0736L34.5831 29.7862ZM29.3476 29.7862L29.4345 30.0733L30.0803 29.8781L29.5027 29.5294L29.3476 29.7862ZM26.1413 31.5313L25.9434 31.7568L26.1374 31.927L26.3347 31.7607L26.1413 31.5313ZM23.8075 30.174L23.635 29.9285L23.1541 30.2665L23.7099 30.4577L23.8075 30.174ZM19.223 30.174L19.3209 30.4576L19.878 30.2653L19.3947 29.928L19.223 30.174ZM22.9972 37.2862L23.2948 37.3241L23.3378 36.9862H22.9972V37.2862ZM40.9474 37.2862V36.9862H40.6068L40.6498 37.3241L40.9474 37.2862ZM49.5 36.8014H49.8V36.8001L49.5 36.8014ZM42.5332 29.7793V30.0793L42.5399 30.0792L42.5332 29.7793ZM42.4224 29.7793L42.4172 30.0793H42.4224V29.7793ZM32.1801 29.3984V29.6984H32.1886L32.1971 29.6979L32.1801 29.3984ZM31.723 29.3984L31.706 29.6979L31.7145 29.6984H31.723V29.3984ZM21.5499 29.7793V30.0793L21.5565 30.0792L21.5499 29.7793ZM21.4391 29.7793L21.4337 30.0793H21.4391V29.7793ZM23.1911 36.1712V36.4712H23.4232L23.4815 36.2466L23.1911 36.1712ZM15.6219 36.1712L15.3235 36.1397L15.2885 36.4712H15.6219V36.1712ZM21.4529 30.8873V30.5873H21.4508L21.4529 30.8873ZM21.536 30.8873L21.5375 30.5873H21.536V30.8873ZM25.3103 32.2931L25.5307 32.4966L25.7426 32.267L25.5046 32.0646L25.3103 32.2931ZM31.723 30.5133L31.7502 30.2146L31.7322 30.2129L31.7142 30.2135L31.723 30.5133ZM32.1939 30.5133L32.2027 30.2135L32.1847 30.2129L32.1667 30.2146L32.1939 30.5133ZM40.7258 36.1712L40.4355 36.2469L40.4939 36.4712H40.7258V36.1712ZM38.6274 32.3208L38.4312 32.0939L38.1976 32.2959L38.4063 32.5235L38.6274 32.3208ZM42.4363 30.8873V30.5873H42.4334L42.4363 30.8873ZM42.5194 30.8873L42.5215 30.5873H42.5194V30.8873ZM48.3504 36.1712V36.4712H48.6838L48.6488 36.1397L48.3504 36.1712ZM44.9426 30.4125C46.0434 29.639 46.7737 28.3513 46.7737 26.8984H46.1737C46.1737 28.1463 45.5466 29.2547 44.5976 29.9216L44.9426 30.4125ZM46.7737 26.8984C46.7737 24.5235 44.8527 22.6025 42.4778 22.6025V23.2025C44.5213 23.2025 46.1737 24.8549 46.1737 26.8984H46.7737ZM42.4778 22.6025C40.103 22.6025 38.182 24.5235 38.182 26.8984H38.782C38.782 24.8549 40.4344 23.2025 42.4778 23.2025V22.6025ZM38.182 26.8984C38.182 28.3504 38.9046 29.6388 40.0139 30.4131L40.3573 29.9211C39.4028 29.2549 38.782 28.1471 38.782 26.8984H38.182ZM40.0874 29.8836C39.171 30.2011 38.3327 30.6922 37.6237 31.3289L38.0245 31.7753C38.6728 31.1932 39.4412 30.7425 40.2838 30.4505L40.0874 29.8836ZM38.0186 31.3237C37.0528 30.501 35.9149 29.8711 34.669 29.4987L34.4972 30.0736C35.6613 30.4215 36.7256 31.0104 37.6296 31.7805L38.0186 31.3237ZM34.7387 30.0427C36.2856 29.1043 37.3277 27.3956 37.3277 25.451H36.7277C36.7277 27.1768 35.803 28.6952 34.4275 29.5297L34.7387 30.0427ZM37.3277 25.451C37.3277 22.4875 34.9288 20.0887 31.9654 20.0887V20.6887C34.5975 20.6887 36.7277 22.8189 36.7277 25.451H37.3277ZM31.9654 20.0887C29.0016 20.0887 26.603 22.4947 26.603 25.451H27.203C27.203 22.8256 29.3335 20.6887 31.9654 20.6887V20.0887ZM26.603 25.451C26.603 27.395 27.6377 29.1042 29.1926 30.043L29.5027 29.5294C28.1213 28.6953 27.203 27.1774 27.203 25.451H26.603ZM29.2608 29.499C28.0293 29.8713 26.906 30.494 25.9479 31.302L26.3347 31.7607C27.2325 31.0036 28.2837 30.4213 29.4345 30.0733L29.2608 29.499ZM26.3392 31.3058C25.6318 30.6851 24.8084 30.2011 23.9051 29.8903L23.7099 30.4577C24.5378 30.7425 25.2934 31.1864 25.9434 31.7568L26.3392 31.3058ZM23.98 30.4194C25.0808 29.6459 25.8111 28.3582 25.8111 26.9053H25.2111C25.2111 28.1532 24.584 29.2617 23.635 29.9285L23.98 30.4194ZM25.8111 26.9053C25.8111 24.5305 23.8901 22.6094 21.5152 22.6094V23.2094C23.5587 23.2094 25.2111 24.8618 25.2111 26.9053H25.8111ZM21.5152 22.6094C19.1404 22.6094 17.2194 24.5305 17.2194 26.9053H17.8194C17.8194 24.8618 19.4718 23.2094 21.5152 23.2094V22.6094ZM17.2194 26.9053C17.2194 28.3573 17.942 29.6458 19.0513 30.42L19.3947 29.928C18.4402 29.2618 17.8194 28.1541 17.8194 26.9053H17.2194ZM19.1251 29.8904C16.2586 30.8796 14.2 33.6017 14.2 36.8014H14.8C14.8 33.8654 16.6888 31.3659 19.3209 30.4576L19.1251 29.8904ZM14.2 36.8014V37.2585H14.8V36.8014H14.2ZM14.2 37.2585C14.2 37.363 14.2492 37.4424 14.2965 37.4897C14.3438 37.537 14.4232 37.5862 14.5277 37.5862V36.9862C14.6183 36.9862 14.6839 37.0285 14.7208 37.0654C14.7577 37.1023 14.8 37.1678 14.8 37.2585H14.2ZM14.5277 37.5862H22.9972V36.9862H14.5277V37.5862ZM22.6996 37.2483C22.6497 37.6405 22.6211 38.048 22.6211 38.4565H23.2211C23.2211 38.0756 23.2478 37.6936 23.2948 37.3241L22.6996 37.2483ZM22.6211 38.4565V38.9275H23.2211V38.4565H22.6211ZM22.6211 38.9275C22.6211 41.1292 24.4036 42.9117 26.6053 42.9117V42.3117C24.7349 42.3117 23.2211 40.7978 23.2211 38.9275H22.6211ZM26.6053 42.9117H37.3393V42.3117H26.6053V42.9117ZM37.3393 42.9117C39.541 42.9117 41.3235 41.1292 41.3235 38.9275H40.7235C40.7235 40.7978 39.2097 42.3117 37.3393 42.3117V42.9117ZM41.3235 38.9275V38.4565H40.7235V38.9275H41.3235ZM41.3235 38.4565C41.3235 38.048 41.2949 37.6405 41.245 37.2483L40.6498 37.3241C40.6968 37.6936 40.7235 38.0756 40.7235 38.4565H41.3235ZM40.9474 37.5862H49.4723V36.9862H40.9474V37.5862ZM49.4723 37.5862C49.5768 37.5862 49.6562 37.537 49.7035 37.4897C49.7508 37.4424 49.8 37.363 49.8 37.2585H49.2C49.2 37.1678 49.2423 37.1023 49.2792 37.0654C49.3161 37.0285 49.3817 36.9862 49.4723 36.9862V37.5862ZM49.8 37.2585V36.8014H49.2V37.2585H49.8ZM49.8 36.8001C49.7856 33.5952 47.7353 30.8729 44.8679 29.8835L44.6722 30.4507C47.3035 31.3587 49.1867 33.8581 49.2 36.8028L49.8 36.8001ZM39.89 26.8914C39.89 25.4643 41.0507 24.3036 42.4778 24.3036V23.7036C40.7194 23.7036 39.29 25.133 39.29 26.8914H39.89ZM42.4778 24.3036C43.905 24.3036 45.0657 25.4643 45.0657 26.8914H45.6657C45.6657 25.133 44.2363 23.7036 42.4778 23.7036V24.3036ZM45.0657 26.8914C45.0657 28.2989 43.9301 29.4483 42.5266 29.4793L42.5399 30.0792C44.2665 30.041 45.6657 28.6281 45.6657 26.8914H45.0657ZM42.5332 29.4793C42.5331 29.4793 42.5333 29.4793 42.5332 29.4793C42.5331 29.4793 42.5321 29.4793 42.532 29.4793C42.5319 29.4793 42.5321 29.4793 42.532 29.4793C42.5319 29.4793 42.531 29.4793 42.531 29.4793H42.5299C42.5298 29.4793 42.53 29.4793 42.5299 29.4793C42.5298 29.4793 42.5289 29.4793 42.5288 29.4793C42.5287 29.4793 42.5289 29.4793 42.5288 29.4793H42.5277C42.5276 29.4793 42.5278 29.4793 42.5277 29.4793C42.5276 29.4793 42.5267 29.4793 42.5266 29.4793C42.5265 29.4793 42.5267 29.4793 42.5266 29.4793C42.5266 29.4793 42.5256 29.4793 42.5255 29.4793C42.5254 29.4793 42.5256 29.4793 42.5255 29.4793H42.5244C42.5243 29.4793 42.5245 29.4793 42.5244 29.4793H42.5233C42.5232 29.4793 42.5234 29.4793 42.5233 29.4793H42.5222C42.5221 29.4793 42.5223 29.4793 42.5222 29.4793H42.5212C42.5211 29.4793 42.5213 29.4793 42.5212 29.4793C42.5212 29.4793 42.5202 29.4793 42.5201 29.4793C42.52 29.4793 42.519 29.4793 42.519 29.4793C42.5189 29.4793 42.5191 29.4793 42.519 29.4793H42.5179C42.5178 29.4793 42.518 29.4793 42.5179 29.4793C42.5179 29.4793 42.5169 29.4793 42.5168 29.4793H42.5157C42.5156 29.4793 42.5158 29.4793 42.5157 29.4793C42.5157 29.4793 42.5147 29.4793 42.5146 29.4793H42.5135C42.5134 29.4793 42.5124 29.4793 42.5124 29.4793C42.5123 29.4793 42.5125 29.4793 42.5124 29.4793C42.5124 29.4793 42.5115 29.4793 42.5114 29.4793C42.5114 29.4793 42.5104 29.4793 42.5103 29.4793H42.5092C42.5091 29.4793 42.5081 29.4793 42.5081 29.4793C42.508 29.4793 42.507 29.4793 42.507 29.4793C42.5069 29.4793 42.5071 29.4793 42.507 29.4793C42.507 29.4793 42.506 29.4793 42.5059 29.4793C42.5059 29.4793 42.5049 29.4793 42.5048 29.4793H42.5037H42.5026C42.5025 29.4793 42.5016 29.4793 42.5016 29.4793C42.5015 29.4793 42.5005 29.4793 42.5005 29.4793C42.5004 29.4793 42.5006 29.4793 42.5005 29.4793C42.5005 29.4793 42.4995 29.4793 42.4994 29.4793H42.4983C42.4982 29.4793 42.4972 29.4793 42.4972 29.4793C42.4971 29.4793 42.4973 29.4793 42.4972 29.4793C42.4972 29.4793 42.4962 29.4793 42.4961 29.4793H42.4951C42.495 29.4793 42.4952 29.4793 42.4951 29.4793C42.4951 29.4793 42.4941 29.4793 42.494 29.4793C42.4939 29.4793 42.4929 29.4793 42.4929 29.4793C42.4928 29.4793 42.493 29.4793 42.4929 29.4793H42.4918C42.4917 29.4793 42.4919 29.4793 42.4918 29.4793C42.4918 29.4793 42.4908 29.4793 42.4907 29.4793C42.4906 29.4793 42.4896 29.4793 42.4895 29.4793C42.4894 29.4793 42.4885 29.4793 42.4884 29.4793C42.4883 29.4793 42.4874 29.4793 42.4873 29.4793C42.4872 29.4793 42.4874 29.4793 42.4873 29.4793C42.4873 29.4793 42.4863 29.4793 42.4862 29.4793C42.4861 29.4793 42.4863 29.4793 42.4862 29.4793H42.4851C42.485 29.4793 42.4852 29.4793 42.4851 29.4793C42.485 29.4793 42.484 29.4793 42.484 29.4793C42.4839 29.4793 42.4841 29.4793 42.484 29.4793C42.4839 29.4793 42.483 29.4793 42.4829 29.4793C42.4828 29.4793 42.483 29.4793 42.4829 29.4793H42.4818C42.4818 29.4793 42.4808 29.4793 42.4807 29.4793C42.4806 29.4793 42.4808 29.4793 42.4807 29.4793C42.4806 29.4793 42.4797 29.4793 42.4796 29.4793C42.4795 29.4793 42.4797 29.4793 42.4796 29.4793C42.4795 29.4793 42.4785 29.4793 42.4784 29.4793C42.4783 29.4793 42.4785 29.4793 42.4784 29.4793L42.4778 30.0793H42.4788C42.4788 30.0793 42.4798 30.0793 42.4799 30.0793C42.4798 30.0793 42.48 30.0793 42.4799 30.0793C42.48 30.0793 42.4809 30.0793 42.481 30.0793C42.4809 30.0793 42.4811 30.0793 42.481 30.0793H42.4821C42.4821 30.0793 42.4831 30.0793 42.4832 30.0793C42.4831 30.0793 42.4833 30.0793 42.4832 30.0793H42.4843C42.4842 30.0793 42.4844 30.0793 42.4843 30.0793C42.4844 30.0793 42.4854 30.0793 42.4854 30.0793C42.4853 30.0793 42.4855 30.0793 42.4854 30.0793C42.4855 30.0793 42.4864 30.0793 42.4865 30.0793C42.4864 30.0793 42.4866 30.0793 42.4865 30.0793C42.4865 30.0793 42.4875 30.0793 42.4876 30.0793C42.4877 30.0793 42.4885 30.0793 42.4886 30.0793C42.4887 30.0793 42.4896 30.0793 42.4897 30.0793C42.4898 30.0793 42.4908 30.0793 42.4908 30.0793C42.4907 30.0793 42.4909 30.0793 42.4908 30.0793H42.4919C42.4918 30.0793 42.492 30.0793 42.4919 30.0793C42.4919 30.0793 42.4929 30.0793 42.493 30.0793C42.4931 30.0793 42.4941 30.0793 42.4941 30.0793C42.494 30.0793 42.4942 30.0793 42.4941 30.0793H42.4952C42.4953 30.0793 42.4963 30.0793 42.4963 30.0793C42.4962 30.0793 42.4964 30.0793 42.4963 30.0793C42.4963 30.0793 42.4973 30.0793 42.4974 30.0793H42.4984C42.4985 30.0793 42.4995 30.0793 42.4995 30.0793C42.4994 30.0793 42.4996 30.0793 42.4995 30.0793C42.4995 30.0793 42.5005 30.0793 42.5006 30.0793C42.5006 30.0793 42.5016 30.0793 42.5017 30.0793H42.5028C42.5029 30.0793 42.5039 30.0793 42.5039 30.0793C42.504 30.0793 42.5049 30.0793 42.5049 30.0793C42.505 30.0793 42.506 30.0793 42.506 30.0793C42.5059 30.0793 42.5061 30.0793 42.506 30.0793C42.506 30.0793 42.507 30.0793 42.5071 30.0793C42.5071 30.0793 42.5081 30.0793 42.5082 30.0793H42.5093C42.5094 30.0793 42.5104 30.0793 42.5104 30.0793C42.5105 30.0793 42.5115 30.0793 42.5115 30.0793C42.5114 30.0793 42.5116 30.0793 42.5115 30.0793C42.5115 30.0793 42.5125 30.0793 42.5126 30.0793H42.5137C42.5138 30.0793 42.5147 30.0793 42.5147 30.0793C42.5146 30.0793 42.5148 30.0793 42.5147 30.0793H42.5158C42.5159 30.0793 42.5169 30.0793 42.5169 30.0793C42.5168 30.0793 42.517 30.0793 42.5169 30.0793H42.518C42.5179 30.0793 42.5181 30.0793 42.518 30.0793C42.518 30.0793 42.519 30.0793 42.5191 30.0793C42.5192 30.0793 42.5202 30.0793 42.5202 30.0793C42.5201 30.0793 42.5203 30.0793 42.5202 30.0793H42.5213C42.5212 30.0793 42.5214 30.0793 42.5213 30.0793H42.5224C42.5223 30.0793 42.5225 30.0793 42.5224 30.0793H42.5235C42.5234 30.0793 42.5236 30.0793 42.5235 30.0793H42.5245C42.5244 30.0793 42.5246 30.0793 42.5245 30.0793C42.5246 30.0793 42.5256 30.0793 42.5256 30.0793C42.5255 30.0793 42.5257 30.0793 42.5256 30.0793C42.5257 30.0793 42.5266 30.0793 42.5267 30.0793C42.5266 30.0793 42.5268 30.0793 42.5267 30.0793H42.5278C42.5277 30.0793 42.5279 30.0793 42.5278 30.0793C42.5279 30.0793 42.5289 30.0793 42.529 30.0793C42.5289 30.0793 42.5291 30.0793 42.529 30.0793C42.5291 30.0793 42.5301 30.0793 42.5301 30.0793H42.5312C42.5312 30.0793 42.5331 30.0793 42.5332 30.0793C42.5331 30.0793 42.5333 30.0793 42.5332 30.0793V29.4793ZM42.4784 29.4793C42.4783 29.4793 42.4773 29.4793 42.4772 29.4793C42.4771 29.4793 42.4773 29.4793 42.4772 29.4793C42.4771 29.4793 42.4761 29.4793 42.476 29.4793C42.4759 29.4793 42.4761 29.4793 42.476 29.4793C42.4759 29.4793 42.475 29.4793 42.475 29.4793H42.4739C42.4738 29.4793 42.474 29.4793 42.4739 29.4793C42.4738 29.4793 42.4728 29.4793 42.4727 29.4793C42.4726 29.4793 42.4728 29.4793 42.4727 29.4793H42.4716C42.4715 29.4793 42.4717 29.4793 42.4716 29.4793C42.4715 29.4793 42.4705 29.4793 42.4705 29.4793C42.4704 29.4793 42.4706 29.4793 42.4705 29.4793C42.4704 29.4793 42.4695 29.4793 42.4694 29.4793C42.4693 29.4793 42.4695 29.4793 42.4694 29.4793C42.4694 29.4793 42.4684 29.4793 42.4683 29.4793C42.4682 29.4793 42.4684 29.4793 42.4683 29.4793C42.4683 29.4793 42.4673 29.4793 42.4672 29.4793C42.4671 29.4793 42.4673 29.4793 42.4672 29.4793C42.4672 29.4793 42.4662 29.4793 42.4661 29.4793C42.466 29.4793 42.465 29.4793 42.4649 29.4793C42.4648 29.4793 42.4638 29.4793 42.4638 29.4793C42.4637 29.4793 42.4639 29.4793 42.4638 29.4793H42.4627C42.4626 29.4793 42.4617 29.4793 42.4616 29.4793H42.4605C42.4604 29.4793 42.4595 29.4793 42.4594 29.4793H42.4583C42.4582 29.4793 42.4573 29.4793 42.4573 29.4793C42.4572 29.4793 42.4563 29.4793 42.4562 29.4793C42.4562 29.4793 42.4552 29.4793 42.4551 29.4793H42.454C42.4539 29.4793 42.4529 29.4793 42.4529 29.4793C42.4528 29.4793 42.4518 29.4793 42.4518 29.4793C42.4517 29.4793 42.4508 29.4793 42.4507 29.4793C42.4507 29.4793 42.4497 29.4793 42.4496 29.4793C42.4496 29.4793 42.4486 29.4793 42.4485 29.4793H42.4475C42.4474 29.4793 42.4464 29.4793 42.4464 29.4793C42.4463 29.4793 42.4453 29.4793 42.4453 29.4793C42.4452 29.4793 42.4454 29.4793 42.4453 29.4793C42.4453 29.4793 42.4443 29.4793 42.4442 29.4793H42.4431C42.443 29.4793 42.442 29.4793 42.442 29.4793C42.4419 29.4793 42.4421 29.4793 42.442 29.4793C42.442 29.4793 42.441 29.4793 42.4409 29.4793H42.4398C42.4397 29.4793 42.4399 29.4793 42.4398 29.4793C42.4398 29.4793 42.4388 29.4793 42.4387 29.4793H42.4377C42.4376 29.4793 42.4378 29.4793 42.4377 29.4793C42.4377 29.4793 42.4367 29.4793 42.4366 29.4793C42.4365 29.4793 42.4356 29.4793 42.4355 29.4793C42.4354 29.4793 42.4344 29.4793 42.4344 29.4793C42.4343 29.4793 42.4345 29.4793 42.4344 29.4793C42.4343 29.4793 42.4333 29.4793 42.4333 29.4793C42.4332 29.4793 42.4334 29.4793 42.4333 29.4793C42.4332 29.4793 42.4322 29.4793 42.4322 29.4793C42.4321 29.4793 42.4323 29.4793 42.4322 29.4793C42.4321 29.4793 42.4312 29.4793 42.4312 29.4793C42.4311 29.4793 42.4313 29.4793 42.4312 29.4793C42.4311 29.4793 42.4301 29.4793 42.43 29.4793C42.4299 29.4793 42.4301 29.4793 42.43 29.4793C42.43 29.4793 42.429 29.4793 42.4289 29.4793C42.4288 29.4793 42.429 29.4793 42.4289 29.4793H42.4279C42.4278 29.4793 42.428 29.4793 42.4279 29.4793C42.4278 29.4793 42.4269 29.4793 42.4268 29.4793C42.4267 29.4793 42.4269 29.4793 42.4268 29.4793C42.4267 29.4793 42.4257 29.4793 42.4257 29.4793H42.4246C42.4246 29.4793 42.4236 29.4793 42.4235 29.4793C42.4234 29.4793 42.4236 29.4793 42.4235 29.4793C42.4234 29.4793 42.4225 29.4793 42.4224 29.4793V30.0793H42.4235H42.4246C42.4246 30.0793 42.4256 30.0793 42.4257 30.0793C42.4256 30.0793 42.4258 30.0793 42.4257 30.0793C42.4258 30.0793 42.4268 30.0793 42.4268 30.0793C42.4268 30.0793 42.4278 30.0793 42.4279 30.0793C42.4278 30.0793 42.428 30.0793 42.4279 30.0793H42.4289C42.4288 30.0793 42.429 30.0793 42.4289 30.0793C42.429 30.0793 42.43 30.0793 42.43 30.0793C42.4299 30.0793 42.4301 30.0793 42.43 30.0793C42.4301 30.0793 42.431 30.0793 42.4311 30.0793C42.431 30.0793 42.4312 30.0793 42.4311 30.0793C42.4311 30.0793 42.4321 30.0793 42.4322 30.0793C42.4321 30.0793 42.4323 30.0793 42.4322 30.0793C42.4322 30.0793 42.4332 30.0793 42.4333 30.0793C42.4334 30.0793 42.4343 30.0793 42.4344 30.0793C42.4345 30.0793 42.4355 30.0793 42.4355 30.0793C42.4354 30.0793 42.4356 30.0793 42.4355 30.0793H42.4366C42.4365 30.0793 42.4367 30.0793 42.4366 30.0793C42.4366 30.0793 42.4376 30.0793 42.4377 30.0793C42.4378 30.0793 42.4387 30.0793 42.4387 30.0793C42.4386 30.0793 42.4388 30.0793 42.4387 30.0793H42.4398C42.4399 30.0793 42.4409 30.0793 42.4409 30.0793C42.4408 30.0793 42.441 30.0793 42.4409 30.0793C42.4409 30.0793 42.4419 30.0793 42.442 30.0793H42.4431C42.4432 30.0793 42.4442 30.0793 42.4442 30.0793C42.4441 30.0793 42.4443 30.0793 42.4442 30.0793C42.4442 30.0793 42.4451 30.0793 42.4452 30.0793C42.4452 30.0793 42.4462 30.0793 42.4463 30.0793H42.4474C42.4475 30.0793 42.4485 30.0793 42.4485 30.0793C42.4486 30.0793 42.4496 30.0793 42.4496 30.0793C42.4497 30.0793 42.4507 30.0793 42.4507 30.0793C42.4506 30.0793 42.4508 30.0793 42.4507 30.0793C42.4507 30.0793 42.4517 30.0793 42.4518 30.0793C42.4518 30.0793 42.4528 30.0793 42.4529 30.0793H42.454C42.4541 30.0793 42.455 30.0793 42.455 30.0793C42.4551 30.0793 42.4561 30.0793 42.4561 30.0793C42.456 30.0793 42.4562 30.0793 42.4561 30.0793C42.4561 30.0793 42.4571 30.0793 42.4572 30.0793H42.4583C42.4584 30.0793 42.4594 30.0793 42.4594 30.0793C42.4593 30.0793 42.4595 30.0793 42.4594 30.0793H42.4605C42.4606 30.0793 42.4616 30.0793 42.4616 30.0793C42.4615 30.0793 42.4617 30.0793 42.4616 30.0793H42.4627C42.4626 30.0793 42.4628 30.0793 42.4627 30.0793C42.4627 30.0793 42.4637 30.0793 42.4638 30.0793C42.4639 30.0793 42.4648 30.0793 42.4648 30.0793C42.4647 30.0793 42.4649 30.0793 42.4648 30.0793H42.4659C42.4658 30.0793 42.466 30.0793 42.4659 30.0793H42.467C42.4669 30.0793 42.4671 30.0793 42.467 30.0793H42.4681C42.468 30.0793 42.4682 30.0793 42.4681 30.0793C42.4682 30.0793 42.4692 30.0793 42.4692 30.0793C42.4691 30.0793 42.4693 30.0793 42.4692 30.0793C42.4693 30.0793 42.4703 30.0793 42.4703 30.0793C42.4703 30.0793 42.4713 30.0793 42.4714 30.0793C42.4713 30.0793 42.4715 30.0793 42.4714 30.0793H42.4725C42.4724 30.0793 42.4726 30.0793 42.4725 30.0793C42.4726 30.0793 42.4735 30.0793 42.4736 30.0793C42.4735 30.0793 42.4737 30.0793 42.4736 30.0793H42.4746C42.4746 30.0793 42.4756 30.0793 42.4757 30.0793C42.4756 30.0793 42.4758 30.0793 42.4757 30.0793C42.4758 30.0793 42.4777 30.0793 42.4778 30.0793C42.4777 30.0793 42.4779 30.0793 42.4778 30.0793L42.4784 29.4793ZM42.4279 29.4793C41.0197 29.4545 39.89 28.307 39.89 26.8914H39.29C39.29 28.6338 40.6813 30.0487 42.4172 30.0793L42.4279 29.4793ZM28.2972 25.451C28.2972 23.4352 29.9358 21.7967 31.9515 21.7967V21.1967C29.6044 21.1967 27.6972 23.1039 27.6972 25.451H28.2972ZM31.9515 21.7967C33.9673 21.7967 35.6058 23.4352 35.6058 25.451H36.2058C36.2058 23.1039 34.2987 21.1967 31.9515 21.1967V21.7967ZM35.6058 25.451C35.6058 27.396 34.076 28.9901 32.163 29.0989L32.1971 29.6979C34.4254 29.5712 36.2058 27.7165 36.2058 25.451H35.6058ZM32.1801 29.0984C32.1799 29.0984 32.1789 29.0984 32.1787 29.0984C32.1786 29.0984 32.1775 29.0984 32.1774 29.0984C32.1772 29.0984 32.1762 29.0984 32.176 29.0984C32.1759 29.0984 32.1748 29.0984 32.1747 29.0984C32.1746 29.0984 32.1735 29.0984 32.1734 29.0984C32.1732 29.0984 32.1722 29.0984 32.172 29.0984C32.1719 29.0984 32.1708 29.0984 32.1707 29.0984C32.1705 29.0984 32.1695 29.0984 32.1693 29.0984C32.1691 29.0984 32.1682 29.0984 32.168 29.0984C32.1679 29.0984 32.1668 29.0984 32.1667 29.0984C32.1665 29.0984 32.1655 29.0984 32.1653 29.0984C32.1652 29.0984 32.1641 29.0984 32.164 29.0984C32.1638 29.0984 32.1632 29.0989 32.163 29.0989C32.1629 29.0989 32.1632 29.0989 32.163 29.0989C32.1629 29.0989 32.1619 29.0984 32.1618 29.0984C32.1616 29.0984 32.1606 29.0984 32.1604 29.0984C32.1603 29.0984 32.1592 29.0984 32.1591 29.0984C32.1589 29.0984 32.1579 29.0984 32.1577 29.0984C32.1576 29.0984 32.1565 29.0984 32.1564 29.0984C32.1563 29.0984 32.1552 29.0984 32.1551 29.0984C32.1549 29.0984 32.1539 29.0984 32.1537 29.0984C32.1536 29.0984 32.1525 29.0984 32.1524 29.0984C32.1522 29.0984 32.1512 29.0984 32.151 29.0984C32.1508 29.0984 32.1499 29.0984 32.1497 29.0984C32.1496 29.0984 32.1485 29.0984 32.1484 29.0984C32.1482 29.0984 32.1472 29.0984 32.147 29.0984C32.1469 29.0984 32.1458 29.0984 32.1457 29.0984C32.1455 29.0984 32.1445 29.0984 32.1443 29.0984C32.1441 29.0984 32.1432 29.0984 32.143 29.0984C32.1429 29.0984 32.1418 29.0984 32.1417 29.0984C32.1415 29.0984 32.1405 29.0984 32.1403 29.0984C32.1402 29.0984 32.1391 29.0984 32.139 29.0984C32.1389 29.0984 32.1378 29.0984 32.1377 29.0984C32.1375 29.0984 32.1365 29.0984 32.1363 29.0984C32.1362 29.0984 32.1351 29.0984 32.135 29.0984C32.1348 29.0984 32.1338 29.0984 32.1336 29.0984C32.1335 29.0984 32.1324 29.0984 32.1323 29.0984C32.1322 29.0984 32.1311 29.0984 32.131 29.0984C32.1308 29.0984 32.1298 29.0984 32.1296 29.0984C32.1295 29.0984 32.1284 29.0984 32.1283 29.0984C32.1281 29.0984 32.1271 29.0984 32.1269 29.0984C32.1268 29.0984 32.1257 29.0984 32.1256 29.0984C32.1255 29.0984 32.1244 29.0984 32.1243 29.0984C32.1241 29.0984 32.1231 29.0984 32.1229 29.0984C32.1228 29.0984 32.1217 29.0984 32.1216 29.0984C32.1214 29.0984 32.1204 29.0984 32.1202 29.0984C32.12 29.0984 32.1191 29.0984 32.1189 29.0984C32.1188 29.0984 32.1177 29.0984 32.1176 29.0984C32.1174 29.0984 32.1164 29.0984 32.1162 29.0984C32.1161 29.0984 32.115 29.0984 32.1149 29.0984C32.1147 29.0984 32.1137 29.0984 32.1136 29.0984C32.1134 29.0984 32.1124 29.0984 32.1122 29.0984C32.1121 29.0984 32.111 29.0984 32.1109 29.0984C32.1107 29.0984 32.1097 29.0984 32.1095 29.0984C32.1094 29.0984 32.1083 29.0984 32.1082 29.0984C32.1081 29.0984 32.107 29.0984 32.1069 29.0984C32.1067 29.0984 32.1057 29.0984 32.1055 29.0984C32.1054 29.0984 32.1043 29.0984 32.1042 29.0984C32.104 29.0984 32.103 29.0984 32.1028 29.0984C32.1027 29.0984 32.1016 29.0984 32.1015 29.0984C32.1014 29.0984 32.1003 29.0984 32.1002 29.0984C32.1 29.0984 32.099 29.0984 32.0988 29.0984C32.0987 29.0984 32.0976 29.0984 32.0975 29.0984C32.0973 29.0984 32.0963 29.0984 32.0961 29.0984C32.096 29.0984 32.095 29.0984 32.0948 29.0984C32.0947 29.0984 32.0936 29.0984 32.0935 29.0984C32.0933 29.0984 32.0923 29.0984 32.0921 29.0984C32.092 29.0984 32.0909 29.0984 32.0908 29.0984C32.0906 29.0984 32.0896 29.0984 32.0894 29.0984C32.0892 29.0984 32.0883 29.0984 32.0881 29.0984C32.088 29.0984 32.0869 29.0984 32.0868 29.0984C32.0866 29.0984 32.0856 29.0984 32.0854 29.0984C32.0853 29.0984 32.0842 29.0984 32.0841 29.0984C32.0839 29.0984 32.0829 29.0984 32.0828 29.0984C32.0826 29.0984 32.0816 29.0984 32.0814 29.0984C32.0813 29.0984 32.0802 29.0984 32.0801 29.0984C32.0799 29.0984 32.0789 29.0984 32.0787 29.0984C32.0786 29.0984 32.0775 29.0984 32.0774 29.0984C32.0773 29.0984 32.0762 29.0984 32.0761 29.0984C32.0759 29.0984 32.0749 29.0984 32.0747 29.0984C32.0746 29.0984 32.0735 29.0984 32.0734 29.0984C32.0732 29.0984 32.0722 29.0984 32.072 29.0984C32.0719 29.0984 32.0708 29.0984 32.0707 29.0984C32.0706 29.0984 32.0695 29.0984 32.0694 29.0984C32.0692 29.0984 32.0682 29.0984 32.068 29.0984C32.0679 29.0984 32.0668 29.0984 32.0667 29.0984C32.0665 29.0984 32.0655 29.0984 32.0653 29.0984C32.0651 29.0984 32.0642 29.0984 32.064 29.0984C32.0639 29.0984 32.0628 29.0984 32.0627 29.0984C32.0625 29.0984 32.0615 29.0984 32.0613 29.0984C32.0612 29.0984 32.0601 29.0984 32.06 29.0984C32.0598 29.0984 32.0588 29.0984 32.0586 29.0984C32.0584 29.0984 32.0575 29.0984 32.0573 29.0984C32.0572 29.0984 32.0561 29.0984 32.056 29.0984C32.0558 29.0984 32.0548 29.0984 32.0546 29.0984C32.0545 29.0984 32.0534 29.0984 32.0533 29.0984C32.0532 29.0984 32.0521 29.0984 32.052 29.0984C32.0518 29.0984 32.0508 29.0984 32.0506 29.0984C32.0505 29.0984 32.0494 29.0984 32.0493 29.0984C32.0491 29.0984 32.0481 29.0984 32.0479 29.0984C32.0478 29.0984 32.0467 29.0984 32.0466 29.0984C32.0465 29.0984 32.0454 29.0984 32.0453 29.0984C32.0451 29.0984 32.0441 29.0984 32.0439 29.0984C32.0438 29.0984 32.0427 29.0984 32.0426 29.0984C32.0424 29.0984 32.0414 29.0984 32.0412 29.0984C32.0411 29.0984 32.0401 29.0984 32.0399 29.0984C32.0398 29.0984 32.0387 29.0984 32.0386 29.0984C32.0384 29.0984 32.0374 29.0984 32.0372 29.0984C32.0371 29.0984 32.036 29.0984 32.0359 29.0984C32.0357 29.0984 32.0347 29.0984 32.0345 29.0984C32.0343 29.0984 32.0334 29.0984 32.0332 29.0984C32.0331 29.0984 32.032 29.0984 32.0319 29.0984C32.0317 29.0984 32.0307 29.0984 32.0305 29.0984C32.0304 29.0984 32.0293 29.0984 32.0292 29.0984C32.029 29.0984 32.028 29.0984 32.0279 29.0984C32.0277 29.0984 32.0267 29.0984 32.0265 29.0984C32.0264 29.0984 32.0253 29.0984 32.0252 29.0984C32.025 29.0984 32.024 29.0984 32.0238 29.0984C32.0237 29.0984 32.0226 29.0984 32.0225 29.0984C32.0224 29.0984 32.0213 29.0984 32.0212 29.0984C32.021 29.0984 32.02 29.0984 32.0198 29.0984C32.0197 29.0984 32.0186 29.0984 32.0185 29.0984C32.0183 29.0984 32.0173 29.0984 32.0171 29.0984C32.017 29.0984 32.0159 29.0984 32.0158 29.0984C32.0157 29.0984 32.0146 29.0984 32.0145 29.0984C32.0143 29.0984 32.0133 29.0984 32.0131 29.0984C32.013 29.0984 32.0119 29.0984 32.0118 29.0984C32.0116 29.0984 32.0106 29.0984 32.0104 29.0984C32.0102 29.0984 32.0093 29.0984 32.0091 29.0984C32.009 29.0984 32.0079 29.0984 32.0078 29.0984C32.0076 29.0984 32.0066 29.0984 32.0064 29.0984C32.0063 29.0984 32.0052 29.0984 32.0051 29.0984C32.0049 29.0984 32.0039 29.0984 32.0037 29.0984C32.0035 29.0984 32.0026 29.0984 32.0024 29.0984C32.0023 29.0984 32.0012 29.0984 32.0011 29.0984C32.0009 29.0984 31.9999 29.0984 31.9997 29.0984C31.9996 29.0984 31.9985 29.0984 31.9984 29.0984C31.9983 29.0984 31.9972 29.0984 31.9971 29.0984C31.9969 29.0984 31.9959 29.0984 31.9957 29.0984C31.9956 29.0984 31.9945 29.0984 31.9944 29.0984C31.9942 29.0984 31.9932 29.0984 31.993 29.0984C31.9929 29.0984 31.9918 29.0984 31.9917 29.0984C31.9916 29.0984 31.9905 29.0984 31.9904 29.0984C31.9902 29.0984 31.9892 29.0984 31.989 29.0984C31.9889 29.0984 31.9878 29.0984 31.9877 29.0984C31.9875 29.0984 31.9865 29.0984 31.9863 29.0984C31.9862 29.0984 31.9851 29.0984 31.985 29.0984C31.9849 29.0984 31.9838 29.0984 31.9837 29.0984C31.9835 29.0984 31.9825 29.0984 31.9823 29.0984C31.9822 29.0984 31.9811 29.0984 31.981 29.0984C31.9808 29.0984 31.9798 29.0984 31.9796 29.0984C31.9794 29.0984 31.9785 29.0984 31.9783 29.0984C31.9782 29.0984 31.9771 29.0984 31.977 29.0984C31.9768 29.0984 31.9758 29.0984 31.9756 29.0984C31.9755 29.0984 31.9744 29.0984 31.9743 29.0984C31.9741 29.0984 31.9731 29.0984 31.9729 29.0984C31.9727 29.0984 31.9718 29.0984 31.9716 29.0984C31.9715 29.0984 31.9704 29.0984 31.9703 29.0984C31.9701 29.0984 31.9691 29.0984 31.9689 29.0984C31.9688 29.0984 31.9677 29.0984 31.9676 29.0984C31.9675 29.0984 31.9664 29.0984 31.9663 29.0984C31.9661 29.0984 31.9651 29.0984 31.9649 29.0984C31.9648 29.0984 31.9637 29.0984 31.9636 29.0984C31.9634 29.0984 31.9624 29.0984 31.9622 29.0984C31.9621 29.0984 31.961 29.0984 31.9609 29.0984C31.9608 29.0984 31.9597 29.0984 31.9596 29.0984C31.9594 29.0984 31.9584 29.0984 31.9582 29.0984C31.9581 29.0984 31.957 29.0984 31.9569 29.0984C31.9567 29.0984 31.9557 29.0984 31.9555 29.0984C31.9554 29.0984 31.9544 29.0984 31.9542 29.0984C31.9541 29.0984 31.953 29.0984 31.9529 29.0984C31.9527 29.0984 31.9517 29.0984 31.9515 29.0984V29.6984C31.9517 29.6984 31.9527 29.6984 31.9529 29.6984C31.953 29.6984 31.9541 29.6984 31.9542 29.6984C31.9543 29.6984 31.9554 29.6984 31.9555 29.6984C31.9557 29.6984 31.9567 29.6984 31.9569 29.6984C31.957 29.6984 31.9581 29.6984 31.9582 29.6984C31.9584 29.6984 31.9594 29.6984 31.9596 29.6984C31.9597 29.6984 31.9607 29.6984 31.9609 29.6984C31.961 29.6984 31.9621 29.6984 31.9622 29.6984C31.9624 29.6984 31.9634 29.6984 31.9636 29.6984C31.9637 29.6984 31.9648 29.6984 31.9649 29.6984C31.9651 29.6984 31.9661 29.6984 31.9663 29.6984C31.9665 29.6984 31.9674 29.6984 31.9676 29.6984C31.9677 29.6984 31.9688 29.6984 31.9689 29.6984C31.9691 29.6984 31.9701 29.6984 31.9703 29.6984C31.9704 29.6984 31.9715 29.6984 31.9716 29.6984C31.9718 29.6984 31.9728 29.6984 31.9729 29.6984C31.9731 29.6984 31.9741 29.6984 31.9743 29.6984C31.9744 29.6984 31.9755 29.6984 31.9756 29.6984C31.9758 29.6984 31.9768 29.6984 31.977 29.6984C31.9771 29.6984 31.9782 29.6984 31.9783 29.6984C31.9784 29.6984 31.9795 29.6984 31.9796 29.6984C31.9798 29.6984 31.9808 29.6984 31.981 29.6984C31.9811 29.6984 31.9822 29.6984 31.9823 29.6984C31.9825 29.6984 31.9835 29.6984 31.9837 29.6984C31.9838 29.6984 31.9849 29.6984 31.985 29.6984C31.9851 29.6984 31.9862 29.6984 31.9863 29.6984C31.9865 29.6984 31.9875 29.6984 31.9877 29.6984C31.9878 29.6984 31.9889 29.6984 31.989 29.6984C31.9892 29.6984 31.9902 29.6984 31.9904 29.6984C31.9906 29.6984 31.9915 29.6984 31.9917 29.6984C31.9918 29.6984 31.9929 29.6984 31.993 29.6984C31.9932 29.6984 31.9942 29.6984 31.9944 29.6984C31.9945 29.6984 31.9956 29.6984 31.9957 29.6984C31.9959 29.6984 31.9969 29.6984 31.9971 29.6984C31.9973 29.6984 31.9982 29.6984 31.9984 29.6984C31.9985 29.6984 31.9996 29.6984 31.9997 29.6984C31.9999 29.6984 32.0009 29.6984 32.0011 29.6984C32.0012 29.6984 32.0023 29.6984 32.0024 29.6984C32.0026 29.6984 32.0036 29.6984 32.0037 29.6984C32.0039 29.6984 32.0049 29.6984 32.0051 29.6984C32.0052 29.6984 32.0063 29.6984 32.0064 29.6984C32.0066 29.6984 32.0076 29.6984 32.0078 29.6984C32.0079 29.6984 32.009 29.6984 32.0091 29.6984C32.0092 29.6984 32.0103 29.6984 32.0104 29.6984C32.0106 29.6984 32.0116 29.6984 32.0118 29.6984C32.0119 29.6984 32.013 29.6984 32.0131 29.6984C32.0133 29.6984 32.0143 29.6984 32.0145 29.6984C32.0146 29.6984 32.0156 29.6984 32.0158 29.6984C32.0159 29.6984 32.017 29.6984 32.0171 29.6984C32.0173 29.6984 32.0183 29.6984 32.0185 29.6984C32.0186 29.6984 32.0197 29.6984 32.0198 29.6984C32.02 29.6984 32.021 29.6984 32.0212 29.6984C32.0214 29.6984 32.0223 29.6984 32.0225 29.6984C32.0226 29.6984 32.0237 29.6984 32.0238 29.6984C32.024 29.6984 32.025 29.6984 32.0252 29.6984C32.0253 29.6984 32.0264 29.6984 32.0265 29.6984C32.0267 29.6984 32.0277 29.6984 32.0279 29.6984C32.0281 29.6984 32.029 29.6984 32.0292 29.6984C32.0293 29.6984 32.0304 29.6984 32.0305 29.6984C32.0307 29.6984 32.0317 29.6984 32.0319 29.6984C32.032 29.6984 32.0331 29.6984 32.0332 29.6984C32.0333 29.6984 32.0344 29.6984 32.0345 29.6984C32.0347 29.6984 32.0357 29.6984 32.0359 29.6984C32.036 29.6984 32.0371 29.6984 32.0372 29.6984C32.0374 29.6984 32.0384 29.6984 32.0386 29.6984C32.0387 29.6984 32.0398 29.6984 32.0399 29.6984C32.04 29.6984 32.0411 29.6984 32.0412 29.6984C32.0414 29.6984 32.0424 29.6984 32.0426 29.6984C32.0427 29.6984 32.0438 29.6984 32.0439 29.6984C32.0441 29.6984 32.0451 29.6984 32.0453 29.6984C32.0454 29.6984 32.0464 29.6984 32.0466 29.6984C32.0467 29.6984 32.0478 29.6984 32.0479 29.6984C32.0481 29.6984 32.0491 29.6984 32.0493 29.6984C32.0494 29.6984 32.0505 29.6984 32.0506 29.6984C32.0508 29.6984 32.0518 29.6984 32.052 29.6984C32.0522 29.6984 32.0531 29.6984 32.0533 29.6984C32.0534 29.6984 32.0545 29.6984 32.0546 29.6984C32.0548 29.6984 32.0558 29.6984 32.056 29.6984C32.0561 29.6984 32.0572 29.6984 32.0573 29.6984C32.0575 29.6984 32.0585 29.6984 32.0586 29.6984C32.0588 29.6984 32.0598 29.6984 32.06 29.6984C32.0601 29.6984 32.0612 29.6984 32.0613 29.6984C32.0615 29.6984 32.0625 29.6984 32.0627 29.6984C32.0628 29.6984 32.0639 29.6984 32.064 29.6984C32.0641 29.6984 32.0652 29.6984 32.0653 29.6984C32.0655 29.6984 32.0665 29.6984 32.0667 29.6984C32.0668 29.6984 32.0679 29.6984 32.068 29.6984C32.0682 29.6984 32.0692 29.6984 32.0694 29.6984C32.0695 29.6984 32.0706 29.6984 32.0707 29.6984C32.0708 29.6984 32.0719 29.6984 32.072 29.6984C32.0722 29.6984 32.0732 29.6984 32.0734 29.6984C32.0735 29.6984 32.0746 29.6984 32.0747 29.6984C32.0749 29.6984 32.0759 29.6984 32.0761 29.6984C32.0762 29.6984 32.0772 29.6984 32.0774 29.6984C32.0775 29.6984 32.0786 29.6984 32.0787 29.6984C32.0789 29.6984 32.0799 29.6984 32.0801 29.6984C32.0802 29.6984 32.0813 29.6984 32.0814 29.6984C32.0816 29.6984 32.0826 29.6984 32.0828 29.6984C32.083 29.6984 32.0839 29.6984 32.0841 29.6984C32.0842 29.6984 32.0853 29.6984 32.0854 29.6984C32.0856 29.6984 32.0866 29.6984 32.0868 29.6984C32.0869 29.6984 32.088 29.6984 32.0881 29.6984C32.0882 29.6984 32.0893 29.6984 32.0894 29.6984C32.0896 29.6984 32.0906 29.6984 32.0908 29.6984C32.0909 29.6984 32.092 29.6984 32.0921 29.6984C32.0923 29.6984 32.0933 29.6984 32.0935 29.6984C32.0936 29.6984 32.0947 29.6984 32.0948 29.6984C32.0949 29.6984 32.096 29.6984 32.0961 29.6984C32.0963 29.6984 32.0973 29.6984 32.0975 29.6984C32.0976 29.6984 32.0987 29.6984 32.0988 29.6984C32.099 29.6984 32.1 29.6984 32.1002 29.6984C32.1003 29.6984 32.1014 29.6984 32.1015 29.6984C32.1016 29.6984 32.1027 29.6984 32.1028 29.6984C32.103 29.6984 32.104 29.6984 32.1042 29.6984C32.1043 29.6984 32.1054 29.6984 32.1055 29.6984C32.1057 29.6984 32.1067 29.6984 32.1069 29.6984C32.1071 29.6984 32.108 29.6984 32.1082 29.6984C32.1083 29.6984 32.1094 29.6984 32.1095 29.6984C32.1097 29.6984 32.1107 29.6984 32.1109 29.6984C32.111 29.6984 32.1121 29.6984 32.1122 29.6984C32.1124 29.6984 32.1134 29.6984 32.1136 29.6984C32.1138 29.6984 32.1147 29.6984 32.1149 29.6984C32.115 29.6984 32.1161 29.6984 32.1162 29.6984C32.1164 29.6984 32.1174 29.6984 32.1176 29.6984C32.1177 29.6984 32.1188 29.6984 32.1189 29.6984C32.119 29.6984 32.1201 29.6984 32.1202 29.6984C32.1204 29.6984 32.1214 29.6984 32.1216 29.6984C32.1217 29.6984 32.1228 29.6984 32.1229 29.6984C32.1231 29.6984 32.1241 29.6984 32.1243 29.6984C32.1244 29.6984 32.1255 29.6984 32.1256 29.6984C32.1257 29.6984 32.1268 29.6984 32.1269 29.6984C32.1271 29.6984 32.1281 29.6984 32.1283 29.6984C32.1284 29.6984 32.1295 29.6984 32.1296 29.6984C32.1298 29.6984 32.1308 29.6984 32.131 29.6984C32.1311 29.6984 32.1321 29.6984 32.1323 29.6984C32.1324 29.6984 32.1335 29.6984 32.1336 29.6984C32.1338 29.6984 32.1348 29.6984 32.135 29.6984C32.1351 29.6984 32.1362 29.6984 32.1363 29.6984C32.1365 29.6984 32.1375 29.6984 32.1377 29.6984C32.1379 29.6984 32.1388 29.6984 32.139 29.6984C32.1391 29.6984 32.1402 29.6984 32.1403 29.6984C32.1405 29.6984 32.1415 29.6984 32.1417 29.6984C32.1418 29.6984 32.1429 29.6984 32.143 29.6984C32.1432 29.6984 32.1442 29.6984 32.1443 29.6984C32.1445 29.6984 32.1455 29.6984 32.1457 29.6984C32.1458 29.6984 32.1469 29.6984 32.147 29.6984C32.1472 29.6984 32.1482 29.6984 32.1484 29.6984C32.1485 29.6984 32.1496 29.6984 32.1497 29.6984C32.1498 29.6984 32.1509 29.6984 32.151 29.6984C32.1512 29.6984 32.1522 29.6984 32.1524 29.6984C32.1525 29.6984 32.1536 29.6984 32.1537 29.6984C32.1539 29.6984 32.1549 29.6984 32.1551 29.6984C32.1552 29.6984 32.1563 29.6984 32.1564 29.6984C32.1565 29.6984 32.1576 29.6984 32.1577 29.6984C32.1579 29.6984 32.1589 29.6984 32.1591 29.6984C32.1592 29.6984 32.1603 29.6984 32.1604 29.6984C32.1606 29.6984 32.1616 29.6984 32.1618 29.6984C32.162 29.6984 32.1629 29.6984 32.1631 29.6984C32.1632 29.6984 32.1643 29.6984 32.1644 29.6984C32.1646 29.6984 32.1656 29.6984 32.1658 29.6984C32.1659 29.6984 32.167 29.6984 32.1671 29.6984C32.1673 29.6984 32.1683 29.6984 32.1685 29.6984C32.1687 29.6984 32.1696 29.6984 32.1698 29.6984C32.1699 29.6984 32.171 29.6984 32.1711 29.6984C32.1713 29.6984 32.1723 29.6984 32.1725 29.6984C32.1726 29.6984 32.1737 29.6984 32.1738 29.6984C32.1739 29.6984 32.175 29.6984 32.1751 29.6984C32.1753 29.6984 32.1763 29.6984 32.1765 29.6984C32.1766 29.6984 32.1777 29.6984 32.1778 29.6984C32.178 29.6984 32.1799 29.6984 32.1801 29.6984V29.0984ZM31.9515 29.0984C31.9514 29.0984 31.9503 29.0984 31.9502 29.0984C31.95 29.0984 31.949 29.0984 31.9488 29.0984C31.9486 29.0984 31.9477 29.0984 31.9475 29.0984C31.9474 29.0984 31.9463 29.0984 31.9462 29.0984C31.946 29.0984 31.945 29.0984 31.9448 29.0984C31.9447 29.0984 31.9436 29.0984 31.9435 29.0984C31.9433 29.0984 31.9423 29.0984 31.9422 29.0984C31.942 29.0984 31.941 29.0984 31.9408 29.0984C31.9407 29.0984 31.9396 29.0984 31.9395 29.0984C31.9393 29.0984 31.9383 29.0984 31.9381 29.0984C31.938 29.0984 31.9369 29.0984 31.9368 29.0984C31.9367 29.0984 31.9356 29.0984 31.9355 29.0984C31.9353 29.0984 31.9343 29.0984 31.9341 29.0984C31.934 29.0984 31.9329 29.0984 31.9328 29.0984C31.9326 29.0984 31.9316 29.0984 31.9314 29.0984C31.9313 29.0984 31.9302 29.0984 31.9301 29.0984C31.93 29.0984 31.9289 29.0984 31.9288 29.0984C31.9286 29.0984 31.9276 29.0984 31.9274 29.0984C31.9273 29.0984 31.9262 29.0984 31.9261 29.0984C31.9259 29.0984 31.9249 29.0984 31.9247 29.0984C31.9245 29.0984 31.9236 29.0984 31.9234 29.0984C31.9233 29.0984 31.9222 29.0984 31.9221 29.0984C31.9219 29.0984 31.9209 29.0984 31.9207 29.0984C31.9206 29.0984 31.9195 29.0984 31.9194 29.0984C31.9192 29.0984 31.9182 29.0984 31.918 29.0984C31.9178 29.0984 31.9169 29.0984 31.9167 29.0984C31.9166 29.0984 31.9155 29.0984 31.9154 29.0984C31.9152 29.0984 31.9142 29.0984 31.914 29.0984C31.9139 29.0984 31.9128 29.0984 31.9127 29.0984C31.9125 29.0984 31.9115 29.0984 31.9114 29.0984C31.9112 29.0984 31.9102 29.0984 31.91 29.0984C31.9099 29.0984 31.9088 29.0984 31.9087 29.0984C31.9085 29.0984 31.9075 29.0984 31.9073 29.0984C31.9072 29.0984 31.9061 29.0984 31.906 29.0984C31.9059 29.0984 31.9048 29.0984 31.9047 29.0984C31.9045 29.0984 31.9035 29.0984 31.9033 29.0984C31.9032 29.0984 31.9021 29.0984 31.902 29.0984C31.9018 29.0984 31.9008 29.0984 31.9006 29.0984C31.9005 29.0984 31.8995 29.0984 31.8993 29.0984C31.8992 29.0984 31.8981 29.0984 31.898 29.0984C31.8978 29.0984 31.8968 29.0984 31.8966 29.0984C31.8965 29.0984 31.8954 29.0984 31.8953 29.0984C31.8951 29.0984 31.8941 29.0984 31.8939 29.0984C31.8937 29.0984 31.8928 29.0984 31.8926 29.0984C31.8925 29.0984 31.8914 29.0984 31.8913 29.0984C31.8911 29.0984 31.8901 29.0984 31.8899 29.0984C31.8898 29.0984 31.8887 29.0984 31.8886 29.0984C31.8884 29.0984 31.8874 29.0984 31.8872 29.0984C31.887 29.0984 31.8861 29.0984 31.8859 29.0984C31.8858 29.0984 31.8847 29.0984 31.8846 29.0984C31.8844 29.0984 31.8834 29.0984 31.8832 29.0984C31.8831 29.0984 31.882 29.0984 31.8819 29.0984C31.8818 29.0984 31.8807 29.0984 31.8806 29.0984C31.8804 29.0984 31.8794 29.0984 31.8792 29.0984C31.8791 29.0984 31.878 29.0984 31.8779 29.0984C31.8777 29.0984 31.8767 29.0984 31.8765 29.0984C31.8764 29.0984 31.8753 29.0984 31.8752 29.0984C31.8751 29.0984 31.874 29.0984 31.8739 29.0984C31.8737 29.0984 31.8727 29.0984 31.8725 29.0984C31.8724 29.0984 31.8713 29.0984 31.8712 29.0984C31.871 29.0984 31.87 29.0984 31.8698 29.0984C31.8697 29.0984 31.8687 29.0984 31.8685 29.0984C31.8684 29.0984 31.8673 29.0984 31.8672 29.0984C31.867 29.0984 31.866 29.0984 31.8658 29.0984C31.8657 29.0984 31.8646 29.0984 31.8645 29.0984C31.8643 29.0984 31.8633 29.0984 31.8631 29.0984C31.8629 29.0984 31.862 29.0984 31.8618 29.0984C31.8617 29.0984 31.8606 29.0984 31.8605 29.0984C31.8603 29.0984 31.8593 29.0984 31.8591 29.0984C31.859 29.0984 31.8579 29.0984 31.8578 29.0984C31.8576 29.0984 31.8566 29.0984 31.8565 29.0984C31.8563 29.0984 31.8553 29.0984 31.8551 29.0984C31.855 29.0984 31.8539 29.0984 31.8538 29.0984C31.8536 29.0984 31.8526 29.0984 31.8524 29.0984C31.8523 29.0984 31.8512 29.0984 31.8511 29.0984C31.851 29.0984 31.8499 29.0984 31.8498 29.0984C31.8496 29.0984 31.8486 29.0984 31.8484 29.0984C31.8483 29.0984 31.8472 29.0984 31.8471 29.0984C31.8469 29.0984 31.8459 29.0984 31.8457 29.0984C31.8456 29.0984 31.8445 29.0984 31.8444 29.0984C31.8443 29.0984 31.8432 29.0984 31.8431 29.0984C31.8429 29.0984 31.8419 29.0984 31.8417 29.0984C31.8416 29.0984 31.8405 29.0984 31.8404 29.0984C31.8402 29.0984 31.8392 29.0984 31.839 29.0984C31.8388 29.0984 31.8379 29.0984 31.8377 29.0984C31.8376 29.0984 31.8365 29.0984 31.8364 29.0984C31.8362 29.0984 31.8352 29.0984 31.835 29.0984C31.8349 29.0984 31.8338 29.0984 31.8337 29.0984C31.8335 29.0984 31.8325 29.0984 31.8323 29.0984C31.8321 29.0984 31.8312 29.0984 31.831 29.0984C31.8309 29.0984 31.8298 29.0984 31.8297 29.0984C31.8295 29.0984 31.8285 29.0984 31.8283 29.0984C31.8282 29.0984 31.8271 29.0984 31.827 29.0984C31.8269 29.0984 31.8258 29.0984 31.8257 29.0984C31.8255 29.0984 31.8245 29.0984 31.8243 29.0984C31.8242 29.0984 31.8231 29.0984 31.823 29.0984C31.8228 29.0984 31.8218 29.0984 31.8216 29.0984C31.8215 29.0984 31.8204 29.0984 31.8203 29.0984C31.8202 29.0984 31.8191 29.0984 31.819 29.0984C31.8188 29.0984 31.8178 29.0984 31.8176 29.0984C31.8175 29.0984 31.8164 29.0984 31.8163 29.0984C31.8161 29.0984 31.8151 29.0984 31.8149 29.0984C31.8148 29.0984 31.8138 29.0984 31.8136 29.0984C31.8135 29.0984 31.8124 29.0984 31.8123 29.0984C31.8121 29.0984 31.8111 29.0984 31.8109 29.0984C31.8108 29.0984 31.8097 29.0984 31.8096 29.0984C31.8094 29.0984 31.8084 29.0984 31.8082 29.0984C31.808 29.0984 31.8071 29.0984 31.8069 29.0984C31.8068 29.0984 31.8057 29.0984 31.8056 29.0984C31.8054 29.0984 31.8044 29.0984 31.8042 29.0984C31.8041 29.0984 31.803 29.0984 31.8029 29.0984C31.8027 29.0984 31.8017 29.0984 31.8015 29.0984C31.8013 29.0984 31.8004 29.0984 31.8002 29.0984C31.8001 29.0984 31.799 29.0984 31.7989 29.0984C31.7987 29.0984 31.7977 29.0984 31.7975 29.0984C31.7974 29.0984 31.7963 29.0984 31.7962 29.0984C31.7961 29.0984 31.795 29.0984 31.7949 29.0984C31.7947 29.0984 31.7937 29.0984 31.7935 29.0984C31.7934 29.0984 31.7923 29.0984 31.7922 29.0984C31.792 29.0984 31.791 29.0984 31.7908 29.0984C31.7907 29.0984 31.7896 29.0984 31.7895 29.0984C31.7894 29.0984 31.7883 29.0984 31.7882 29.0984C31.788 29.0984 31.787 29.0984 31.7868 29.0984C31.7867 29.0984 31.7856 29.0984 31.7855 29.0984C31.7853 29.0984 31.7843 29.0984 31.7841 29.0984C31.784 29.0984 31.783 29.0984 31.7828 29.0984C31.7827 29.0984 31.7816 29.0984 31.7815 29.0984C31.7813 29.0984 31.7803 29.0984 31.7801 29.0984C31.78 29.0984 31.7789 29.0984 31.7788 29.0984C31.7786 29.0984 31.7776 29.0984 31.7774 29.0984C31.7772 29.0984 31.7763 29.0984 31.7761 29.0984C31.776 29.0984 31.7749 29.0984 31.7748 29.0984C31.7746 29.0984 31.7736 29.0984 31.7734 29.0984C31.7733 29.0984 31.7722 29.0984 31.7721 29.0984C31.7719 29.0984 31.7709 29.0984 31.7708 29.0984C31.7706 29.0984 31.7696 29.0984 31.7694 29.0984C31.7693 29.0984 31.7682 29.0984 31.7681 29.0984C31.7679 29.0984 31.7669 29.0984 31.7667 29.0984C31.7666 29.0984 31.7655 29.0984 31.7654 29.0984C31.7653 29.0984 31.7642 29.0984 31.7641 29.0984C31.7639 29.0984 31.7629 29.0984 31.7627 29.0984C31.7626 29.0984 31.7615 29.0984 31.7614 29.0984C31.7612 29.0984 31.7602 29.0984 31.76 29.0984C31.7599 29.0984 31.7589 29.0984 31.7587 29.0984C31.7586 29.0984 31.7575 29.0984 31.7574 29.0984C31.7572 29.0984 31.7562 29.0984 31.756 29.0984C31.7559 29.0984 31.7548 29.0984 31.7547 29.0984C31.7545 29.0984 31.7535 29.0984 31.7533 29.0984C31.7531 29.0984 31.7522 29.0984 31.752 29.0984C31.7519 29.0984 31.7508 29.0984 31.7507 29.0984C31.7505 29.0984 31.7495 29.0984 31.7493 29.0984C31.7492 29.0984 31.7481 29.0984 31.748 29.0984C31.7478 29.0984 31.7468 29.0984 31.7466 29.0984C31.7464 29.0984 31.7455 29.0984 31.7453 29.0984C31.7452 29.0984 31.7441 29.0984 31.744 29.0984C31.7438 29.0984 31.7428 29.0984 31.7426 29.0984C31.7425 29.0984 31.7414 29.0984 31.7413 29.0984C31.7412 29.0984 31.7401 29.0984 31.74 29.0984C31.7398 29.0984 31.7388 29.0984 31.7386 29.0984C31.7385 29.0984 31.7374 29.0984 31.7373 29.0984C31.7371 29.0984 31.7361 29.0984 31.7359 29.0984C31.7358 29.0984 31.7347 29.0984 31.7346 29.0984C31.7345 29.0984 31.7334 29.0984 31.7333 29.0984C31.7331 29.0984 31.7321 29.0984 31.7319 29.0984C31.7318 29.0984 31.7307 29.0984 31.7306 29.0984C31.7304 29.0984 31.7294 29.0984 31.7292 29.0984C31.7291 29.0984 31.7281 29.0984 31.7279 29.0984C31.7278 29.0984 31.7267 29.0984 31.7266 29.0984C31.7264 29.0984 31.7254 29.0984 31.7252 29.0984C31.7251 29.0984 31.724 29.0984 31.7239 29.0984L31.723 29.6984C31.7231 29.6984 31.7242 29.6984 31.7243 29.6984C31.7245 29.6984 31.7255 29.6984 31.7257 29.6984C31.7258 29.6984 31.7269 29.6984 31.727 29.6984C31.7272 29.6984 31.7282 29.6984 31.7283 29.6984C31.7285 29.6984 31.7295 29.6984 31.7297 29.6984C31.7298 29.6984 31.7309 29.6984 31.731 29.6984C31.7312 29.6984 31.7322 29.6984 31.7324 29.6984C31.7325 29.6984 31.7336 29.6984 31.7337 29.6984C31.7338 29.6984 31.7349 29.6984 31.735 29.6984C31.7352 29.6984 31.7362 29.6984 31.7364 29.6984C31.7365 29.6984 31.7376 29.6984 31.7377 29.6984C31.7379 29.6984 31.7389 29.6984 31.7391 29.6984C31.7392 29.6984 31.7403 29.6984 31.7404 29.6984C31.7405 29.6984 31.7416 29.6984 31.7417 29.6984C31.7419 29.6984 31.7429 29.6984 31.7431 29.6984C31.7432 29.6984 31.7443 29.6984 31.7444 29.6984C31.7446 29.6984 31.7456 29.6984 31.7458 29.6984C31.746 29.6984 31.7469 29.6984 31.7471 29.6984C31.7472 29.6984 31.7483 29.6984 31.7484 29.6984C31.7486 29.6984 31.7496 29.6984 31.7498 29.6984C31.7499 29.6984 31.751 29.6984 31.7511 29.6984C31.7513 29.6984 31.7523 29.6984 31.7525 29.6984C31.7527 29.6984 31.7536 29.6984 31.7538 29.6984C31.7539 29.6984 31.755 29.6984 31.7551 29.6984C31.7553 29.6984 31.7563 29.6984 31.7565 29.6984C31.7566 29.6984 31.7577 29.6984 31.7578 29.6984C31.758 29.6984 31.759 29.6984 31.7591 29.6984C31.7593 29.6984 31.7603 29.6984 31.7605 29.6984C31.7606 29.6984 31.7617 29.6984 31.7618 29.6984C31.762 29.6984 31.763 29.6984 31.7632 29.6984C31.7633 29.6984 31.7644 29.6984 31.7645 29.6984C31.7646 29.6984 31.7657 29.6984 31.7658 29.6984C31.766 29.6984 31.767 29.6984 31.7672 29.6984C31.7673 29.6984 31.7684 29.6984 31.7685 29.6984C31.7687 29.6984 31.7697 29.6984 31.7699 29.6984C31.77 29.6984 31.771 29.6984 31.7712 29.6984C31.7713 29.6984 31.7724 29.6984 31.7725 29.6984C31.7727 29.6984 31.7737 29.6984 31.7739 29.6984C31.774 29.6984 31.7751 29.6984 31.7752 29.6984C31.7754 29.6984 31.7764 29.6984 31.7766 29.6984C31.7768 29.6984 31.7777 29.6984 31.7779 29.6984C31.778 29.6984 31.7791 29.6984 31.7792 29.6984C31.7794 29.6984 31.7804 29.6984 31.7806 29.6984C31.7807 29.6984 31.7818 29.6984 31.7819 29.6984C31.7821 29.6984 31.7831 29.6984 31.7832 29.6984C31.7834 29.6984 31.7844 29.6984 31.7846 29.6984C31.7847 29.6984 31.7858 29.6984 31.7859 29.6984C31.7861 29.6984 31.7871 29.6984 31.7873 29.6984C31.7874 29.6984 31.7885 29.6984 31.7886 29.6984C31.7887 29.6984 31.7898 29.6984 31.7899 29.6984C31.7901 29.6984 31.7911 29.6984 31.7913 29.6984C31.7914 29.6984 31.7925 29.6984 31.7926 29.6984C31.7928 29.6984 31.7938 29.6984 31.794 29.6984C31.7941 29.6984 31.7952 29.6984 31.7953 29.6984C31.7954 29.6984 31.7965 29.6984 31.7966 29.6984C31.7968 29.6984 31.7978 29.6984 31.798 29.6984C31.7981 29.6984 31.7992 29.6984 31.7993 29.6984C31.7995 29.6984 31.8005 29.6984 31.8007 29.6984C31.8009 29.6984 31.8018 29.6984 31.802 29.6984C31.8021 29.6984 31.8032 29.6984 31.8033 29.6984C31.8035 29.6984 31.8045 29.6984 31.8047 29.6984C31.8048 29.6984 31.8059 29.6984 31.806 29.6984C31.8062 29.6984 31.8072 29.6984 31.8074 29.6984C31.8076 29.6984 31.8085 29.6984 31.8087 29.6984C31.8088 29.6984 31.8099 29.6984 31.81 29.6984C31.8102 29.6984 31.8112 29.6984 31.8114 29.6984C31.8115 29.6984 31.8126 29.6984 31.8127 29.6984C31.8129 29.6984 31.8139 29.6984 31.814 29.6984C31.8142 29.6984 31.8152 29.6984 31.8154 29.6984C31.8155 29.6984 31.8166 29.6984 31.8167 29.6984C31.8169 29.6984 31.8179 29.6984 31.8181 29.6984C31.8182 29.6984 31.8193 29.6984 31.8194 29.6984C31.8195 29.6984 31.8206 29.6984 31.8207 29.6984C31.8209 29.6984 31.8219 29.6984 31.8221 29.6984C31.8222 29.6984 31.8233 29.6984 31.8234 29.6984C31.8236 29.6984 31.8246 29.6984 31.8248 29.6984C31.8249 29.6984 31.826 29.6984 31.8261 29.6984C31.8262 29.6984 31.8273 29.6984 31.8274 29.6984C31.8276 29.6984 31.8286 29.6984 31.8288 29.6984C31.8289 29.6984 31.83 29.6984 31.8301 29.6984C31.8303 29.6984 31.8313 29.6984 31.8315 29.6984C31.8317 29.6984 31.8326 29.6984 31.8328 29.6984C31.8329 29.6984 31.834 29.6984 31.8341 29.6984C31.8343 29.6984 31.8353 29.6984 31.8355 29.6984C31.8356 29.6984 31.8367 29.6984 31.8368 29.6984C31.837 29.6984 31.838 29.6984 31.8382 29.6984C31.8384 29.6984 31.8393 29.6984 31.8395 29.6984C31.8396 29.6984 31.8407 29.6984 31.8408 29.6984C31.841 29.6984 31.842 29.6984 31.8422 29.6984C31.8423 29.6984 31.8434 29.6984 31.8435 29.6984C31.8436 29.6984 31.8447 29.6984 31.8448 29.6984C31.845 29.6984 31.846 29.6984 31.8462 29.6984C31.8463 29.6984 31.8474 29.6984 31.8475 29.6984C31.8477 29.6984 31.8487 29.6984 31.8489 29.6984C31.849 29.6984 31.8501 29.6984 31.8502 29.6984C31.8503 29.6984 31.8514 29.6984 31.8515 29.6984C31.8517 29.6984 31.8527 29.6984 31.8529 29.6984C31.853 29.6984 31.8541 29.6984 31.8542 29.6984C31.8544 29.6984 31.8554 29.6984 31.8556 29.6984C31.8557 29.6984 31.8567 29.6984 31.8569 29.6984C31.857 29.6984 31.8581 29.6984 31.8582 29.6984C31.8584 29.6984 31.8594 29.6984 31.8596 29.6984C31.8597 29.6984 31.8608 29.6984 31.8609 29.6984C31.8611 29.6984 31.8621 29.6984 31.8623 29.6984C31.8625 29.6984 31.8634 29.6984 31.8636 29.6984C31.8637 29.6984 31.8648 29.6984 31.8649 29.6984C31.8651 29.6984 31.8661 29.6984 31.8663 29.6984C31.8664 29.6984 31.8675 29.6984 31.8676 29.6984C31.8678 29.6984 31.8688 29.6984 31.8689 29.6984C31.8691 29.6984 31.8701 29.6984 31.8703 29.6984C31.8704 29.6984 31.8715 29.6984 31.8716 29.6984C31.8718 29.6984 31.8728 29.6984 31.873 29.6984C31.8731 29.6984 31.8742 29.6984 31.8743 29.6984C31.8744 29.6984 31.8755 29.6984 31.8756 29.6984C31.8758 29.6984 31.8768 29.6984 31.877 29.6984C31.8771 29.6984 31.8782 29.6984 31.8783 29.6984C31.8785 29.6984 31.8795 29.6984 31.8797 29.6984C31.8798 29.6984 31.8809 29.6984 31.881 29.6984C31.8811 29.6984 31.8822 29.6984 31.8823 29.6984C31.8825 29.6984 31.8835 29.6984 31.8837 29.6984C31.8838 29.6984 31.8849 29.6984 31.885 29.6984C31.8852 29.6984 31.8862 29.6984 31.8864 29.6984C31.8866 29.6984 31.8875 29.6984 31.8877 29.6984C31.8878 29.6984 31.8889 29.6984 31.889 29.6984C31.8892 29.6984 31.8902 29.6984 31.8904 29.6984C31.8905 29.6984 31.8916 29.6984 31.8917 29.6984C31.8919 29.6984 31.8929 29.6984 31.8931 29.6984C31.8933 29.6984 31.8942 29.6984 31.8944 29.6984C31.8945 29.6984 31.8956 29.6984 31.8957 29.6984C31.8959 29.6984 31.8969 29.6984 31.8971 29.6984C31.8972 29.6984 31.8983 29.6984 31.8984 29.6984C31.8986 29.6984 31.8996 29.6984 31.8997 29.6984C31.8999 29.6984 31.9009 29.6984 31.9011 29.6984C31.9012 29.6984 31.9023 29.6984 31.9024 29.6984C31.9026 29.6984 31.9036 29.6984 31.9038 29.6984C31.9039 29.6984 31.905 29.6984 31.9051 29.6984C31.9052 29.6984 31.9063 29.6984 31.9064 29.6984C31.9066 29.6984 31.9076 29.6984 31.9078 29.6984C31.9079 29.6984 31.909 29.6984 31.9091 29.6984C31.9093 29.6984 31.9103 29.6984 31.9105 29.6984C31.9106 29.6984 31.9116 29.6984 31.9118 29.6984C31.9119 29.6984 31.913 29.6984 31.9131 29.6984C31.9133 29.6984 31.9143 29.6984 31.9145 29.6984C31.9146 29.6984 31.9157 29.6984 31.9158 29.6984C31.916 29.6984 31.917 29.6984 31.9172 29.6984C31.9174 29.6984 31.9183 29.6984 31.9185 29.6984C31.9186 29.6984 31.9197 29.6984 31.9198 29.6984C31.92 29.6984 31.921 29.6984 31.9212 29.6984C31.9213 29.6984 31.9224 29.6984 31.9225 29.6984C31.9227 29.6984 31.9237 29.6984 31.9239 29.6984C31.9241 29.6984 31.925 29.6984 31.9252 29.6984C31.9253 29.6984 31.9264 29.6984 31.9265 29.6984C31.9267 29.6984 31.9277 29.6984 31.9279 29.6984C31.928 29.6984 31.9291 29.6984 31.9292 29.6984C31.9293 29.6984 31.9304 29.6984 31.9305 29.6984C31.9307 29.6984 31.9317 29.6984 31.9319 29.6984C31.932 29.6984 31.9331 29.6984 31.9332 29.6984C31.9334 29.6984 31.9344 29.6984 31.9346 29.6984C31.9347 29.6984 31.9358 29.6984 31.9359 29.6984C31.936 29.6984 31.9371 29.6984 31.9372 29.6984C31.9374 29.6984 31.9384 29.6984 31.9386 29.6984C31.9387 29.6984 31.9398 29.6984 31.9399 29.6984C31.9401 29.6984 31.9411 29.6984 31.9413 29.6984C31.9414 29.6984 31.9424 29.6984 31.9426 29.6984C31.9427 29.6984 31.9438 29.6984 31.9439 29.6984C31.9441 29.6984 31.9451 29.6984 31.9453 29.6984C31.9454 29.6984 31.9465 29.6984 31.9466 29.6984C31.9468 29.6984 31.9478 29.6984 31.948 29.6984C31.9482 29.6984 31.9491 29.6984 31.9493 29.6984C31.9494 29.6984 31.9514 29.6984 31.9515 29.6984V29.0984ZM31.74 29.0984C29.827 28.9896 28.2972 27.396 28.2972 25.451H27.6972C27.6972 27.7165 29.4777 29.5712 31.706 29.6979L31.74 29.0984ZM18.9066 26.8914C18.9066 25.4643 20.0673 24.3036 21.4945 24.3036V23.7036C19.736 23.7036 18.3066 25.133 18.3066 26.8914H18.9066ZM21.4945 24.3036C22.9216 24.3036 24.0823 25.4643 24.0823 26.8914H24.6823C24.6823 25.133 23.2529 23.7036 21.4945 23.7036V24.3036ZM24.0823 26.8914C24.0823 28.2989 22.9468 29.4483 21.5432 29.4793L21.5565 30.0792C23.2832 30.041 24.6823 28.6281 24.6823 26.8914H24.0823ZM21.5499 29.4793H21.5488H21.5477C21.5476 29.4793 21.5478 29.4793 21.5477 29.4793C21.5476 29.4793 21.5468 29.4793 21.5467 29.4793C21.5466 29.4793 21.5468 29.4793 21.5467 29.4793H21.5456C21.5455 29.4793 21.5457 29.4793 21.5456 29.4793C21.5455 29.4793 21.5446 29.4793 21.5445 29.4793C21.5444 29.4793 21.5446 29.4793 21.5445 29.4793H21.5432C21.5431 29.4793 21.5433 29.4793 21.5432 29.4793C21.5431 29.4793 21.5422 29.4793 21.5421 29.4793C21.542 29.4793 21.5422 29.4793 21.5421 29.4793C21.5421 29.4793 21.5412 29.4793 21.5411 29.4793C21.541 29.4793 21.5412 29.4793 21.5411 29.4793C21.5411 29.4793 21.5401 29.4793 21.54 29.4793C21.5399 29.4793 21.5401 29.4793 21.54 29.4793C21.54 29.4793 21.5391 29.4793 21.539 29.4793C21.5389 29.4793 21.538 29.4793 21.5379 29.4793C21.5378 29.4793 21.5369 29.4793 21.5369 29.4793C21.5368 29.4793 21.537 29.4793 21.5369 29.4793H21.5358C21.5357 29.4793 21.5359 29.4793 21.5358 29.4793C21.5358 29.4793 21.5349 29.4793 21.5348 29.4793C21.5347 29.4793 21.5337 29.4793 21.5337 29.4793C21.5336 29.4793 21.5338 29.4793 21.5337 29.4793C21.5337 29.4793 21.5328 29.4793 21.5327 29.4793C21.5326 29.4793 21.5316 29.4793 21.5316 29.4793C21.5315 29.4793 21.5317 29.4793 21.5316 29.4793C21.5316 29.4793 21.5307 29.4793 21.5306 29.4793H21.5295C21.5294 29.4793 21.5284 29.4793 21.5284 29.4793C21.5283 29.4793 21.5274 29.4793 21.5273 29.4793C21.5273 29.4793 21.5263 29.4793 21.5262 29.4793H21.5251H21.5241C21.524 29.4793 21.523 29.4793 21.523 29.4793C21.5229 29.4793 21.522 29.4793 21.522 29.4793C21.5219 29.4793 21.5221 29.4793 21.522 29.4793C21.522 29.4793 21.521 29.4793 21.5209 29.4793C21.5209 29.4793 21.52 29.4793 21.5199 29.4793H21.5188H21.5178C21.5177 29.4793 21.5167 29.4793 21.5167 29.4793C21.5166 29.4793 21.5168 29.4793 21.5167 29.4793C21.5167 29.4793 21.5158 29.4793 21.5157 29.4793H21.5146C21.5145 29.4793 21.5136 29.4793 21.5136 29.4793C21.5135 29.4793 21.5137 29.4793 21.5136 29.4793C21.5136 29.4793 21.5126 29.4793 21.5125 29.4793H21.5115C21.5114 29.4793 21.5116 29.4793 21.5115 29.4793C21.5115 29.4793 21.5105 29.4793 21.5104 29.4793H21.5094C21.5093 29.4793 21.5095 29.4793 21.5094 29.4793C21.5094 29.4793 21.5084 29.4793 21.5083 29.4793C21.5082 29.4793 21.5073 29.4793 21.5072 29.4793C21.5071 29.4793 21.5061 29.4793 21.5061 29.4793C21.506 29.4793 21.5062 29.4793 21.5061 29.4793C21.506 29.4793 21.505 29.4793 21.505 29.4793C21.5049 29.4793 21.5051 29.4793 21.505 29.4793C21.5049 29.4793 21.5039 29.4793 21.5039 29.4793C21.5038 29.4793 21.504 29.4793 21.5039 29.4793C21.5038 29.4793 21.5029 29.4793 21.5029 29.4793C21.5028 29.4793 21.503 29.4793 21.5029 29.4793C21.5028 29.4793 21.5019 29.4793 21.5018 29.4793C21.5017 29.4793 21.5019 29.4793 21.5018 29.4793C21.5018 29.4793 21.5009 29.4793 21.5008 29.4793C21.5007 29.4793 21.5009 29.4793 21.5008 29.4793C21.5007 29.4793 21.4997 29.4793 21.4997 29.4793C21.4996 29.4793 21.4998 29.4793 21.4997 29.4793C21.4996 29.4793 21.4988 29.4793 21.4987 29.4793C21.4986 29.4793 21.4988 29.4793 21.4987 29.4793H21.4976C21.4976 29.4793 21.4967 29.4793 21.4966 29.4793C21.4965 29.4793 21.4967 29.4793 21.4966 29.4793C21.4965 29.4793 21.4956 29.4793 21.4955 29.4793C21.4954 29.4793 21.4956 29.4793 21.4955 29.4793C21.4954 29.4793 21.4945 29.4793 21.4945 29.4793V30.0793C21.4944 30.0793 21.4946 30.0793 21.4945 30.0793C21.4946 30.0793 21.4955 30.0793 21.4955 30.0793H21.4966C21.4966 30.0793 21.4975 30.0793 21.4976 30.0793C21.4975 30.0793 21.4977 30.0793 21.4976 30.0793C21.4977 30.0793 21.4987 30.0793 21.4987 30.0793C21.4987 30.0793 21.4996 30.0793 21.4997 30.0793C21.4996 30.0793 21.4998 30.0793 21.4997 30.0793H21.5008C21.5007 30.0793 21.5009 30.0793 21.5008 30.0793C21.5009 30.0793 21.5018 30.0793 21.5018 30.0793C21.5017 30.0793 21.5019 30.0793 21.5018 30.0793C21.5019 30.0793 21.5028 30.0793 21.5029 30.0793C21.503 30.0793 21.5038 30.0793 21.5039 30.0793C21.504 30.0793 21.5049 30.0793 21.505 30.0793C21.5051 30.0793 21.506 30.0793 21.5061 30.0793C21.5062 30.0793 21.5072 30.0793 21.5072 30.0793C21.5071 30.0793 21.5073 30.0793 21.5072 30.0793H21.5083C21.5082 30.0793 21.5084 30.0793 21.5083 30.0793C21.5083 30.0793 21.5093 30.0793 21.5094 30.0793C21.5095 30.0793 21.5104 30.0793 21.5104 30.0793C21.5103 30.0793 21.5105 30.0793 21.5104 30.0793H21.5115C21.5116 30.0793 21.5125 30.0793 21.5125 30.0793C21.5124 30.0793 21.5126 30.0793 21.5125 30.0793C21.5125 30.0793 21.5135 30.0793 21.5136 30.0793H21.5146C21.5147 30.0793 21.5157 30.0793 21.5157 30.0793C21.5156 30.0793 21.5158 30.0793 21.5157 30.0793C21.5157 30.0793 21.5166 30.0793 21.5167 30.0793H21.5178H21.5188C21.5189 30.0793 21.5199 30.0793 21.5199 30.0793C21.52 30.0793 21.5209 30.0793 21.5209 30.0793C21.5208 30.0793 21.521 30.0793 21.5209 30.0793C21.5209 30.0793 21.5219 30.0793 21.522 30.0793C21.522 30.0793 21.5229 30.0793 21.523 30.0793H21.5241H21.5251C21.5252 30.0793 21.5262 30.0793 21.5262 30.0793C21.5263 30.0793 21.5272 30.0793 21.5272 30.0793C21.5271 30.0793 21.5273 30.0793 21.5272 30.0793C21.5272 30.0793 21.5282 30.0793 21.5283 30.0793H21.5293C21.5294 30.0793 21.5304 30.0793 21.5304 30.0793C21.5303 30.0793 21.5305 30.0793 21.5304 30.0793C21.5304 30.0793 21.5313 30.0793 21.5314 30.0793H21.5325C21.5324 30.0793 21.5326 30.0793 21.5325 30.0793C21.5325 30.0793 21.5334 30.0793 21.5335 30.0793H21.5346C21.5345 30.0793 21.5347 30.0793 21.5346 30.0793C21.5346 30.0793 21.5355 30.0793 21.5356 30.0793C21.5357 30.0793 21.5367 30.0793 21.5368 30.0793C21.5369 30.0793 21.5379 30.0793 21.5379 30.0793C21.5378 30.0793 21.538 30.0793 21.5379 30.0793C21.538 30.0793 21.539 30.0793 21.539 30.0793C21.5389 30.0793 21.5391 30.0793 21.539 30.0793C21.5391 30.0793 21.54 30.0793 21.54 30.0793C21.5399 30.0793 21.5401 30.0793 21.54 30.0793C21.5401 30.0793 21.5411 30.0793 21.5411 30.0793C21.541 30.0793 21.5412 30.0793 21.5411 30.0793C21.5412 30.0793 21.5421 30.0793 21.5421 30.0793C21.542 30.0793 21.5422 30.0793 21.5421 30.0793C21.5422 30.0793 21.5431 30.0793 21.5432 30.0793C21.5431 30.0793 21.5433 30.0793 21.5432 30.0793H21.5442C21.5441 30.0793 21.5443 30.0793 21.5442 30.0793C21.5443 30.0793 21.5453 30.0793 21.5453 30.0793C21.5453 30.0793 21.5462 30.0793 21.5463 30.0793C21.5462 30.0793 21.5464 30.0793 21.5463 30.0793C21.5464 30.0793 21.5474 30.0793 21.5475 30.0793C21.5474 30.0793 21.5476 30.0793 21.5475 30.0793C21.5476 30.0793 21.5486 30.0793 21.5487 30.0793C21.5486 30.0793 21.5488 30.0793 21.5487 30.0793C21.5488 30.0793 21.5498 30.0793 21.5499 30.0793V29.4793ZM21.4945 29.4793H21.4934C21.4934 29.4793 21.4925 29.4793 21.4924 29.4793C21.4923 29.4793 21.4925 29.4793 21.4924 29.4793C21.4923 29.4793 21.4914 29.4793 21.4913 29.4793C21.4912 29.4793 21.4914 29.4793 21.4913 29.4793H21.4903C21.4902 29.4793 21.4904 29.4793 21.4903 29.4793C21.4902 29.4793 21.4893 29.4793 21.4892 29.4793C21.4891 29.4793 21.4893 29.4793 21.4892 29.4793C21.4892 29.4793 21.4883 29.4793 21.4882 29.4793C21.4881 29.4793 21.4883 29.4793 21.4882 29.4793H21.4871C21.487 29.4793 21.4872 29.4793 21.4871 29.4793C21.487 29.4793 21.4861 29.4793 21.4861 29.4793C21.486 29.4793 21.4862 29.4793 21.4861 29.4793C21.486 29.4793 21.485 29.4793 21.485 29.4793C21.4849 29.4793 21.4851 29.4793 21.485 29.4793C21.4849 29.4793 21.484 29.4793 21.484 29.4793C21.4839 29.4793 21.4841 29.4793 21.484 29.4793C21.4839 29.4793 21.4829 29.4793 21.4829 29.4793C21.4828 29.4793 21.483 29.4793 21.4829 29.4793H21.4819C21.4818 29.4793 21.482 29.4793 21.4819 29.4793C21.4819 29.4793 21.4809 29.4793 21.4808 29.4793C21.4807 29.4793 21.4798 29.4793 21.4797 29.4793H21.4786C21.4785 29.4793 21.4787 29.4793 21.4786 29.4793C21.4786 29.4793 21.4776 29.4793 21.4775 29.4793H21.4765C21.4764 29.4793 21.4766 29.4793 21.4765 29.4793C21.4765 29.4793 21.4755 29.4793 21.4754 29.4793H21.4744C21.4743 29.4793 21.4733 29.4793 21.4733 29.4793C21.4732 29.4793 21.4723 29.4793 21.4723 29.4793C21.4722 29.4793 21.4724 29.4793 21.4723 29.4793C21.4723 29.4793 21.4713 29.4793 21.4712 29.4793H21.4702H21.4691C21.469 29.4793 21.4681 29.4793 21.4681 29.4793C21.468 29.4793 21.467 29.4793 21.467 29.4793C21.4669 29.4793 21.4671 29.4793 21.467 29.4793C21.467 29.4793 21.466 29.4793 21.4659 29.4793C21.4659 29.4793 21.465 29.4793 21.4649 29.4793H21.4638H21.4628C21.4627 29.4793 21.4617 29.4793 21.4617 29.4793C21.4616 29.4793 21.4607 29.4793 21.4607 29.4793C21.4606 29.4793 21.4608 29.4793 21.4607 29.4793C21.4607 29.4793 21.4597 29.4793 21.4596 29.4793H21.4586C21.4585 29.4793 21.4575 29.4793 21.4574 29.4793H21.4563C21.4562 29.4793 21.4553 29.4793 21.4553 29.4793C21.4552 29.4793 21.4554 29.4793 21.4553 29.4793H21.4542C21.4541 29.4793 21.4543 29.4793 21.4542 29.4793C21.4542 29.4793 21.4533 29.4793 21.4532 29.4793C21.4531 29.4793 21.4521 29.4793 21.4521 29.4793C21.452 29.4793 21.4522 29.4793 21.4521 29.4793H21.4511C21.451 29.4793 21.4512 29.4793 21.4511 29.4793H21.45C21.4499 29.4793 21.4501 29.4793 21.45 29.4793H21.449C21.4489 29.4793 21.4491 29.4793 21.449 29.4793H21.4479C21.4478 29.4793 21.448 29.4793 21.4479 29.4793H21.4469C21.4468 29.4793 21.447 29.4793 21.4469 29.4793C21.4468 29.4793 21.4458 29.4793 21.4458 29.4793C21.4457 29.4793 21.4459 29.4793 21.4458 29.4793C21.4457 29.4793 21.4449 29.4793 21.4448 29.4793C21.4447 29.4793 21.4449 29.4793 21.4448 29.4793H21.4437C21.4436 29.4793 21.4438 29.4793 21.4437 29.4793C21.4436 29.4793 21.4427 29.4793 21.4426 29.4793C21.4425 29.4793 21.4427 29.4793 21.4426 29.4793C21.4425 29.4793 21.4415 29.4793 21.4415 29.4793H21.4404H21.4393L21.4391 30.0793C21.439 30.0793 21.4392 30.0793 21.4391 30.0793C21.4392 30.0793 21.4402 30.0793 21.4403 30.0793C21.4402 30.0793 21.4404 30.0793 21.4403 30.0793C21.4404 30.0793 21.4414 30.0793 21.4415 30.0793C21.4414 30.0793 21.4416 30.0793 21.4415 30.0793C21.4416 30.0793 21.4426 30.0793 21.4426 30.0793H21.4437C21.4436 30.0793 21.4438 30.0793 21.4437 30.0793C21.4438 30.0793 21.4448 30.0793 21.4448 30.0793C21.4447 30.0793 21.4449 30.0793 21.4448 30.0793C21.4449 30.0793 21.4457 30.0793 21.4458 30.0793C21.4457 30.0793 21.4459 30.0793 21.4458 30.0793H21.4469C21.4468 30.0793 21.447 30.0793 21.4469 30.0793H21.4479C21.4478 30.0793 21.448 30.0793 21.4479 30.0793H21.449C21.4489 30.0793 21.4491 30.0793 21.449 30.0793H21.45C21.4499 30.0793 21.4501 30.0793 21.45 30.0793C21.45 30.0793 21.451 30.0793 21.4511 30.0793C21.451 30.0793 21.4512 30.0793 21.4511 30.0793C21.4511 30.0793 21.452 30.0793 21.4521 30.0793C21.4522 30.0793 21.4532 30.0793 21.4532 30.0793C21.4531 30.0793 21.4533 30.0793 21.4532 30.0793H21.4542C21.4543 30.0793 21.4552 30.0793 21.4553 30.0793H21.4563C21.4564 30.0793 21.4574 30.0793 21.4574 30.0793C21.4573 30.0793 21.4575 30.0793 21.4574 30.0793C21.4574 30.0793 21.4583 30.0793 21.4584 30.0793C21.4585 30.0793 21.4595 30.0793 21.4595 30.0793C21.4596 30.0793 21.4605 30.0793 21.4605 30.0793C21.4604 30.0793 21.4606 30.0793 21.4605 30.0793C21.4605 30.0793 21.4615 30.0793 21.4616 30.0793H21.4626H21.4637C21.4638 30.0793 21.4647 30.0793 21.4647 30.0793C21.4648 30.0793 21.4658 30.0793 21.4658 30.0793C21.4657 30.0793 21.4659 30.0793 21.4658 30.0793C21.4658 30.0793 21.4667 30.0793 21.4668 30.0793C21.4668 30.0793 21.4678 30.0793 21.4679 30.0793H21.4689H21.47C21.4701 30.0793 21.471 30.0793 21.471 30.0793C21.4711 30.0793 21.4721 30.0793 21.4722 30.0793C21.4722 30.0793 21.4732 30.0793 21.4733 30.0793H21.4744C21.4745 30.0793 21.4754 30.0793 21.4754 30.0793C21.4753 30.0793 21.4755 30.0793 21.4754 30.0793C21.4754 30.0793 21.4764 30.0793 21.4765 30.0793C21.4766 30.0793 21.4775 30.0793 21.4775 30.0793C21.4774 30.0793 21.4776 30.0793 21.4775 30.0793C21.4775 30.0793 21.4785 30.0793 21.4786 30.0793C21.4787 30.0793 21.4796 30.0793 21.4796 30.0793C21.4795 30.0793 21.4797 30.0793 21.4796 30.0793H21.4807C21.4806 30.0793 21.4808 30.0793 21.4807 30.0793C21.4807 30.0793 21.4816 30.0793 21.4817 30.0793C21.4818 30.0793 21.4827 30.0793 21.4828 30.0793C21.4829 30.0793 21.4838 30.0793 21.4839 30.0793C21.484 30.0793 21.4849 30.0793 21.485 30.0793C21.4849 30.0793 21.4851 30.0793 21.485 30.0793C21.485 30.0793 21.486 30.0793 21.4861 30.0793C21.486 30.0793 21.4862 30.0793 21.4861 30.0793C21.4861 30.0793 21.487 30.0793 21.4871 30.0793C21.487 30.0793 21.4872 30.0793 21.4871 30.0793H21.4882C21.4881 30.0793 21.4883 30.0793 21.4882 30.0793C21.4883 30.0793 21.4892 30.0793 21.4892 30.0793H21.4903C21.4902 30.0793 21.4904 30.0793 21.4903 30.0793C21.4904 30.0793 21.4913 30.0793 21.4913 30.0793H21.4924C21.4924 30.0793 21.4933 30.0793 21.4934 30.0793C21.4933 30.0793 21.4935 30.0793 21.4934 30.0793C21.4935 30.0793 21.4944 30.0793 21.4945 30.0793V29.4793ZM21.4448 29.4793C20.043 29.4545 18.9066 28.3065 18.9066 26.8914H18.3066C18.3066 28.6343 19.7053 30.0487 21.4337 30.0793L21.4448 29.4793ZM23.1911 35.8712H15.6219V36.4712H23.1911V35.8712ZM15.9202 36.2027C16.216 33.4026 18.5832 31.207 21.455 31.1873L21.4508 30.5873C18.2699 30.6091 15.651 33.0396 15.3235 36.1397L15.9202 36.2027ZM21.4529 31.1873C21.4529 31.1873 21.4549 31.1873 21.455 31.1873C21.455 31.1873 21.456 31.1873 21.4561 31.1873C21.4562 31.1873 21.4572 31.1873 21.4572 31.1873H21.4582C21.4583 31.1873 21.4593 31.1873 21.4593 31.1873H21.4603C21.4604 31.1873 21.4614 31.1873 21.4614 31.1873H21.4624C21.4624 31.1873 21.4634 31.1873 21.4635 31.1873C21.4636 31.1873 21.4645 31.1873 21.4645 31.1873C21.4645 31.1873 21.4655 31.1873 21.4656 31.1873C21.4657 31.1873 21.4666 31.1873 21.4666 31.1873H21.4677C21.4677 31.1873 21.4686 31.1873 21.4687 31.1873H21.4698C21.4699 31.1873 21.4709 31.1873 21.4709 31.1873H21.4719C21.4719 31.1873 21.4729 31.1873 21.473 31.1873C21.4731 31.1873 21.474 31.1873 21.474 31.1873C21.474 31.1873 21.475 31.1873 21.4751 31.1873C21.4752 31.1873 21.4761 31.1873 21.4761 31.1873C21.4761 31.1873 21.4771 31.1873 21.4772 31.1873C21.4773 31.1873 21.4782 31.1873 21.4782 31.1873H21.4793C21.4793 31.1873 21.4802 31.1873 21.4803 31.1873H21.4814C21.4814 31.1873 21.4823 31.1873 21.4824 31.1873C21.4825 31.1873 21.4835 31.1873 21.4835 31.1873H21.4845C21.4846 31.1873 21.4856 31.1873 21.4856 31.1873H21.4866C21.4867 31.1873 21.4877 31.1873 21.4877 31.1873H21.4887C21.4887 31.1873 21.4897 31.1873 21.4898 31.1873C21.4899 31.1873 21.4908 31.1873 21.4908 31.1873C21.4908 31.1873 21.4918 31.1873 21.4919 31.1873C21.492 31.1873 21.4929 31.1873 21.4929 31.1873C21.4929 31.1873 21.4939 31.1873 21.494 31.1873L21.4945 30.5873H21.4934C21.4934 30.5873 21.4925 30.5873 21.4924 30.5873C21.4923 30.5873 21.4913 30.5873 21.4913 30.5873H21.4903C21.4902 30.5873 21.4892 30.5873 21.4892 30.5873H21.4882C21.4881 30.5873 21.4871 30.5873 21.4871 30.5873H21.4861C21.4861 30.5873 21.4851 30.5873 21.485 30.5873C21.4849 30.5873 21.484 30.5873 21.484 30.5873C21.484 30.5873 21.483 30.5873 21.4829 30.5873C21.4828 30.5873 21.4819 30.5873 21.4819 30.5873C21.4819 30.5873 21.4809 30.5873 21.4808 30.5873C21.4807 30.5873 21.4798 30.5873 21.4798 30.5873H21.4787C21.4787 30.5873 21.4778 30.5873 21.4777 30.5873H21.4766C21.4766 30.5873 21.4757 30.5873 21.4756 30.5873H21.4745H21.4735C21.4734 30.5873 21.4724 30.5873 21.4724 30.5873H21.4714C21.4713 30.5873 21.4703 30.5873 21.4703 30.5873H21.4693C21.4693 30.5873 21.4683 30.5873 21.4682 30.5873C21.4681 30.5873 21.4672 30.5873 21.4672 30.5873C21.4672 30.5873 21.4662 30.5873 21.4661 30.5873C21.466 30.5873 21.4651 30.5873 21.4651 30.5873C21.4651 30.5873 21.4641 30.5873 21.464 30.5873C21.4639 30.5873 21.463 30.5873 21.463 30.5873H21.4619C21.4619 30.5873 21.461 30.5873 21.4609 30.5873H21.4598C21.4598 30.5873 21.4589 30.5873 21.4588 30.5873H21.4577C21.4577 30.5873 21.4568 30.5873 21.4567 30.5873C21.4566 30.5873 21.4556 30.5873 21.4556 30.5873H21.4546C21.4545 30.5873 21.4529 30.5873 21.4529 30.5873V31.1873ZM21.494 31.1873C21.4941 31.1873 21.495 31.1873 21.495 31.1873H21.4961C21.4961 31.1873 21.497 31.1873 21.4971 31.1873H21.4982C21.4982 31.1873 21.4991 31.1873 21.4992 31.1873H21.5003H21.5013C21.5014 31.1873 21.5024 31.1873 21.5024 31.1873H21.5034C21.5035 31.1873 21.5045 31.1873 21.5045 31.1873H21.5055C21.5055 31.1873 21.5065 31.1873 21.5066 31.1873C21.5067 31.1873 21.5076 31.1873 21.5076 31.1873C21.5076 31.1873 21.5086 31.1873 21.5087 31.1873C21.5088 31.1873 21.5097 31.1873 21.5097 31.1873C21.5097 31.1873 21.5107 31.1873 21.5108 31.1873C21.5109 31.1873 21.5118 31.1873 21.5118 31.1873H21.5129C21.5129 31.1873 21.5138 31.1873 21.5139 31.1873H21.515C21.515 31.1873 21.5159 31.1873 21.516 31.1873H21.5171C21.5171 31.1873 21.518 31.1873 21.5181 31.1873C21.5182 31.1873 21.5192 31.1873 21.5192 31.1873H21.5202C21.5203 31.1873 21.5213 31.1873 21.5213 31.1873H21.5223C21.5223 31.1873 21.5233 31.1873 21.5234 31.1873C21.5235 31.1873 21.5244 31.1873 21.5244 31.1873C21.5244 31.1873 21.5254 31.1873 21.5255 31.1873C21.5256 31.1873 21.5265 31.1873 21.5265 31.1873C21.5265 31.1873 21.5275 31.1873 21.5276 31.1873C21.5277 31.1873 21.5286 31.1873 21.5286 31.1873H21.5297C21.5297 31.1873 21.5306 31.1873 21.5307 31.1873H21.5318C21.5318 31.1873 21.5327 31.1873 21.5328 31.1873H21.5339C21.5339 31.1873 21.5348 31.1873 21.5349 31.1873C21.535 31.1873 21.536 31.1873 21.536 31.1873V30.5873C21.5359 30.5873 21.5349 30.5873 21.5349 30.5873H21.5339C21.5339 30.5873 21.5329 30.5873 21.5328 30.5873C21.5327 30.5873 21.5318 30.5873 21.5318 30.5873C21.5318 30.5873 21.5308 30.5873 21.5307 30.5873C21.5306 30.5873 21.5297 30.5873 21.5297 30.5873C21.5297 30.5873 21.5287 30.5873 21.5286 30.5873C21.5285 30.5873 21.5276 30.5873 21.5276 30.5873H21.5265C21.5265 30.5873 21.5256 30.5873 21.5255 30.5873H21.5244C21.5244 30.5873 21.5235 30.5873 21.5234 30.5873H21.5223H21.5213C21.5212 30.5873 21.5202 30.5873 21.5202 30.5873H21.5192C21.5191 30.5873 21.5181 30.5873 21.5181 30.5873H21.5171C21.5171 30.5873 21.5161 30.5873 21.516 30.5873C21.5159 30.5873 21.515 30.5873 21.515 30.5873C21.515 30.5873 21.514 30.5873 21.5139 30.5873C21.5138 30.5873 21.5129 30.5873 21.5129 30.5873C21.5129 30.5873 21.5119 30.5873 21.5118 30.5873C21.5117 30.5873 21.5108 30.5873 21.5108 30.5873H21.5097C21.5097 30.5873 21.5088 30.5873 21.5087 30.5873H21.5076C21.5076 30.5873 21.5067 30.5873 21.5066 30.5873H21.5055C21.5055 30.5873 21.5046 30.5873 21.5045 30.5873C21.5044 30.5873 21.5034 30.5873 21.5034 30.5873H21.5024C21.5023 30.5873 21.5013 30.5873 21.5013 30.5873H21.5003C21.5003 30.5873 21.4993 30.5873 21.4992 30.5873C21.4991 30.5873 21.4982 30.5873 21.4982 30.5873C21.4982 30.5873 21.4972 30.5873 21.4971 30.5873C21.497 30.5873 21.4961 30.5873 21.4961 30.5873C21.4961 30.5873 21.4946 30.5873 21.4945 30.5873L21.494 31.1873ZM21.5339 31.1873C22.8997 31.1939 24.1487 31.6992 25.1159 32.5216L25.5046 32.0646C24.4357 31.1557 23.0525 30.5946 21.5375 30.5873L21.5339 31.1873ZM25.0898 32.0896C24.0598 33.2055 23.2943 34.5789 22.9007 36.0959L23.4815 36.2466C23.8497 34.8273 24.5662 33.5414 25.5307 32.4966L25.0898 32.0896ZM39.6017 38.9275C39.6017 40.1814 38.5795 41.2036 37.3255 41.2036V41.8036C38.9108 41.8036 40.2017 40.5128 40.2017 38.9275H39.6017ZM37.3255 41.2036H26.5914V41.8036H37.3255V41.2036ZM26.5914 41.2036C25.3374 41.2036 24.3152 40.1814 24.3152 38.9275H23.7152C23.7152 40.5128 25.0061 41.8036 26.5914 41.8036V41.2036ZM24.3152 38.9275V38.4565H23.7152V38.9275H24.3152ZM24.3152 38.4565C24.3152 34.3185 27.6208 30.9331 31.7317 30.8132L31.7142 30.2135C27.2795 30.3428 23.7152 33.9934 23.7152 38.4565H24.3152ZM31.6958 30.8121C31.788 30.8205 31.8851 30.8203 31.9585 30.8203V30.2203C31.8794 30.2203 31.8103 30.22 31.7502 30.2146L31.6958 30.8121ZM31.9585 30.8203C32.0318 30.8203 32.1289 30.8205 32.2211 30.8121L32.1667 30.2146C32.1066 30.22 32.0375 30.2203 31.9585 30.2203V30.8203ZM32.1852 30.8132C36.2961 30.9331 39.6017 34.3185 39.6017 38.4565H40.2017C40.2017 33.9934 36.6374 30.3428 32.2027 30.2135L32.1852 30.8132ZM39.6017 38.4565V38.9275H40.2017V38.4565H39.6017ZM41.0161 36.0956C40.6226 34.586 39.8712 33.2337 38.8486 32.1181L38.4063 32.5235C39.3642 33.5686 40.0672 34.834 40.4355 36.2469L41.0161 36.0956ZM38.8237 32.5477C39.7962 31.7066 41.0577 31.2004 42.4391 31.1873L42.4334 30.5873C40.9063 30.6018 39.5085 31.1622 38.4312 32.0939L38.8237 32.5477ZM42.4363 31.1873C42.4363 31.1873 42.4372 31.1873 42.4373 31.1873H42.4391C42.4392 31.1873 42.4401 31.1873 42.4401 31.1873C42.4401 31.1873 42.4411 31.1873 42.4412 31.1873H42.4423C42.4424 31.1873 42.4434 31.1873 42.4434 31.1873H42.4445C42.4446 31.1873 42.4456 31.1873 42.4456 31.1873H42.4466C42.4466 31.1873 42.4476 31.1873 42.4477 31.1873H42.4488C42.4489 31.1873 42.4499 31.1873 42.4499 31.1873H42.451C42.4511 31.1873 42.4521 31.1873 42.4521 31.1873C42.4521 31.1873 42.4531 31.1873 42.4532 31.1873C42.4533 31.1873 42.4543 31.1873 42.4543 31.1873C42.4543 31.1873 42.4553 31.1873 42.4554 31.1873C42.4555 31.1873 42.4564 31.1873 42.4564 31.1873C42.4564 31.1873 42.4574 31.1873 42.4575 31.1873C42.4576 31.1873 42.4586 31.1873 42.4586 31.1873C42.4586 31.1873 42.4596 31.1873 42.4597 31.1873H42.4608C42.4608 31.1873 42.4618 31.1873 42.4619 31.1873H42.463C42.4631 31.1873 42.4641 31.1873 42.4641 31.1873H42.4652C42.4652 31.1873 42.4661 31.1873 42.4662 31.1873H42.4673C42.4674 31.1873 42.4684 31.1873 42.4684 31.1873H42.4695C42.4696 31.1873 42.4706 31.1873 42.4706 31.1873C42.4706 31.1873 42.4716 31.1873 42.4717 31.1873C42.4718 31.1873 42.4728 31.1873 42.4728 31.1873C42.4728 31.1873 42.4738 31.1873 42.4739 31.1873H42.475C42.475 31.1873 42.4759 31.1873 42.476 31.1873C42.4761 31.1873 42.4771 31.1873 42.4771 31.1873L42.4778 30.5873H42.4767C42.4767 30.5873 42.4757 30.5873 42.4756 30.5873H42.4745C42.4744 30.5873 42.4734 30.5873 42.4734 30.5873H42.4723C42.4723 30.5873 42.4714 30.5873 42.4713 30.5873H42.4702C42.4701 30.5873 42.4691 30.5873 42.4691 30.5873H42.468C42.4679 30.5873 42.4669 30.5873 42.4669 30.5873C42.4669 30.5873 42.4659 30.5873 42.4658 30.5873C42.4657 30.5873 42.4647 30.5873 42.4647 30.5873C42.4647 30.5873 42.4637 30.5873 42.4636 30.5873H42.4625C42.4625 30.5873 42.4616 30.5873 42.4615 30.5873C42.4614 30.5873 42.4604 30.5873 42.4604 30.5873C42.4604 30.5873 42.4594 30.5873 42.4593 30.5873H42.4582C42.4582 30.5873 42.4572 30.5873 42.4571 30.5873H42.456C42.4559 30.5873 42.4549 30.5873 42.4549 30.5873H42.4538C42.4537 30.5873 42.4527 30.5873 42.4527 30.5873H42.4517C42.4516 30.5873 42.4506 30.5873 42.4506 30.5873H42.4495C42.4494 30.5873 42.4484 30.5873 42.4484 30.5873C42.4484 30.5873 42.4474 30.5873 42.4473 30.5873C42.4472 30.5873 42.4462 30.5873 42.4462 30.5873C42.4462 30.5873 42.4452 30.5873 42.4451 30.5873H42.444C42.444 30.5873 42.443 30.5873 42.4429 30.5873C42.4428 30.5873 42.4419 30.5873 42.4419 30.5873C42.4419 30.5873 42.4409 30.5873 42.4408 30.5873H42.4397C42.4397 30.5873 42.4387 30.5873 42.4386 30.5873H42.4375C42.4374 30.5873 42.4363 30.5873 42.4363 30.5873V31.1873ZM42.4771 31.1873C42.4771 31.1873 42.4781 31.1873 42.4782 31.1873H42.4793C42.4793 31.1873 42.4803 31.1873 42.4804 31.1873H42.4815C42.4816 31.1873 42.4826 31.1873 42.4826 31.1873H42.4837C42.4838 31.1873 42.4848 31.1873 42.4848 31.1873H42.4858C42.4859 31.1873 42.4869 31.1873 42.4869 31.1873H42.488C42.4881 31.1873 42.4891 31.1873 42.4891 31.1873C42.4891 31.1873 42.4901 31.1873 42.4902 31.1873C42.4903 31.1873 42.4913 31.1873 42.4913 31.1873C42.4913 31.1873 42.4923 31.1873 42.4924 31.1873C42.4925 31.1873 42.4935 31.1873 42.4935 31.1873C42.4935 31.1873 42.4945 31.1873 42.4946 31.1873C42.4947 31.1873 42.4956 31.1873 42.4956 31.1873C42.4956 31.1873 42.4966 31.1873 42.4967 31.1873C42.4968 31.1873 42.4978 31.1873 42.4978 31.1873C42.4978 31.1873 42.4988 31.1873 42.4989 31.1873H42.5C42.5 31.1873 42.501 31.1873 42.5011 31.1873C42.5012 31.1873 42.5021 31.1873 42.5021 31.1873C42.5021 31.1873 42.5031 31.1873 42.5032 31.1873H42.5043C42.5043 31.1873 42.5053 31.1873 42.5054 31.1873H42.5065C42.5066 31.1873 42.5076 31.1873 42.5076 31.1873H42.5087C42.5088 31.1873 42.5098 31.1873 42.5098 31.1873C42.5098 31.1873 42.5108 31.1873 42.5109 31.1873C42.511 31.1873 42.5119 31.1873 42.5119 31.1873H42.513C42.5131 31.1873 42.5141 31.1873 42.5141 31.1873C42.5141 31.1873 42.5151 31.1873 42.5152 31.1873C42.5153 31.1873 42.5163 31.1873 42.5163 31.1873C42.5163 31.1873 42.5173 31.1873 42.5174 31.1873H42.5185L42.5194 30.5873H42.5184C42.5183 30.5873 42.5173 30.5873 42.5173 30.5873C42.5173 30.5873 42.5163 30.5873 42.5162 30.5873C42.5161 30.5873 42.5151 30.5873 42.5151 30.5873C42.5151 30.5873 42.5141 30.5873 42.514 30.5873H42.5129C42.5129 30.5873 42.5119 30.5873 42.5118 30.5873H42.5107C42.5106 30.5873 42.5096 30.5873 42.5096 30.5873H42.5086C42.5086 30.5873 42.5076 30.5873 42.5075 30.5873H42.5064C42.5063 30.5873 42.5053 30.5873 42.5053 30.5873H42.5042C42.5041 30.5873 42.5031 30.5873 42.5031 30.5873C42.5031 30.5873 42.5021 30.5873 42.502 30.5873C42.5019 30.5873 42.5009 30.5873 42.5009 30.5873C42.5009 30.5873 42.4999 30.5873 42.4998 30.5873C42.4997 30.5873 42.4988 30.5873 42.4988 30.5873C42.4988 30.5873 42.4978 30.5873 42.4977 30.5873C42.4976 30.5873 42.4966 30.5873 42.4966 30.5873C42.4966 30.5873 42.4956 30.5873 42.4955 30.5873H42.4944C42.4944 30.5873 42.4934 30.5873 42.4933 30.5873C42.4932 30.5873 42.4923 30.5873 42.4923 30.5873C42.4923 30.5873 42.4913 30.5873 42.4912 30.5873C42.4911 30.5873 42.4901 30.5873 42.4901 30.5873C42.4901 30.5873 42.4891 30.5873 42.489 30.5873H42.4879C42.4879 30.5873 42.4869 30.5873 42.4868 30.5873H42.4857C42.4856 30.5873 42.4846 30.5873 42.4846 30.5873H42.4835C42.4835 30.5873 42.4826 30.5873 42.4825 30.5873H42.4814C42.4813 30.5873 42.4803 30.5873 42.4803 30.5873H42.4792C42.4792 30.5873 42.4779 30.5873 42.4778 30.5873L42.4771 31.1873ZM42.5174 31.1873C45.3892 31.207 47.7563 33.4026 48.0521 36.2027L48.6488 36.1397C48.3213 33.0396 45.7024 30.6091 42.5215 30.5873L42.5174 31.1873ZM48.3504 35.8712H40.7258V36.4712H48.3504V35.8712Z" fill="#47BEB9"/>
</g>
</g>
<defs>
<clipPath id="clip0_210_984">
<rect width="63" height="63" fill="white" transform="translate(0.5)"/>
</clipPath>
</defs>
</svg>
